<?xml version="1.0" encoding="UTF-8"?>
<svg xmlns="http://www.w3.org/2000/svg" xmlns:xlink="http://www.w3.org/1999/xlink" width="576pt" height="356pt" viewBox="0 0 576 356" version="1.1">
<g id="surface6">
<path style="fill-rule:nonzero;fill:rgb(72.98584%,23.939514%,23.095703%);fill-opacity:0.2;stroke-width:1;stroke-linecap:square;stroke-linejoin:miter;stroke:rgb(72.98584%,23.939514%,23.095703%);stroke-opacity:0.2;stroke-miterlimit:3.239307;" d="M 60.890625 261.207031 L 61.171875 261.105469 L 61.449219 261.003906 L 62.007813 260.800781 L 63.121094 260.398438 L 65.347656 259.585938 L 69.808594 257.964844 L 79.472656 254.453125 L 88.496094 251.171875 L 97.347656 247.960938 L 106.945313 244.476563 L 115.902344 241.226563 L 125.609375 237.707031 L 135.140625 234.253906 L 144.027344 231.039063 L 153.667969 227.554688 L 162.667969 224.308594 L 171.488281 221.128906 L 181.0625 217.6875 L 189.992188 214.488281 L 199.675781 211.03125 L 209.179688 207.65625 L 218.042969 204.527344 L 227.65625 201.167969 L 236.632813 198.082031 L 246.355469 194.816406 L 255.902344 191.75 L 256.039063 191.707031 L 256.179688 191.664063 L 256.457031 191.578125 L 257.015625 191.40625 L 258.128906 191.066406 L 260.355469 190.394531 L 264.808594 189.113281 L 264.957031 189.070313 L 265.109375 189.03125 L 265.410156 188.945313 L 266.015625 188.78125 L 267.222656 188.457031 L 269.632813 187.839844 L 269.9375 187.761719 L 270.238281 187.6875 L 270.839844 187.542969 L 272.046875 187.261719 L 274.460938 186.734375 L 274.601563 186.703125 L 274.746094 186.675781 L 275.027344 186.617188 L 275.589844 186.507813 L 276.714844 186.296875 L 276.855469 186.269531 L 277 186.246094 L 277.28125 186.195313 L 277.84375 186.101563 L 278.96875 185.921875 L 279.109375 185.898438 L 279.25 185.878906 L 279.535156 185.835938 L 280.238281 185.738281 L 280.378906 185.722656 L 280.660156 185.683594 L 281.222656 185.613281 L 281.503906 185.582031 L 281.789063 185.550781 L 282.351563 185.492188 L 282.492188 185.476563 L 282.632813 185.464844 L 282.914063 185.4375 L 283.617188 185.378906 L 283.753906 185.367188 L 284.03125 185.347656 L 284.167969 185.335938 L 284.304688 185.328125 L 284.582031 185.308594 L 284.71875 185.300781 L 284.859375 185.292969 L 285.136719 185.277344 L 285.273438 185.269531 L 285.410156 185.265625 L 285.6875 185.25 L 285.824219 185.246094 L 285.964844 185.242188 L 286.101563 185.234375 L 286.238281 185.230469 L 286.378906 185.226563 L 286.652344 185.21875 L 286.792969 185.214844 L 286.929688 185.214844 L 287.066406 185.210938 L 287.207031 185.207031 L 287.34375 185.207031 L 287.484375 185.203125 L 288.449219 185.203125 L 288.585938 185.207031 L 288.726563 185.207031 L 288.863281 185.210938 L 289 185.210938 L 289.140625 185.214844 L 289.414063 185.222656 L 289.554688 185.226563 L 289.691406 185.230469 L 289.832031 185.234375 L 290.105469 185.242188 L 290.246094 185.25 L 290.382813 185.253906 L 290.660156 185.265625 L 290.933594 185.28125 L 291.210938 185.296875 L 291.347656 185.304688 L 291.488281 185.3125 L 291.761719 185.332031 L 292.316406 185.371094 L 292.464844 185.382813 L 292.617188 185.398438 L 292.914063 185.421875 L 293.515625 185.476563 L 293.8125 185.507813 L 294.113281 185.539063 L 294.714844 185.609375 L 294.863281 185.625 L 295.011719 185.644531 L 295.3125 185.679688 L 295.910156 185.757813 L 297.109375 185.933594 L 297.261719 185.957031 L 297.410156 185.980469 L 297.710938 186.027344 L 298.308594 186.125 L 299.507813 186.335938 L 301.902344 186.808594 L 302.042969 186.839844 L 302.183594 186.867188 L 302.464844 186.929688 L 303.023438 187.050781 L 304.140625 187.304688 L 306.378906 187.839844 L 310.851563 189.019531 L 311.003906 189.058594 L 311.15625 189.101563 L 311.457031 189.1875 L 312.0625 189.355469 L 313.277344 189.703125 L 315.699219 190.410156 L 320.550781 191.890625 L 330.070313 194.957031 L 338.949219 197.941406 L 348.578125 201.253906 L 357.570313 204.390625 L 366.382813 207.5 L 375.945313 210.894531 L 384.867188 214.078125 L 394.535156 217.546875 L 403.566406 220.789063 L 412.421875 223.980469 L 422.027344 227.445313 L 430.988281 230.683594 L 440.703125 234.199219 L 450.238281 237.652344 L 459.136719 240.878906 L 468.78125 244.375 L 477.785156 247.644531 L 486.617188 250.851563 L 496.195313 254.332031 L 505.132813 257.578125 L 505.289063 257.636719 L 505.441406 257.691406 L 506.378906 258.03125 L 507.625 258.488281 L 510.121094 259.394531 L 510.277344 259.449219 L 510.433594 259.507813 L 510.742188 259.621094 L 511.367188 259.847656 L 512.613281 260.300781 L 512.769531 260.355469 L 512.925781 260.414063 L 513.863281 260.753906 L 514.015625 260.808594 L 514.171875 260.867188 L 514.484375 260.980469 L 514.640625 261.039063 L 514.796875 261.09375 L 514.953125 261.152344 L 515.109375 261.207031 L 515.109375 94.78125 L 514.953125 94.835938 L 514.796875 94.894531 L 514.640625 94.949219 L 514.484375 95.007813 L 514.171875 95.121094 L 514.015625 95.175781 L 513.863281 95.234375 L 512.925781 95.574219 L 512.769531 95.628906 L 512.613281 95.6875 L 511.367188 96.140625 L 510.742188 96.367188 L 510.433594 96.480469 L 510.277344 96.539063 L 510.121094 96.59375 L 507.625 97.5 L 506.378906 97.953125 L 505.441406 98.292969 L 505.289063 98.351563 L 505.132813 98.40625 L 496.195313 101.65625 L 486.617188 105.136719 L 477.785156 108.34375 L 468.78125 111.609375 L 459.136719 115.109375 L 450.238281 118.335938 L 440.703125 121.789063 L 430.988281 125.304688 L 422.027344 128.542969 L 412.421875 132.007813 L 403.566406 135.195313 L 394.535156 138.441406 L 384.867188 141.90625 L 375.945313 145.09375 L 366.382813 148.488281 L 357.570313 151.597656 L 348.578125 154.734375 L 338.949219 158.046875 L 330.070313 161.03125 L 320.550781 164.097656 L 315.699219 165.574219 L 313.277344 166.285156 L 312.0625 166.628906 L 311.457031 166.800781 L 311.15625 166.886719 L 311.003906 166.925781 L 310.851563 166.96875 L 306.378906 168.148438 L 304.140625 168.683594 L 303.023438 168.9375 L 302.464844 169.058594 L 302.183594 169.117188 L 302.042969 169.148438 L 301.902344 169.175781 L 299.507813 169.652344 L 298.308594 169.863281 L 297.710938 169.960938 L 297.410156 170.007813 L 297.261719 170.03125 L 297.109375 170.054688 L 295.910156 170.226563 L 295.3125 170.308594 L 295.011719 170.34375 L 294.863281 170.363281 L 294.714844 170.378906 L 294.113281 170.449219 L 293.8125 170.480469 L 293.664063 170.496094 L 293.515625 170.507813 L 292.914063 170.566406 L 292.617188 170.589844 L 292.464844 170.601563 L 292.316406 170.613281 L 291.761719 170.65625 L 291.488281 170.671875 L 291.347656 170.683594 L 291.210938 170.691406 L 290.933594 170.707031 L 290.796875 170.714844 L 290.660156 170.71875 L 290.382813 170.734375 L 290.246094 170.738281 L 290.105469 170.746094 L 289.832031 170.753906 L 289.691406 170.757813 L 289.554688 170.761719 L 289.414063 170.765625 L 289.140625 170.773438 L 289 170.777344 L 288.863281 170.777344 L 288.726563 170.78125 L 288.449219 170.78125 L 288.3125 170.785156 L 287.621094 170.785156 L 287.484375 170.78125 L 287.34375 170.78125 L 287.207031 170.777344 L 287.066406 170.777344 L 286.929688 170.773438 L 286.792969 170.773438 L 286.652344 170.769531 L 286.378906 170.761719 L 286.238281 170.757813 L 286.101563 170.75 L 285.964844 170.746094 L 285.824219 170.742188 L 285.6875 170.734375 L 285.410156 170.722656 L 285.273438 170.714844 L 285.136719 170.710938 L 284.859375 170.695313 L 284.71875 170.6875 L 284.582031 170.679688 L 284.304688 170.660156 L 284.167969 170.652344 L 284.03125 170.640625 L 283.753906 170.621094 L 283.617188 170.609375 L 282.914063 170.550781 L 282.632813 170.523438 L 282.492188 170.511719 L 282.351563 170.496094 L 281.789063 170.4375 L 281.503906 170.40625 L 281.363281 170.390625 L 281.222656 170.371094 L 280.660156 170.304688 L 280.378906 170.265625 L 280.238281 170.25 L 279.535156 170.152344 L 279.25 170.109375 L 279.109375 170.089844 L 278.96875 170.066406 L 277.84375 169.886719 L 277.28125 169.792969 L 277 169.742188 L 276.855469 169.714844 L 276.714844 169.691406 L 275.589844 169.480469 L 275.027344 169.367188 L 274.746094 169.3125 L 274.601563 169.28125 L 274.460938 169.253906 L 272.046875 168.726563 L 270.839844 168.445313 L 269.9375 168.222656 L 269.785156 168.1875 L 269.632813 168.148438 L 267.222656 167.53125 L 266.015625 167.207031 L 265.410156 167.042969 L 265.109375 166.957031 L 264.957031 166.917969 L 264.808594 166.875 L 260.355469 165.59375 L 258.128906 164.921875 L 257.015625 164.582031 L 256.457031 164.410156 L 256.179688 164.324219 L 256.039063 164.28125 L 255.902344 164.238281 L 246.355469 161.167969 L 236.632813 157.90625 L 227.65625 154.816406 L 218.042969 151.460938 L 209.179688 148.332031 L 199.675781 144.957031 L 189.992188 141.5 L 181.0625 138.296875 L 171.488281 134.859375 L 162.667969 131.679688 L 153.667969 128.433594 L 144.027344 124.949219 L 135.140625 121.730469 L 125.609375 118.28125 L 115.902344 114.761719 L 106.945313 111.511719 L 97.347656 108.027344 L 88.496094 104.8125 L 79.472656 101.535156 L 69.808594 98.023438 L 65.347656 96.402344 L 63.121094 95.589844 L 62.007813 95.1875 L 61.449219 94.984375 L 61.171875 94.882813 L 60.890625 94.78125 Z M 60.890625 261.207031 "/>
<path style="fill:none;stroke-width:1.6;stroke-linecap:square;stroke-linejoin:miter;stroke:rgb(72.98584%,23.939514%,23.095703%);stroke-opacity:1;stroke-miterlimit:3.25;" d="M 60.890625 94.78125 L 61.171875 94.882813 L 61.449219 94.984375 L 62.007813 95.1875 L 63.121094 95.589844 L 65.347656 96.402344 L 69.808594 98.023438 L 79.472656 101.535156 L 88.496094 104.8125 L 97.347656 108.027344 L 106.945313 111.511719 L 115.902344 114.761719 L 125.609375 118.28125 L 135.140625 121.730469 L 144.027344 124.949219 L 153.667969 128.433594 L 162.667969 131.679688 L 171.488281 134.859375 L 181.0625 138.296875 L 189.992188 141.5 L 199.675781 144.957031 L 209.179688 148.332031 L 218.042969 151.460938 L 227.65625 154.816406 L 236.632813 157.90625 L 246.355469 161.167969 L 255.902344 164.238281 L 256.039063 164.28125 L 256.179688 164.324219 L 256.457031 164.410156 L 257.015625 164.582031 L 258.128906 164.921875 L 260.355469 165.59375 L 264.808594 166.875 L 264.957031 166.917969 L 265.109375 166.957031 L 265.410156 167.042969 L 266.015625 167.207031 L 267.222656 167.53125 L 269.632813 168.148438 L 269.785156 168.1875 L 269.9375 168.222656 L 270.839844 168.445313 L 272.046875 168.726563 L 274.460938 169.253906 L 274.601563 169.28125 L 274.746094 169.3125 L 275.027344 169.367188 L 275.589844 169.480469 L 276.714844 169.691406 L 276.855469 169.714844 L 277 169.742188 L 277.28125 169.792969 L 277.84375 169.886719 L 278.96875 170.066406 L 279.109375 170.089844 L 279.25 170.109375 L 279.535156 170.152344 L 280.238281 170.25 L 280.378906 170.265625 L 280.660156 170.304688 L 281.222656 170.371094 L 281.363281 170.390625 L 281.503906 170.40625 L 281.789063 170.4375 L 282.351563 170.496094 L 282.492188 170.511719 L 282.632813 170.523438 L 282.914063 170.550781 L 283.617188 170.609375 L 283.753906 170.621094 L 284.03125 170.640625 L 284.167969 170.652344 L 284.304688 170.660156 L 284.582031 170.679688 L 284.71875 170.6875 L 284.859375 170.695313 L 285.136719 170.710938 L 285.273438 170.714844 L 285.410156 170.722656 L 285.6875 170.734375 L 285.824219 170.742188 L 285.964844 170.746094 L 286.101563 170.75 L 286.238281 170.757813 L 286.378906 170.761719 L 286.652344 170.769531 L 286.792969 170.773438 L 286.929688 170.773438 L 287.066406 170.777344 L 287.207031 170.777344 L 287.34375 170.78125 L 287.484375 170.78125 L 287.621094 170.785156 L 288.3125 170.785156 L 288.449219 170.78125 L 288.726563 170.78125 L 288.863281 170.777344 L 289 170.777344 L 289.140625 170.773438 L 289.414063 170.765625 L 289.554688 170.761719 L 289.691406 170.757813 L 289.832031 170.753906 L 290.105469 170.746094 L 290.246094 170.738281 L 290.382813 170.734375 L 290.660156 170.71875 L 290.796875 170.714844 L 290.933594 170.707031 L 291.210938 170.691406 L 291.347656 170.683594 L 291.488281 170.671875 L 291.761719 170.65625 L 292.316406 170.613281 L 292.464844 170.601563 L 292.617188 170.589844 L 292.914063 170.566406 L 293.515625 170.507813 L 293.664063 170.496094 L 293.8125 170.480469 L 294.113281 170.449219 L 294.714844 170.378906 L 294.863281 170.363281 L 295.011719 170.34375 L 295.3125 170.308594 L 295.910156 170.226563 L 297.109375 170.054688 L 297.261719 170.03125 L 297.410156 170.007813 L 297.710938 169.960938 L 298.308594 169.863281 L 299.507813 169.652344 L 301.902344 169.175781 L 302.042969 169.148438 L 302.183594 169.117188 L 302.464844 169.058594 L 303.023438 168.9375 L 304.140625 168.683594 L 306.378906 168.148438 L 310.851563 166.96875 L 311.003906 166.925781 L 311.15625 166.886719 L 311.457031 166.800781 L 312.0625 166.628906 L 313.277344 166.285156 L 315.699219 165.574219 L 320.550781 164.097656 L 330.070313 161.03125 L 338.949219 158.046875 L 348.578125 154.734375 L 357.570313 151.597656 L 366.382813 148.488281 L 375.945313 145.09375 L 384.867188 141.90625 L 394.535156 138.441406 L 403.566406 135.195313 L 412.421875 132.007813 L 422.027344 128.542969 L 430.988281 125.304688 L 440.703125 121.789063 L 450.238281 118.335938 L 459.136719 115.109375 L 468.78125 111.609375 L 477.785156 108.34375 L 486.617188 105.136719 L 496.195313 101.65625 L 505.132813 98.40625 L 505.289063 98.351563 L 505.441406 98.292969 L 506.378906 97.953125 L 507.625 97.5 L 510.121094 96.59375 L 510.277344 96.539063 L 510.433594 96.480469 L 510.742188 96.367188 L 511.367188 96.140625 L 512.613281 95.6875 L 512.769531 95.628906 L 512.925781 95.574219 L 513.863281 95.234375 L 514.015625 95.175781 L 514.171875 95.121094 L 514.484375 95.007813 L 514.640625 94.949219 L 514.796875 94.894531 L 514.953125 94.835938 L 515.109375 94.78125 "/>
<path style="fill:none;stroke-width:1.6;stroke-linecap:square;stroke-linejoin:miter;stroke:rgb(72.98584%,23.939514%,23.095703%);stroke-opacity:1;stroke-miterlimit:3.25;" d="M 60.890625 261.207031 L 61.171875 261.105469 L 61.449219 261.003906 L 62.007813 260.800781 L 63.121094 260.398438 L 65.347656 259.585938 L 69.808594 257.964844 L 79.472656 254.453125 L 88.496094 251.171875 L 97.347656 247.960938 L 106.945313 244.476563 L 115.902344 241.226563 L 125.609375 237.707031 L 135.140625 234.253906 L 144.027344 231.039063 L 153.667969 227.554688 L 162.667969 224.308594 L 171.488281 221.128906 L 181.0625 217.6875 L 189.992188 214.488281 L 199.675781 211.03125 L 209.179688 207.65625 L 218.042969 204.527344 L 227.65625 201.167969 L 236.632813 198.082031 L 246.355469 194.816406 L 255.902344 191.75 L 256.039063 191.707031 L 256.179688 191.664063 L 256.457031 191.578125 L 257.015625 191.40625 L 258.128906 191.066406 L 260.355469 190.394531 L 264.808594 189.113281 L 264.957031 189.070313 L 265.109375 189.03125 L 265.410156 188.945313 L 266.015625 188.78125 L 267.222656 188.457031 L 269.632813 187.839844 L 269.9375 187.761719 L 270.238281 187.6875 L 270.839844 187.542969 L 272.046875 187.261719 L 274.460938 186.734375 L 274.601563 186.703125 L 274.746094 186.675781 L 275.027344 186.617188 L 275.589844 186.507813 L 276.714844 186.296875 L 276.855469 186.269531 L 277 186.246094 L 277.28125 186.195313 L 277.84375 186.101563 L 278.96875 185.921875 L 279.109375 185.898438 L 279.25 185.878906 L 279.535156 185.835938 L 280.238281 185.738281 L 280.378906 185.722656 L 280.660156 185.683594 L 281.222656 185.613281 L 281.503906 185.582031 L 281.789063 185.550781 L 282.351563 185.492188 L 282.492188 185.476563 L 282.632813 185.464844 L 282.914063 185.4375 L 283.617188 185.378906 L 283.753906 185.367188 L 284.03125 185.347656 L 284.167969 185.335938 L 284.304688 185.328125 L 284.582031 185.308594 L 284.71875 185.300781 L 284.859375 185.292969 L 285.136719 185.277344 L 285.273438 185.269531 L 285.410156 185.265625 L 285.6875 185.25 L 285.824219 185.246094 L 285.964844 185.242188 L 286.101563 185.234375 L 286.238281 185.230469 L 286.378906 185.226563 L 286.652344 185.21875 L 286.792969 185.214844 L 286.929688 185.214844 L 287.066406 185.210938 L 287.207031 185.207031 L 287.34375 185.207031 L 287.484375 185.203125 L 288.449219 185.203125 L 288.585938 185.207031 L 288.726563 185.207031 L 288.863281 185.210938 L 289 185.210938 L 289.140625 185.214844 L 289.414063 185.222656 L 289.554688 185.226563 L 289.691406 185.230469 L 289.832031 185.234375 L 290.105469 185.242188 L 290.246094 185.25 L 290.382813 185.253906 L 290.660156 185.265625 L 290.933594 185.28125 L 291.210938 185.296875 L 291.347656 185.304688 L 291.488281 185.3125 L 291.761719 185.332031 L 292.316406 185.371094 L 292.464844 185.382813 L 292.617188 185.398438 L 292.914063 185.421875 L 293.515625 185.476563 L 293.8125 185.507813 L 294.113281 185.539063 L 294.714844 185.609375 L 294.863281 185.625 L 295.011719 185.644531 L 295.3125 185.679688 L 295.910156 185.757813 L 297.109375 185.933594 L 297.261719 185.957031 L 297.410156 185.980469 L 297.710938 186.027344 L 298.308594 186.125 L 299.507813 186.335938 L 301.902344 186.808594 L 302.042969 186.839844 L 302.183594 186.867188 L 302.464844 186.929688 L 303.023438 187.050781 L 304.140625 187.304688 L 306.378906 187.839844 L 310.851563 189.019531 L 311.003906 189.058594 L 311.15625 189.101563 L 311.457031 189.1875 L 312.0625 189.355469 L 313.277344 189.703125 L 315.699219 190.410156 L 320.550781 191.890625 L 330.070313 194.957031 L 338.949219 197.941406 L 348.578125 201.253906 L 357.570313 204.390625 L 366.382813 207.5 L 375.945313 210.894531 L 384.867188 214.078125 L 394.535156 217.546875 L 403.566406 220.789063 L 412.421875 223.980469 L 422.027344 227.445313 L 430.988281 230.683594 L 440.703125 234.199219 L 450.238281 237.652344 L 459.136719 240.878906 L 468.78125 244.375 L 477.785156 247.644531 L 486.617188 250.851563 L 496.195313 254.332031 L 505.132813 257.578125 L 505.289063 257.636719 L 505.441406 257.691406 L 506.378906 258.03125 L 507.625 258.488281 L 510.121094 259.394531 L 510.277344 259.449219 L 510.433594 259.507813 L 510.742188 259.621094 L 511.367188 259.847656 L 512.613281 260.300781 L 512.769531 260.355469 L 512.925781 260.414063 L 513.863281 260.753906 L 514.015625 260.808594 L 514.171875 260.867188 L 514.484375 260.980469 L 514.640625 261.039063 L 514.796875 261.09375 L 514.953125 261.152344 L 515.109375 261.207031 "/>
<path style="fill-rule:nonzero;fill:rgb(19.999695%,70.195007%,99.998474%);fill-opacity:1;stroke-width:1.6;stroke-linecap:square;stroke-linejoin:miter;stroke:rgb(19.999695%,70.195007%,99.998474%);stroke-opacity:1;stroke-miterlimit:3.25;" d="M 94.464844 81.601563 L 94.464844 73.867188 L 11.519531 73.867188 L 11.519531 282.121094 L 94.464844 282.121094 L 94.464844 274.386719 L 94 273.773438 L 92.980469 272.402344 L 91.976563 271.027344 L 90.992188 269.644531 L 90.015625 268.253906 L 89.058594 266.855469 L 88.117188 265.453125 L 87.1875 264.042969 L 86.273438 262.625 L 85.378906 261.203125 L 84.496094 259.773438 L 83.628906 258.335938 L 82.773438 256.894531 L 81.9375 255.449219 L 81.117188 253.992188 L 80.3125 252.535156 L 79.523438 251.070313 L 78.75 249.597656 L 77.992188 248.125 L 77.25 246.644531 L 76.523438 245.15625 L 75.8125 243.664063 L 75.117188 242.167969 L 74.4375 240.667969 L 73.777344 239.164063 L 73.128906 237.652344 L 72.5 236.136719 L 71.886719 234.617188 L 71.289063 233.09375 L 70.707031 231.566406 L 70.140625 230.035156 L 69.59375 228.5 L 69.0625 226.960938 L 68.546875 225.417969 L 68.046875 223.871094 L 67.5625 222.320313 L 67.097656 220.765625 L 66.648438 219.210938 L 66.214844 217.648438 L 65.800781 216.085938 L 65.402344 214.523438 L 65.019531 212.953125 L 64.652344 211.382813 L 64.304688 209.808594 L 63.972656 208.234375 L 63.65625 206.65625 L 63.359375 205.074219 L 63.078125 203.492188 L 62.8125 201.90625 L 62.566406 200.320313 L 62.335938 198.734375 L 62.121094 197.144531 L 61.925781 195.554688 L 61.746094 193.960938 L 61.582031 192.367188 L 61.4375 190.773438 L 61.308594 189.179688 L 61.199219 187.582031 L 61.105469 185.984375 L 61.027344 184.386719 L 60.96875 182.789063 L 60.925781 181.191406 L 60.898438 179.59375 L 60.890625 177.992188 L 60.898438 176.394531 L 60.925781 174.796875 L 60.96875 173.199219 L 61.027344 171.601563 L 61.105469 170.003906 L 61.199219 168.40625 L 61.308594 166.808594 L 61.4375 165.214844 L 61.582031 163.621094 L 61.746094 162.027344 L 61.925781 160.433594 L 62.121094 158.84375 L 62.335938 157.253906 L 62.566406 155.664063 L 62.8125 154.078125 L 63.078125 152.496094 L 63.359375 150.914063 L 63.65625 149.332031 L 63.972656 147.753906 L 64.304688 146.179688 L 64.652344 144.605469 L 65.019531 143.035156 L 65.402344 141.464844 L 65.800781 139.898438 L 66.214844 138.335938 L 66.648438 136.777344 L 67.097656 135.222656 L 67.5625 133.667969 L 68.046875 132.117188 L 68.546875 130.570313 L 69.0625 129.027344 L 69.59375 127.488281 L 70.140625 125.953125 L 70.707031 124.421875 L 71.289063 122.894531 L 71.886719 121.371094 L 72.5 119.851563 L 73.128906 118.335938 L 73.777344 116.824219 L 74.4375 115.320313 L 75.117188 113.820313 L 75.8125 112.324219 L 76.523438 110.832031 L 77.25 109.34375 L 77.992188 107.863281 L 78.75 106.386719 L 79.523438 104.917969 L 80.3125 103.453125 L 81.117188 101.992188 L 81.9375 100.539063 L 82.773438 99.09375 L 83.628906 97.652344 L 84.496094 96.214844 L 85.378906 94.785156 L 86.273438 93.363281 L 87.1875 91.945313 L 88.117188 90.535156 L 89.058594 89.132813 L 90.015625 87.734375 L 90.992188 86.34375 L 91.976563 84.960938 L 92.980469 83.585938 L 94 82.214844 Z M 94.464844 81.601563 "/>
<path style="fill-rule:nonzero;fill:rgb(19.999695%,70.195007%,99.998474%);fill-opacity:1;stroke-width:1.6;stroke-linecap:square;stroke-linejoin:miter;stroke:rgb(19.999695%,70.195007%,99.998474%);stroke-opacity:1;stroke-miterlimit:3.25;" d="M 481.535156 274.386719 L 481.535156 282.121094 L 564.480469 282.121094 L 564.480469 73.867188 L 481.535156 73.867188 L 481.535156 81.601563 L 482 82.214844 L 483.019531 83.585938 L 484.023438 84.960938 L 485.007813 86.34375 L 485.984375 87.734375 L 486.941406 89.132813 L 487.882813 90.535156 L 488.8125 91.945313 L 489.726563 93.363281 L 490.621094 94.785156 L 491.503906 96.214844 L 492.371094 97.652344 L 493.226563 99.09375 L 494.0625 100.539063 L 494.882813 101.992188 L 495.6875 103.453125 L 496.476563 104.917969 L 497.25 106.386719 L 498.007813 107.863281 L 498.75 109.34375 L 499.476563 110.832031 L 500.1875 112.324219 L 500.882813 113.820313 L 501.5625 115.320313 L 502.222656 116.824219 L 502.871094 118.335938 L 503.5 119.851563 L 504.113281 121.371094 L 504.710938 122.894531 L 505.292969 124.421875 L 505.859375 125.953125 L 506.40625 127.488281 L 506.9375 129.027344 L 507.453125 130.570313 L 507.953125 132.117188 L 508.4375 133.667969 L 508.902344 135.222656 L 509.351563 136.777344 L 509.785156 138.335938 L 510.199219 139.898438 L 510.597656 141.464844 L 510.980469 143.035156 L 511.347656 144.605469 L 511.695313 146.179688 L 512.027344 147.753906 L 512.34375 149.332031 L 512.640625 150.914063 L 512.921875 152.496094 L 513.1875 154.078125 L 513.433594 155.664063 L 513.664063 157.253906 L 513.878906 158.84375 L 514.074219 160.433594 L 514.253906 162.027344 L 514.417969 163.621094 L 514.5625 165.214844 L 514.691406 166.808594 L 514.800781 168.40625 L 514.894531 170.003906 L 514.972656 171.601563 L 515.03125 173.199219 L 515.074219 174.796875 L 515.101563 176.394531 L 515.109375 177.992188 L 515.101563 179.59375 L 515.074219 181.191406 L 515.03125 182.789063 L 514.972656 184.386719 L 514.894531 185.984375 L 514.800781 187.582031 L 514.691406 189.179688 L 514.5625 190.773438 L 514.417969 192.367188 L 514.253906 193.960938 L 514.074219 195.554688 L 513.878906 197.144531 L 513.664063 198.734375 L 513.433594 200.320313 L 513.1875 201.90625 L 512.921875 203.492188 L 512.640625 205.074219 L 512.34375 206.65625 L 512.027344 208.234375 L 511.695313 209.808594 L 511.347656 211.382813 L 510.980469 212.953125 L 510.597656 214.523438 L 510.199219 216.085938 L 509.785156 217.648438 L 509.351563 219.210938 L 508.902344 220.765625 L 508.4375 222.320313 L 507.953125 223.871094 L 507.453125 225.417969 L 506.9375 226.960938 L 506.40625 228.5 L 505.859375 230.035156 L 505.292969 231.566406 L 504.710938 233.09375 L 504.113281 234.617188 L 503.5 236.136719 L 502.871094 237.652344 L 502.222656 239.164063 L 501.5625 240.667969 L 500.882813 242.167969 L 500.1875 243.664063 L 499.476563 245.15625 L 498.75 246.644531 L 498.007813 248.125 L 497.25 249.597656 L 496.476563 251.070313 L 495.6875 252.535156 L 494.882813 253.992188 L 494.0625 255.449219 L 493.226563 256.894531 L 492.371094 258.335938 L 491.503906 259.773438 L 490.621094 261.203125 L 489.726563 262.625 L 488.8125 264.042969 L 487.882813 265.453125 L 486.941406 266.855469 L 485.984375 268.253906 L 485.007813 269.644531 L 484.023438 271.027344 L 483.019531 272.402344 L 482 273.773438 Z M 481.535156 274.386719 "/>
</g>
</svg>
