<?xml version="1.0" encoding="UTF-8"?>
<svg xmlns="http://www.w3.org/2000/svg" xmlns:xlink="http://www.w3.org/1999/xlink" width="576pt" height="356pt" viewBox="0 0 576 356" version="1.1">
<g id="surface1">
<path style="fill-rule:nonzero;fill:rgb(72.98584%,23.939514%,23.095703%);fill-opacity:0.2;stroke-width:1;stroke-linecap:square;stroke-linejoin:miter;stroke:rgb(72.98584%,23.939514%,23.095703%);stroke-opacity:0.2;stroke-miterlimit:3.239307;" d="M 11.519531 338.1875 L 11.691406 338.089844 L 11.859375 337.992188 L 12.199219 337.796875 L 12.875 337.402344 L 14.234375 336.621094 L 16.945313 335.050781 L 22.375 331.914063 L 34.140625 325.117188 L 45.128906 318.765625 L 55.898438 312.542969 L 67.582031 305.796875 L 78.488281 299.5 L 90.304688 292.675781 L 101.910156 285.980469 L 112.730469 279.734375 L 124.464844 272.964844 L 135.421875 266.648438 L 146.160156 260.460938 L 157.816406 253.753906 L 168.6875 247.5 L 180.472656 240.730469 L 192.046875 234.09375 L 202.835938 227.921875 L 214.539063 221.25 L 225.464844 215.054688 L 237.300781 208.402344 L 248.921875 201.980469 L 259.765625 196.1875 L 259.949219 196.089844 L 260.132813 195.996094 L 260.5 195.804688 L 261.234375 195.425781 L 262.703125 194.675781 L 265.640625 193.207031 L 265.824219 193.113281 L 266.375 192.84375 L 267.113281 192.488281 L 268.582031 191.789063 L 271.519531 190.441406 L 271.691406 190.367188 L 271.863281 190.289063 L 272.207031 190.140625 L 272.890625 189.84375 L 274.261719 189.269531 L 274.433594 189.203125 L 274.605469 189.132813 L 274.949219 188.996094 L 275.636719 188.726563 L 277.007813 188.214844 L 277.179688 188.152344 L 277.351563 188.09375 L 277.691406 187.972656 L 278.378906 187.738281 L 279.066406 187.519531 L 279.75 187.308594 L 279.921875 187.257813 L 280.09375 187.210938 L 280.4375 187.113281 L 281.121094 186.929688 L 281.808594 186.757813 L 282.496094 186.605469 L 282.832031 186.535156 L 283.167969 186.46875 L 283.503906 186.40625 L 283.839844 186.347656 L 284.175781 186.292969 L 284.847656 186.199219 L 285.183594 186.15625 L 285.351563 186.140625 L 285.519531 186.121094 L 286.023438 186.074219 L 286.191406 186.0625 L 286.363281 186.050781 L 286.699219 186.027344 L 287.035156 186.011719 L 287.203125 186.007813 L 287.371094 186 L 287.539063 185.996094 L 287.707031 185.996094 L 287.875 185.992188 L 288.042969 185.992188 L 288.210938 185.996094 L 288.378906 185.996094 L 288.714844 186.003906 L 288.882813 186.011719 L 289.050781 186.015625 L 289.21875 186.023438 L 289.386719 186.035156 L 289.554688 186.042969 L 289.890625 186.066406 L 290.5625 186.128906 L 290.734375 186.148438 L 290.902344 186.167969 L 291.238281 186.210938 L 291.574219 186.257813 L 291.910156 186.308594 L 292.246094 186.363281 L 292.582031 186.421875 L 293.253906 186.550781 L 293.4375 186.589844 L 293.617188 186.628906 L 293.984375 186.710938 L 294.714844 186.886719 L 294.894531 186.933594 L 295.078125 186.980469 L 295.441406 187.078125 L 296.171875 187.285156 L 296.355469 187.339844 L 296.535156 187.394531 L 296.902344 187.507813 L 297.632813 187.742188 L 299.089844 188.25 L 299.457031 188.382813 L 299.820313 188.519531 L 300.550781 188.796875 L 302.007813 189.382813 L 304.925781 190.640625 L 305.097656 190.71875 L 305.265625 190.792969 L 305.609375 190.949219 L 306.289063 191.261719 L 307.648438 191.898438 L 310.375 193.210938 L 315.820313 195.96875 L 327.625 202.28125 L 339.214844 208.691406 L 350.027344 214.769531 L 361.75 221.414063 L 372.691406 227.652344 L 383.421875 233.789063 L 395.0625 240.464844 L 405.921875 246.703125 L 417.695313 253.472656 L 428.691406 259.800781 L 439.46875 266.011719 L 451.164063 272.75 L 462.074219 279.046875 L 473.898438 285.867188 L 485.507813 292.570313 L 496.339844 298.820313 L 508.082031 305.601563 L 519.046875 311.933594 L 529.792969 318.144531 L 541.453125 324.882813 L 552.332031 331.167969 L 552.714844 331.386719 L 553.09375 331.605469 L 553.851563 332.046875 L 555.371094 332.921875 L 558.40625 334.679688 L 558.597656 334.789063 L 558.785156 334.898438 L 559.167969 335.117188 L 559.925781 335.554688 L 561.445313 336.433594 L 561.632813 336.542969 L 561.824219 336.652344 L 562.203125 336.871094 L 562.960938 337.3125 L 563.152344 337.421875 L 563.339844 337.53125 L 563.722656 337.75 L 563.910156 337.859375 L 564.101563 337.96875 L 564.289063 338.078125 L 564.480469 338.1875 L 564.480469 17.800781 L 564.289063 17.910156 L 564.101563 18.019531 L 563.910156 18.128906 L 563.722656 18.238281 L 563.339844 18.457031 L 563.152344 18.566406 L 562.960938 18.675781 L 562.203125 19.117188 L 561.824219 19.335938 L 561.632813 19.445313 L 561.445313 19.554688 L 559.925781 20.433594 L 559.167969 20.871094 L 558.785156 21.089844 L 558.597656 21.199219 L 558.40625 21.308594 L 555.371094 23.0625 L 553.851563 23.941406 L 553.09375 24.378906 L 552.714844 24.601563 L 552.332031 24.820313 L 541.453125 31.105469 L 529.792969 37.84375 L 519.046875 44.050781 L 508.082031 50.386719 L 496.339844 57.167969 L 485.507813 63.417969 L 473.898438 70.121094 L 462.074219 76.941406 L 451.164063 83.234375 L 439.46875 89.976563 L 428.691406 96.1875 L 417.695313 102.515625 L 405.921875 109.285156 L 395.0625 115.523438 L 383.421875 122.199219 L 372.691406 128.335938 L 361.75 134.574219 L 350.027344 141.21875 L 339.214844 147.296875 L 327.625 153.707031 L 315.820313 160.015625 L 310.375 162.773438 L 307.648438 164.089844 L 306.289063 164.726563 L 305.609375 165.039063 L 305.265625 165.195313 L 305.097656 165.269531 L 304.925781 165.347656 L 302.007813 166.605469 L 300.550781 167.1875 L 299.820313 167.46875 L 299.457031 167.605469 L 299.089844 167.738281 L 297.632813 168.242188 L 296.902344 168.480469 L 296.535156 168.589844 L 296.355469 168.648438 L 296.171875 168.699219 L 295.441406 168.910156 L 295.078125 169.007813 L 294.894531 169.054688 L 294.714844 169.101563 L 293.984375 169.277344 L 293.617188 169.359375 L 293.4375 169.398438 L 293.253906 169.4375 L 292.582031 169.566406 L 292.246094 169.625 L 291.910156 169.679688 L 291.574219 169.730469 L 291.238281 169.777344 L 290.902344 169.820313 L 290.734375 169.839844 L 290.5625 169.859375 L 290.058594 169.90625 L 289.890625 169.917969 L 289.722656 169.933594 L 289.554688 169.945313 L 289.386719 169.953125 L 289.21875 169.964844 L 289.050781 169.972656 L 288.882813 169.976563 L 288.714844 169.984375 L 288.378906 169.992188 L 287.707031 169.992188 L 287.203125 169.980469 L 287.035156 169.972656 L 286.867188 169.96875 L 286.699219 169.957031 L 286.53125 169.949219 L 286.363281 169.9375 L 286.191406 169.925781 L 286.023438 169.914063 L 285.519531 169.867188 L 284.847656 169.789063 L 284.175781 169.695313 L 283.839844 169.640625 L 283.503906 169.582031 L 283.167969 169.519531 L 282.832031 169.453125 L 282.496094 169.382813 L 281.808594 169.226563 L 281.464844 169.144531 L 281.121094 169.058594 L 280.4375 168.875 L 280.09375 168.777344 L 279.921875 168.726563 L 279.75 168.679688 L 279.066406 168.46875 L 278.550781 168.304688 L 278.378906 168.246094 L 277.691406 168.015625 L 277.351563 167.894531 L 277.179688 167.835938 L 277.007813 167.773438 L 275.636719 167.261719 L 274.949219 166.992188 L 274.605469 166.855469 L 274.261719 166.714844 L 272.890625 166.144531 L 272.207031 165.847656 L 271.863281 165.699219 L 271.691406 165.621094 L 271.519531 165.546875 L 268.582031 164.199219 L 267.113281 163.5 L 266.375 163.140625 L 265.640625 162.78125 L 262.703125 161.3125 L 261.234375 160.5625 L 260.5 160.183594 L 260.132813 159.992188 L 259.949219 159.898438 L 259.765625 159.800781 L 248.921875 154.007813 L 237.300781 147.585938 L 225.464844 140.933594 L 214.539063 134.738281 L 202.835938 128.066406 L 192.046875 121.894531 L 180.472656 115.257813 L 168.6875 108.488281 L 157.816406 102.234375 L 146.160156 95.527344 L 135.421875 89.335938 L 124.464844 83.023438 L 112.730469 76.253906 L 101.910156 70.007813 L 90.304688 63.3125 L 78.488281 56.488281 L 67.582031 50.191406 L 55.898438 43.441406 L 45.128906 37.21875 L 34.140625 30.871094 L 22.375 24.070313 L 16.945313 20.9375 L 14.234375 19.367188 L 12.875 18.582031 L 12.199219 18.191406 L 11.859375 17.996094 L 11.691406 17.898438 L 11.519531 17.800781 Z M 11.519531 338.1875 "/>
<path style="fill:none;stroke-width:1.6;stroke-linecap:square;stroke-linejoin:miter;stroke:rgb(72.98584%,23.939514%,23.095703%);stroke-opacity:1;stroke-miterlimit:3.25;" d="M 11.519531 17.800781 L 11.691406 17.898438 L 11.859375 17.996094 L 12.199219 18.191406 L 12.875 18.582031 L 14.234375 19.367188 L 16.945313 20.9375 L 22.375 24.070313 L 34.140625 30.871094 L 45.128906 37.21875 L 55.898438 43.441406 L 67.582031 50.191406 L 78.488281 56.488281 L 90.304688 63.3125 L 101.910156 70.007813 L 112.730469 76.253906 L 124.464844 83.023438 L 135.421875 89.335938 L 146.160156 95.527344 L 157.816406 102.234375 L 168.6875 108.488281 L 180.472656 115.257813 L 192.046875 121.894531 L 202.835938 128.066406 L 214.539063 134.738281 L 225.464844 140.933594 L 237.300781 147.585938 L 248.921875 154.007813 L 259.765625 159.800781 L 259.949219 159.898438 L 260.132813 159.992188 L 260.5 160.183594 L 261.234375 160.5625 L 262.703125 161.3125 L 265.640625 162.78125 L 266.375 163.140625 L 267.113281 163.5 L 268.582031 164.199219 L 271.519531 165.546875 L 271.691406 165.621094 L 271.863281 165.699219 L 272.207031 165.847656 L 272.890625 166.144531 L 274.261719 166.714844 L 274.605469 166.855469 L 274.949219 166.992188 L 275.636719 167.261719 L 277.007813 167.773438 L 277.179688 167.835938 L 277.351563 167.894531 L 277.691406 168.015625 L 278.378906 168.246094 L 278.550781 168.304688 L 279.066406 168.46875 L 279.75 168.679688 L 279.921875 168.726563 L 280.09375 168.777344 L 280.4375 168.875 L 281.121094 169.058594 L 281.464844 169.144531 L 281.808594 169.226563 L 282.496094 169.382813 L 282.832031 169.453125 L 283.167969 169.519531 L 283.503906 169.582031 L 283.839844 169.640625 L 284.175781 169.695313 L 284.847656 169.789063 L 285.519531 169.867188 L 286.023438 169.914063 L 286.191406 169.925781 L 286.363281 169.9375 L 286.53125 169.949219 L 286.699219 169.957031 L 286.867188 169.96875 L 287.035156 169.972656 L 287.203125 169.980469 L 287.707031 169.992188 L 288.378906 169.992188 L 288.714844 169.984375 L 288.882813 169.976563 L 289.050781 169.972656 L 289.21875 169.964844 L 289.386719 169.953125 L 289.554688 169.945313 L 289.722656 169.933594 L 289.890625 169.917969 L 290.058594 169.90625 L 290.5625 169.859375 L 290.734375 169.839844 L 290.902344 169.820313 L 291.238281 169.777344 L 291.574219 169.730469 L 291.910156 169.679688 L 292.246094 169.625 L 292.582031 169.566406 L 293.253906 169.4375 L 293.4375 169.398438 L 293.617188 169.359375 L 293.984375 169.277344 L 294.714844 169.101563 L 294.894531 169.054688 L 295.078125 169.007813 L 295.441406 168.910156 L 296.171875 168.699219 L 296.355469 168.648438 L 296.535156 168.589844 L 296.902344 168.480469 L 297.632813 168.242188 L 299.089844 167.738281 L 299.457031 167.605469 L 299.820313 167.46875 L 300.550781 167.1875 L 302.007813 166.605469 L 304.925781 165.347656 L 305.097656 165.269531 L 305.265625 165.195313 L 305.609375 165.039063 L 306.289063 164.726563 L 307.648438 164.089844 L 310.375 162.773438 L 315.820313 160.015625 L 327.625 153.707031 L 339.214844 147.296875 L 350.027344 141.21875 L 361.75 134.574219 L 372.691406 128.335938 L 383.421875 122.199219 L 395.0625 115.523438 L 405.921875 109.285156 L 417.695313 102.515625 L 428.691406 96.1875 L 439.46875 89.976563 L 451.164063 83.234375 L 462.074219 76.941406 L 473.898438 70.121094 L 485.507813 63.417969 L 496.339844 57.167969 L 508.082031 50.386719 L 519.046875 44.050781 L 529.792969 37.84375 L 541.453125 31.105469 L 552.332031 24.820313 L 552.714844 24.601563 L 553.09375 24.378906 L 553.851563 23.941406 L 555.371094 23.0625 L 558.40625 21.308594 L 558.597656 21.199219 L 558.785156 21.089844 L 559.167969 20.871094 L 559.925781 20.433594 L 561.445313 19.554688 L 561.632813 19.445313 L 561.824219 19.335938 L 562.203125 19.117188 L 562.960938 18.675781 L 563.152344 18.566406 L 563.339844 18.457031 L 563.722656 18.238281 L 563.910156 18.128906 L 564.101563 18.019531 L 564.289063 17.910156 L 564.480469 17.800781 "/>
<path style="fill:none;stroke-width:1.6;stroke-linecap:square;stroke-linejoin:miter;stroke:rgb(72.98584%,23.939514%,23.095703%);stroke-opacity:1;stroke-miterlimit:3.25;" d="M 11.519531 338.1875 L 11.691406 338.089844 L 11.859375 337.992188 L 12.199219 337.796875 L 12.875 337.402344 L 14.234375 336.621094 L 16.945313 335.050781 L 22.375 331.914063 L 34.140625 325.117188 L 45.128906 318.765625 L 55.898438 312.542969 L 67.582031 305.796875 L 78.488281 299.5 L 90.304688 292.675781 L 101.910156 285.980469 L 112.730469 279.734375 L 124.464844 272.964844 L 135.421875 266.648438 L 146.160156 260.460938 L 157.816406 253.753906 L 168.6875 247.5 L 180.472656 240.730469 L 192.046875 234.09375 L 202.835938 227.921875 L 214.539063 221.25 L 225.464844 215.054688 L 237.300781 208.402344 L 248.921875 201.980469 L 259.765625 196.1875 L 259.949219 196.089844 L 260.132813 195.996094 L 260.5 195.804688 L 261.234375 195.425781 L 262.703125 194.675781 L 265.640625 193.207031 L 265.824219 193.113281 L 266.375 192.84375 L 267.113281 192.488281 L 268.582031 191.789063 L 271.519531 190.441406 L 271.691406 190.367188 L 271.863281 190.289063 L 272.207031 190.140625 L 272.890625 189.84375 L 274.261719 189.269531 L 274.433594 189.203125 L 274.605469 189.132813 L 274.949219 188.996094 L 275.636719 188.726563 L 277.007813 188.214844 L 277.179688 188.152344 L 277.351563 188.09375 L 277.691406 187.972656 L 278.378906 187.738281 L 279.066406 187.519531 L 279.75 187.308594 L 279.921875 187.257813 L 280.09375 187.210938 L 280.4375 187.113281 L 281.121094 186.929688 L 281.808594 186.757813 L 282.496094 186.605469 L 282.832031 186.535156 L 283.167969 186.46875 L 283.503906 186.40625 L 283.839844 186.347656 L 284.175781 186.292969 L 284.847656 186.199219 L 285.183594 186.15625 L 285.351563 186.140625 L 285.519531 186.121094 L 286.023438 186.074219 L 286.191406 186.0625 L 286.363281 186.050781 L 286.699219 186.027344 L 287.035156 186.011719 L 287.203125 186.007813 L 287.371094 186 L 287.539063 185.996094 L 287.707031 185.996094 L 287.875 185.992188 L 288.042969 185.992188 L 288.210938 185.996094 L 288.378906 185.996094 L 288.714844 186.003906 L 288.882813 186.011719 L 289.050781 186.015625 L 289.21875 186.023438 L 289.386719 186.035156 L 289.554688 186.042969 L 289.890625 186.066406 L 290.5625 186.128906 L 290.734375 186.148438 L 290.902344 186.167969 L 291.238281 186.210938 L 291.574219 186.257813 L 291.910156 186.308594 L 292.246094 186.363281 L 292.582031 186.421875 L 293.253906 186.550781 L 293.4375 186.589844 L 293.617188 186.628906 L 293.984375 186.710938 L 294.714844 186.886719 L 294.894531 186.933594 L 295.078125 186.980469 L 295.441406 187.078125 L 296.171875 187.285156 L 296.355469 187.339844 L 296.535156 187.394531 L 296.902344 187.507813 L 297.632813 187.742188 L 299.089844 188.25 L 299.457031 188.382813 L 299.820313 188.519531 L 300.550781 188.796875 L 302.007813 189.382813 L 304.925781 190.640625 L 305.097656 190.71875 L 305.265625 190.792969 L 305.609375 190.949219 L 306.289063 191.261719 L 307.648438 191.898438 L 310.375 193.210938 L 315.820313 195.96875 L 327.625 202.28125 L 339.214844 208.691406 L 350.027344 214.769531 L 361.75 221.414063 L 372.691406 227.652344 L 383.421875 233.789063 L 395.0625 240.464844 L 405.921875 246.703125 L 417.695313 253.472656 L 428.691406 259.800781 L 439.46875 266.011719 L 451.164063 272.75 L 462.074219 279.046875 L 473.898438 285.867188 L 485.507813 292.570313 L 496.339844 298.820313 L 508.082031 305.601563 L 519.046875 311.933594 L 529.792969 318.144531 L 541.453125 324.882813 L 552.332031 331.167969 L 552.714844 331.386719 L 553.09375 331.605469 L 553.851563 332.046875 L 555.371094 332.921875 L 558.40625 334.679688 L 558.597656 334.789063 L 558.785156 334.898438 L 559.167969 335.117188 L 559.925781 335.554688 L 561.445313 336.433594 L 561.632813 336.542969 L 561.824219 336.652344 L 562.203125 336.871094 L 562.960938 337.3125 L 563.152344 337.421875 L 563.339844 337.53125 L 563.722656 337.75 L 563.910156 337.859375 L 564.101563 337.96875 L 564.289063 338.078125 L 564.480469 338.1875 "/>
</g>
</svg>
