<?xml version="1.0" encoding="UTF-8"?>
<svg xmlns="http://www.w3.org/2000/svg" xmlns:xlink="http://www.w3.org/1999/xlink" width="360pt" height="196pt" viewBox="0 0 360 196" version="1.1">
<defs>
<clipPath id="clip1">
  <path d="M 0 0 L 359.761719 0 L 359.761719 196 L 0 196 Z M 0 0 "/>
</clipPath>
</defs>
<g id="surface1">
<g clip-path="url(#clip1)" clip-rule="nonzero">
<path style="fill:none;stroke-width:1.6;stroke-linecap:square;stroke-linejoin:miter;stroke:rgb(78.430176%,0%,0%);stroke-opacity:1;stroke-miterlimit:3.25;" d="M 352.800781 97.980469 L 352.800781 97.648438 L 352.796875 97.3125 L 352.785156 96.316406 L 352.777344 95.980469 L 352.769531 95.648438 L 352.734375 94.652344 L 352.722656 94.316406 L 352.675781 93.320313 L 352.636719 92.65625 L 352.613281 92.324219 L 352.59375 91.992188 L 352.542969 91.328125 L 352.488281 90.664063 L 352.429688 90 L 352.367188 89.335938 L 352.296875 88.675781 L 352.144531 87.351563 L 352.101563 87.019531 L 352.058594 86.691406 L 351.96875 86.03125 L 351.777344 84.710938 L 351.722656 84.382813 L 351.671875 84.054688 L 351.5625 83.398438 L 351.328125 82.085938 L 351.265625 81.757813 L 351.203125 81.433594 L 351.074219 80.78125 L 350.796875 79.476563 L 350.191406 76.882813 L 350.101563 76.53125 L 350.011719 76.183594 L 349.828125 75.484375 L 349.441406 74.09375 L 348.601563 71.332031 L 348.488281 70.988281 L 348.378906 70.644531 L 348.148438 69.960938 L 347.671875 68.597656 L 346.652344 65.898438 L 346.519531 65.5625 L 346.382813 65.226563 L 346.109375 64.558594 L 345.546875 63.230469 L 344.355469 60.601563 L 341.722656 55.472656 L 341.558594 55.175781 L 341.394531 54.882813 L 341.0625 54.296875 L 340.382813 53.136719 L 338.976563 50.84375 L 338.796875 50.558594 L 338.613281 50.277344 L 338.25 49.710938 L 337.503906 48.59375 L 335.96875 46.386719 L 335.769531 46.117188 L 335.574219 45.84375 L 335.175781 45.304688 L 334.367188 44.230469 L 332.707031 42.121094 L 329.21875 38.054688 L 328.773438 37.570313 L 328.328125 37.089844 L 327.425781 36.136719 L 325.585938 34.273438 L 321.765625 30.703125 L 321.523438 30.488281 L 321.277344 30.273438 L 320.785156 29.847656 L 319.792969 29.003906 L 317.777344 27.355469 L 313.632813 24.234375 L 313.34375 24.03125 L 313.058594 23.828125 L 312.484375 23.425781 L 311.324219 22.636719 L 308.984375 21.105469 L 308.6875 20.921875 L 308.394531 20.734375 L 307.800781 20.367188 L 306.609375 19.644531 L 304.203125 18.253906 L 303.898438 18.085938 L 303.597656 17.917969 L 302.988281 17.585938 L 301.769531 16.933594 L 299.3125 15.679688 L 294.332031 13.378906 L 294.039063 13.253906 L 293.75 13.128906 L 293.164063 12.878906 L 291.988281 12.398438 L 289.632813 11.476563 L 289.335938 11.367188 L 289.039063 11.253906 L 288.449219 11.039063 L 287.265625 10.613281 L 284.894531 9.808594 L 284.597656 9.710938 L 283.707031 9.429688 L 282.515625 9.0625 L 280.136719 8.367188 L 279.542969 8.203125 L 278.949219 8.042969 L 277.757813 7.730469 L 275.382813 7.148438 L 275.0625 7.074219 L 274.738281 7 L 274.097656 6.855469 L 272.8125 6.578125 L 272.171875 6.445313 L 271.53125 6.316406 L 270.25 6.070313 L 269.929688 6.007813 L 269.609375 5.949219 L 268.972656 5.835938 L 267.695313 5.617188 L 265.15625 5.226563 L 264.839844 5.179688 L 263.890625 5.050781 L 262.628906 4.886719 L 262.3125 4.847656 L 262 4.8125 L 261.371094 4.738281 L 260.117188 4.605469 L 259.492188 4.542969 L 258.871094 4.480469 L 258.558594 4.453125 L 258.25 4.425781 L 257.628906 4.371094 L 257.316406 4.347656 L 256.390625 4.277344 L 255.15625 4.191406 L 254.855469 4.171875 L 254.554688 4.15625 L 253.953125 4.121094 L 253.351563 4.089844 L 252.753906 4.058594 L 252.453125 4.046875 L 251.859375 4.023438 L 251.558594 4.011719 L 251.261719 4 L 250.964844 3.992188 L 250.375 3.972656 L 249.78125 3.957031 L 249.488281 3.949219 L 249.191406 3.945313 L 248.898438 3.941406 L 248.605469 3.933594 L 248.019531 3.925781 L 247.726563 3.925781 L 247.433594 3.921875 L 247.140625 3.921875 L 246.851563 3.917969 L 246.269531 3.917969 L 245.980469 3.921875 L 245.398438 3.921875 L 245.113281 3.925781 L 244.246094 3.9375 L 243.960938 3.941406 L 243.675781 3.949219 L 243.386719 3.953125 L 242.816406 3.96875 L 242.53125 3.972656 L 242.246094 3.984375 L 241.964844 3.992188 L 241.679688 4 L 241.117188 4.019531 L 240.832031 4.03125 L 239.988281 4.066406 L 239.710938 4.078125 L 239.429688 4.09375 L 238.871094 4.121094 L 238.59375 4.136719 L 238.316406 4.148438 L 237.761719 4.183594 L 236.660156 4.25 L 236.402344 4.269531 L 236.148438 4.285156 L 235.640625 4.320313 L 234.371094 4.417969 L 234.121094 4.4375 L 233.617188 4.480469 L 232.617188 4.570313 L 232.367188 4.589844 L 232.121094 4.613281 L 231.625 4.660156 L 230.636719 4.757813 L 228.6875 4.96875 L 228.203125 5.023438 L 227.722656 5.082031 L 226.765625 5.195313 L 224.875 5.4375 L 221.175781 5.957031 L 220.929688 5.996094 L 220.6875 6.03125 L 220.195313 6.105469 L 219.222656 6.257813 L 217.300781 6.566406 L 213.558594 7.195313 L 206.460938 8.464844 L 206.261719 8.5 L 206.058594 8.539063 L 205.664063 8.609375 L 204.871094 8.75 L 203.308594 9.03125 L 200.253906 9.5625 L 200.0625 9.59375 L 199.5 9.6875 L 198.757813 9.8125 L 197.28125 10.046875 L 194.382813 10.480469 L 194.207031 10.503906 L 194.03125 10.53125 L 193.683594 10.578125 L 192.988281 10.667969 L 191.605469 10.84375 L 191.261719 10.882813 L 190.921875 10.921875 L 190.238281 11 L 188.878906 11.136719 L 188.710938 11.15625 L 188.542969 11.171875 L 188.207031 11.199219 L 187.53125 11.257813 L 187.367188 11.273438 L 187.199219 11.285156 L 186.863281 11.3125 L 186.195313 11.359375 L 185.859375 11.382813 L 185.527344 11.40625 L 185.363281 11.414063 L 185.195313 11.425781 L 184.863281 11.445313 L 184.695313 11.453125 L 184.53125 11.460938 L 184.199219 11.476563 L 184.035156 11.484375 L 183.867188 11.492188 L 183.539063 11.507813 L 183.359375 11.515625 L 183.179688 11.519531 L 182.820313 11.535156 L 182.460938 11.542969 L 182.101563 11.554688 L 181.925781 11.558594 L 181.386719 11.570313 L 181.207031 11.570313 L 181.03125 11.574219 L 180.851563 11.574219 L 180.671875 11.578125 L 179.242188 11.578125 L 179.0625 11.574219 L 178.882813 11.574219 L 178.707031 11.570313 L 177.988281 11.554688 L 177.8125 11.550781 L 177.453125 11.542969 L 177.273438 11.535156 L 177.09375 11.53125 L 176.914063 11.523438 L 176.734375 11.519531 L 176.378906 11.503906 L 176.019531 11.488281 L 175.65625 11.472656 L 174.9375 11.433594 L 174.578125 11.410156 L 174.214844 11.390625 L 173.492188 11.339844 L 173.3125 11.324219 L 173.128906 11.3125 L 172.765625 11.285156 L 172.039063 11.222656 L 171.695313 11.191406 L 171.355469 11.160156 L 170.671875 11.09375 L 169.292969 10.949219 L 169.121094 10.929688 L 168.945313 10.90625 L 168.597656 10.867188 L 167.902344 10.78125 L 166.5 10.601563 L 166.324219 10.578125 L 166.144531 10.554688 L 165.792969 10.503906 L 165.082031 10.40625 L 163.644531 10.191406 L 160.71875 9.726563 L 160.519531 9.691406 L 160.316406 9.660156 L 159.914063 9.589844 L 159.101563 9.453125 L 157.457031 9.167969 L 154.089844 8.566406 L 153.230469 8.410156 L 152.363281 8.253906 L 150.605469 7.9375 L 147 7.292969 L 146.09375 7.136719 L 145.179688 6.980469 L 143.332031 6.667969 L 139.53125 6.066406 L 139.289063 6.027344 L 139.046875 5.992188 L 138.5625 5.917969 L 137.582031 5.777344 L 135.601563 5.5 L 135.351563 5.46875 L 135.097656 5.433594 L 134.597656 5.367188 L 133.582031 5.238281 L 131.535156 4.996094 L 130.566406 4.886719 L 129.59375 4.785156 L 129.347656 4.757813 L 129.101563 4.734375 L 128.613281 4.683594 L 127.621094 4.589844 L 127.375 4.566406 L 127.125 4.546875 L 126.628906 4.5 L 125.625 4.417969 L 125.375 4.398438 L 125.121094 4.378906 L 124.617188 4.339844 L 123.597656 4.269531 L 123.34375 4.25 L 123.089844 4.234375 L 122.574219 4.203125 L 122.320313 4.1875 L 122.0625 4.171875 L 121.546875 4.144531 L 121.285156 4.128906 L 121.027344 4.117188 L 120.507813 4.089844 L 119.464844 4.042969 L 119.203125 4.03125 L 118.941406 4.023438 L 118.414063 4.003906 L 117.890625 3.988281 L 116.828125 3.957031 L 116.5625 3.953125 L 116.296875 3.945313 L 115.765625 3.9375 L 115.496094 3.933594 L 115.230469 3.929688 L 114.9375 3.925781 L 114.648438 3.925781 L 114.355469 3.921875 L 114.0625 3.921875 L 113.769531 3.917969 L 113.183594 3.917969 L 112.890625 3.921875 L 112.597656 3.921875 L 112.300781 3.925781 L 112.007813 3.925781 L 111.117188 3.9375 L 110.820313 3.945313 L 110.523438 3.949219 L 109.929688 3.964844 L 109.628906 3.972656 L 109.332031 3.980469 L 109.03125 3.992188 L 108.734375 4 L 107.53125 4.046875 L 106.929688 4.074219 L 106.625 4.089844 L 106.324219 4.105469 L 105.71875 4.140625 L 105.414063 4.15625 L 104.195313 4.234375 L 103.890625 4.257813 L 103.277344 4.300781 L 102.972656 4.324219 L 102.664063 4.347656 L 102.050781 4.398438 L 100.820313 4.511719 L 100.507813 4.542969 L 100.199219 4.570313 L 99.582031 4.636719 L 98.339844 4.773438 L 98.027344 4.808594 L 97.71875 4.84375 L 97.09375 4.921875 L 95.84375 5.085938 L 95.257813 5.164063 L 94.671875 5.25 L 93.5 5.425781 L 91.144531 5.816406 L 90.851563 5.867188 L 90.554688 5.921875 L 89.964844 6.027344 L 88.78125 6.253906 L 86.410156 6.746094 L 86.113281 6.808594 L 85.816406 6.875 L 85.222656 7.011719 L 84.03125 7.289063 L 81.648438 7.886719 L 76.882813 9.242188 L 76.5625 9.34375 L 76.238281 9.445313 L 75.59375 9.652344 L 74.304688 10.074219 L 71.734375 10.972656 L 71.410156 11.089844 L 71.089844 11.207031 L 70.449219 11.445313 L 69.167969 11.9375 L 66.617188 12.972656 L 66.300781 13.105469 L 65.980469 13.242188 L 65.347656 13.515625 L 64.082031 14.078125 L 61.5625 15.253906 L 56.589844 17.816406 L 56.289063 17.980469 L 55.988281 18.148438 L 55.386719 18.488281 L 54.1875 19.175781 L 51.8125 20.605469 L 47.167969 23.667969 L 46.882813 23.871094 L 46.597656 24.070313 L 46.027344 24.476563 L 44.898438 25.300781 L 42.671875 27 L 38.355469 30.597656 L 37.863281 31.035156 L 37.375 31.472656 L 36.40625 32.363281 L 34.503906 34.183594 L 30.84375 37.984375 L 30.625 38.230469 L 30.402344 38.476563 L 29.964844 38.96875 L 29.09375 39.964844 L 27.394531 41.992188 L 24.171875 46.195313 L 23.960938 46.488281 L 23.339844 47.367188 L 22.523438 48.550781 L 20.949219 50.960938 L 20.566406 51.570313 L 20.191406 52.183594 L 19.449219 53.417969 L 18.027344 55.921875 L 17.855469 56.238281 L 17.6875 56.554688 L 17.347656 57.191406 L 16.6875 58.472656 L 15.429688 61.066406 L 15.277344 61.390625 L 15.125 61.71875 L 14.828125 62.375 L 14.253906 63.695313 L 13.164063 66.367188 L 13.042969 66.679688 L 12.921875 66.996094 L 12.683594 67.625 L 12.222656 68.890625 L 11.363281 71.441406 L 11.160156 72.082031 L 10.960938 72.726563 L 10.582031 74.019531 L 9.875 76.617188 L 9.792969 76.945313 L 9.714844 77.273438 L 9.554688 77.925781 L 9.253906 79.238281 L 9.183594 79.566406 L 9.109375 79.898438 L 8.972656 80.554688 L 8.710938 81.878906 L 8.648438 82.207031 L 8.472656 83.203125 L 8.199219 84.863281 L 8.148438 85.195313 L 8.054688 85.863281 L 7.875 87.199219 L 7.835938 87.527344 L 7.796875 87.851563 L 7.71875 88.507813 L 7.683594 88.835938 L 7.652344 89.164063 L 7.585938 89.824219 L 7.554688 90.152344 L 7.472656 91.136719 L 7.445313 91.46875 L 7.421875 91.796875 L 7.375 92.457031 L 7.335938 93.113281 L 7.320313 93.445313 L 7.300781 93.773438 L 7.285156 94.101563 L 7.273438 94.433594 L 7.261719 94.761719 L 7.25 95.09375 L 7.238281 95.421875 L 7.230469 95.753906 L 7.222656 96.082031 L 7.214844 96.414063 L 7.207031 96.742188 L 7.203125 97.074219 L 7.203125 97.402344 L 7.199219 97.734375 L 7.199219 98.394531 L 7.203125 98.722656 L 7.207031 99.054688 L 7.210938 99.382813 L 7.21875 99.714844 L 7.226563 100.042969 L 7.234375 100.375 L 7.242188 100.703125 L 7.253906 101.035156 L 7.265625 101.363281 L 7.28125 101.691406 L 7.292969 102.023438 L 7.3125 102.351563 L 7.347656 103.011719 L 7.367188 103.339844 L 7.386719 103.671875 L 7.433594 104.328125 L 7.457031 104.660156 L 7.539063 105.644531 L 7.601563 106.300781 L 7.667969 106.960938 L 7.816406 108.273438 L 7.902344 108.984375 L 7.996094 109.691406 L 8.203125 111.109375 L 8.257813 111.464844 L 8.3125 111.816406 L 8.433594 112.523438 L 8.683594 113.933594 L 8.75 114.285156 L 8.960938 115.339844 L 9.257813 116.742188 L 9.925781 119.527344 L 10.015625 119.875 L 10.105469 120.21875 L 10.292969 120.910156 L 10.679688 122.289063 L 11.527344 125.023438 L 11.640625 125.367188 L 11.753906 125.703125 L 11.984375 126.382813 L 12.460938 127.730469 L 13.484375 130.40625 L 13.609375 130.71875 L 13.734375 131.027344 L 13.992188 131.644531 L 14.515625 132.871094 L 15.621094 135.304688 L 15.761719 135.605469 L 15.90625 135.90625 L 16.199219 136.507813 L 16.796875 137.703125 L 18.042969 140.0625 L 18.363281 140.648438 L 18.691406 141.230469 L 19.359375 142.386719 L 20.738281 144.667969 L 23.699219 149.101563 L 23.90625 149.394531 L 24.117188 149.6875 L 24.542969 150.273438 L 25.40625 151.429688 L 27.179688 153.703125 L 27.40625 153.980469 L 27.636719 154.261719 L 28.09375 154.816406 L 29.023438 155.914063 L 30.933594 158.070313 L 31.175781 158.335938 L 31.417969 158.597656 L 31.910156 159.125 L 32.902344 160.164063 L 34.929688 162.191406 L 39.15625 166.058594 L 39.421875 166.289063 L 39.6875 166.515625 L 40.222656 166.96875 L 41.300781 167.859375 L 43.496094 169.597656 L 44.050781 170.019531 L 44.609375 170.441406 L 45.730469 171.269531 L 48.007813 172.871094 L 48.296875 173.066406 L 48.582031 173.261719 L 49.160156 173.648438 L 50.320313 174.40625 L 52.667969 175.878906 L 57.449219 178.613281 L 57.734375 178.761719 L 58.015625 178.914063 L 58.582031 179.210938 L 59.71875 179.792969 L 62.003906 180.917969 L 62.289063 181.054688 L 62.578125 181.191406 L 63.152344 181.457031 L 64.304688 181.984375 L 66.621094 182.988281 L 66.914063 183.109375 L 67.203125 183.230469 L 67.785156 183.46875 L 68.953125 183.9375 L 71.292969 184.828125 L 75.996094 186.4375 L 76.3125 186.539063 L 76.632813 186.636719 L 77.273438 186.835938 L 78.550781 187.214844 L 81.109375 187.929688 L 81.429688 188.015625 L 81.746094 188.097656 L 82.386719 188.265625 L 83.664063 188.582031 L 86.21875 189.171875 L 86.535156 189.242188 L 86.855469 189.308594 L 87.492188 189.445313 L 88.761719 189.699219 L 89.082031 189.761719 L 89.398438 189.824219 L 90.03125 189.941406 L 91.300781 190.171875 L 91.617188 190.226563 L 91.933594 190.277344 L 92.5625 190.382813 L 93.824219 190.582031 L 96.339844 190.941406 L 96.628906 190.976563 L 96.921875 191.015625 L 97.503906 191.089844 L 98.667969 191.222656 L 98.960938 191.257813 L 99.828125 191.351563 L 100.984375 191.464844 L 101.273438 191.492188 L 101.5625 191.515625 L 102.136719 191.566406 L 102.425781 191.589844 L 102.710938 191.613281 L 103.285156 191.660156 L 103.855469 191.699219 L 104.425781 191.742188 L 105.566406 191.8125 L 105.847656 191.828125 L 106.132813 191.84375 L 106.699219 191.871094 L 106.980469 191.886719 L 107.261719 191.898438 L 107.828125 191.925781 L 108.109375 191.9375 L 108.390625 191.945313 L 108.667969 191.957031 L 108.949219 191.964844 L 109.230469 191.976563 L 109.507813 191.984375 L 110.066406 191.996094 L 110.34375 192.003906 L 110.625 192.011719 L 111.457031 192.023438 L 111.730469 192.027344 L 112.285156 192.035156 L 112.558594 192.035156 L 112.835938 192.039063 L 114.207031 192.039063 L 114.480469 192.035156 L 114.746094 192.035156 L 115.277344 192.027344 L 115.546875 192.023438 L 116.078125 192.015625 L 116.339844 192.011719 L 116.605469 192.007813 L 116.871094 192 L 117.132813 191.992188 L 117.398438 191.988281 L 118.183594 191.964844 L 118.707031 191.945313 L 118.96875 191.9375 L 119.230469 191.925781 L 119.75 191.902344 L 120.007813 191.894531 L 120.269531 191.882813 L 120.785156 191.855469 L 121.042969 191.84375 L 121.300781 191.828125 L 121.816406 191.800781 L 122.835938 191.742188 L 123.089844 191.722656 L 123.34375 191.707031 L 123.851563 191.671875 L 124.859375 191.601563 L 125.113281 191.582031 L 125.863281 191.523438 L 126.859375 191.4375 L 127.105469 191.414063 L 127.351563 191.394531 L 127.847656 191.347656 L 128.828125 191.253906 L 130.769531 191.050781 L 131.03125 191.023438 L 131.289063 190.992188 L 131.808594 190.933594 L 132.84375 190.8125 L 134.882813 190.554688 L 138.863281 189.996094 L 139.105469 189.957031 L 139.351563 189.921875 L 139.835938 189.847656 L 140.800781 189.699219 L 142.707031 189.394531 L 146.421875 188.765625 L 146.632813 188.730469 L 146.84375 188.691406 L 148.109375 188.46875 L 149.769531 188.175781 L 153.007813 187.589844 L 153.40625 187.519531 L 153.804688 187.445313 L 154.589844 187.304688 L 156.148438 187.023438 L 159.195313 186.492188 L 160.007813 186.351563 L 160.8125 186.21875 L 162.402344 185.960938 L 162.601563 185.929688 L 162.796875 185.898438 L 163.191406 185.835938 L 163.972656 185.71875 L 165.519531 185.492188 L 165.714844 185.464844 L 165.90625 185.4375 L 166.289063 185.386719 L 167.050781 185.285156 L 168.566406 185.097656 L 168.941406 185.050781 L 169.316406 185.007813 L 170.0625 184.925781 L 171.546875 184.78125 L 171.890625 184.75 L 172.238281 184.71875 L 172.921875 184.664063 L 173.09375 184.648438 L 173.609375 184.613281 L 174.292969 184.566406 L 174.460938 184.554688 L 174.632813 184.542969 L 174.972656 184.523438 L 175.140625 184.515625 L 175.3125 184.503906 L 175.652344 184.488281 L 175.820313 184.480469 L 175.992188 184.472656 L 176.328125 184.457031 L 176.5 184.449219 L 176.667969 184.445313 L 177.007813 184.429688 L 177.34375 184.421875 L 177.515625 184.414063 L 178.019531 184.402344 L 178.191406 184.398438 L 178.527344 184.390625 L 178.695313 184.390625 L 178.863281 184.386719 L 179.035156 184.386719 L 179.203125 184.382813 L 179.371094 184.382813 L 179.539063 184.378906 L 180.382813 184.378906 L 180.550781 184.382813 L 180.890625 184.382813 L 181.058594 184.386719 L 181.226563 184.386719 L 181.5625 184.394531 L 181.734375 184.398438 L 182.070313 184.40625 L 182.410156 184.414063 L 182.738281 184.421875 L 183.070313 184.433594 L 183.238281 184.441406 L 183.402344 184.445313 L 183.734375 184.460938 L 183.902344 184.46875 L 184.066406 184.476563 L 184.402344 184.492188 L 185.066406 184.527344 L 185.234375 184.535156 L 185.402344 184.546875 L 185.734375 184.566406 L 186.402344 184.613281 L 186.738281 184.636719 L 187.074219 184.664063 L 187.75 184.71875 L 187.917969 184.734375 L 188.085938 184.746094 L 188.425781 184.777344 L 189.101563 184.84375 L 190.464844 184.984375 L 191.152344 185.0625 L 191.839844 185.144531 L 193.230469 185.320313 L 193.421875 185.347656 L 193.609375 185.371094 L 193.988281 185.425781 L 194.753906 185.53125 L 196.296875 185.757813 L 199.441406 186.261719 L 206.027344 187.414063 L 206.226563 187.449219 L 206.425781 187.488281 L 206.824219 187.558594 L 207.625 187.703125 L 209.25 188 L 212.582031 188.59375 L 212.792969 188.628906 L 213.007813 188.667969 L 213.433594 188.742188 L 214.289063 188.890625 L 216.023438 189.183594 L 219.582031 189.757813 L 220.074219 189.835938 L 220.566406 189.910156 L 221.558594 190.058594 L 223.570313 190.34375 L 224.078125 190.414063 L 224.589844 190.484375 L 225.617188 190.617188 L 227.699219 190.875 L 227.960938 190.90625 L 228.226563 190.9375 L 228.753906 190.996094 L 229.816406 191.113281 L 230.082031 191.140625 L 230.351563 191.171875 L 230.886719 191.226563 L 231.964844 191.332031 L 232.238281 191.355469 L 232.507813 191.378906 L 233.054688 191.429688 L 234.152344 191.523438 L 234.425781 191.546875 L 234.703125 191.566406 L 235.257813 191.609375 L 236.371094 191.6875 L 236.917969 191.726563 L 237.46875 191.757813 L 237.746094 191.777344 L 238.578125 191.824219 L 238.859375 191.839844 L 239.136719 191.851563 L 239.695313 191.878906 L 239.976563 191.890625 L 240.257813 191.90625 L 240.820313 191.925781 L 241.382813 191.949219 L 241.667969 191.957031 L 241.953125 191.96875 L 242.234375 191.976563 L 243.089844 192 L 243.375 192.003906 L 243.664063 192.011719 L 243.949219 192.015625 L 244.234375 192.023438 L 244.8125 192.03125 L 245.101563 192.03125 L 245.679688 192.039063 L 247.132813 192.039063 L 247.425781 192.035156 L 247.714844 192.035156 L 248.300781 192.027344 L 248.597656 192.023438 L 249.183594 192.015625 L 249.480469 192.007813 L 249.773438 192 L 250.070313 191.996094 L 250.367188 191.988281 L 250.660156 191.976563 L 250.957031 191.96875 L 251.257813 191.957031 L 251.554688 191.949219 L 251.851563 191.9375 L 252.449219 191.914063 L 252.746094 191.898438 L 253.046875 191.886719 L 253.644531 191.855469 L 254.851563 191.785156 L 255.132813 191.769531 L 255.976563 191.710938 L 257.109375 191.628906 L 257.679688 191.582031 L 258.246094 191.535156 L 259.390625 191.429688 L 259.675781 191.398438 L 259.960938 191.371094 L 260.535156 191.3125 L 261.683594 191.183594 L 263.992188 190.894531 L 264.570313 190.816406 L 265.152344 190.734375 L 266.316406 190.5625 L 268.648438 190.179688 L 269.234375 190.078125 L 270.992188 189.75 L 273.34375 189.265625 L 273.660156 189.199219 L 273.980469 189.128906 L 274.621094 188.984375 L 275.898438 188.6875 L 278.457031 188.046875 L 279.097656 187.875 L 279.738281 187.699219 L 281.019531 187.339844 L 283.582031 186.570313 L 283.902344 186.46875 L 284.21875 186.367188 L 284.859375 186.160156 L 286.136719 185.734375 L 288.6875 184.832031 L 293.757813 182.828125 L 294.054688 182.703125 L 294.347656 182.574219 L 294.933594 182.320313 L 296.109375 181.796875 L 298.441406 180.707031 L 303.046875 178.34375 L 303.617188 178.03125 L 304.1875 177.714844 L 305.320313 177.070313 L 307.5625 175.734375 L 311.96875 172.886719 L 312.234375 172.703125 L 312.5 172.523438 L 313.027344 172.152344 L 314.082031 171.402344 L 316.160156 169.863281 L 320.203125 166.609375 L 320.453125 166.398438 L 320.699219 166.1875 L 321.191406 165.761719 L 322.167969 164.898438 L 324.085938 163.132813 L 327.785156 159.445313 L 328.03125 159.1875 L 328.273438 158.929688 L 328.757813 158.410156 L 329.710938 157.355469 L 331.574219 155.210938 L 331.804688 154.9375 L 332.03125 154.664063 L 332.484375 154.113281 L 333.375 153.003906 L 335.109375 150.746094 L 335.320313 150.457031 L 335.53125 150.171875 L 335.949219 149.59375 L 336.773438 148.429688 L 338.367188 146.0625 L 341.335938 141.183594 L 341.496094 140.894531 L 341.660156 140.601563 L 341.980469 140.019531 L 342.613281 138.84375 L 343.820313 136.464844 L 343.96875 136.164063 L 344.113281 135.867188 L 344.398438 135.261719 L 344.957031 134.050781 L 346.023438 131.605469 L 346.28125 130.988281 L 346.53125 130.371094 L 347.015625 129.128906 L 347.933594 126.621094 L 348.152344 125.988281 L 348.363281 125.355469 L 348.773438 124.085938 L 349.535156 121.527344 L 349.636719 121.167969 L 349.929688 120.089844 L 350.296875 118.644531 L 350.382813 118.285156 L 350.472656 117.921875 L 350.640625 117.195313 L 350.957031 115.738281 L 351.035156 115.375 L 351.105469 115.007813 L 351.25 114.277344 L 351.519531 112.8125 L 351.644531 112.078125 L 351.761719 111.339844 L 351.980469 109.867188 L 352.03125 109.496094 L 352.078125 109.128906 L 352.171875 108.386719 L 352.214844 108.019531 L 352.257813 107.648438 L 352.375 106.535156 L 352.480469 105.421875 L 352.511719 105.050781 L 352.621094 103.566406 L 352.640625 103.195313 L 352.664063 102.820313 L 352.703125 102.078125 L 352.71875 101.703125 L 352.75 100.960938 L 352.761719 100.585938 L 352.769531 100.214844 L 352.78125 99.84375 L 352.789063 99.46875 L 352.796875 98.726563 L 352.800781 98.351563 L 352.800781 97.980469 "/>
</g>
<path style="fill:none;stroke-width:1.6;stroke-linecap:square;stroke-linejoin:miter;stroke:rgb(50%,50%,50%);stroke-opacity:1;stroke-miterlimit:3.25;" d="M 180 97.980469 L 180.046875 97.980469 L 180.054688 97.976563 L 180.128906 97.976563 L 180.140625 97.972656 L 180.183594 97.972656 L 180.199219 97.96875 L 180.214844 97.96875 L 180.25 97.964844 L 180.328125 97.960938 L 180.347656 97.957031 L 180.371094 97.957031 L 180.414063 97.949219 L 180.511719 97.941406 L 180.535156 97.9375 L 180.617188 97.925781 L 180.734375 97.910156 L 180.859375 97.894531 L 180.996094 97.871094 L 181.296875 97.820313 L 181.339844 97.808594 L 181.386719 97.800781 L 181.476563 97.785156 L 181.667969 97.746094 L 182.078125 97.652344 L 182.132813 97.636719 L 182.191406 97.625 L 182.300781 97.597656 L 182.535156 97.535156 L 183.03125 97.394531 L 183.296875 97.316406 L 183.566406 97.230469 L 184.144531 97.039063 L 185.398438 96.558594 L 185.554688 96.496094 L 185.714844 96.429688 L 186.035156 96.292969 L 186.695313 95.996094 L 188.089844 95.304688 L 188.179688 95.253906 L 188.269531 95.207031 L 188.453125 95.109375 L 188.824219 94.90625 L 189.574219 94.476563 L 191.132813 93.507813 L 191.230469 93.445313 L 191.332031 93.378906 L 191.527344 93.246094 L 191.921875 92.980469 L 192.71875 92.414063 L 194.347656 91.171875 L 194.449219 91.089844 L 194.550781 91.003906 L 194.757813 90.835938 L 195.171875 90.492188 L 196 89.777344 L 197.660156 88.234375 L 197.773438 88.125 L 198.109375 87.789063 L 198.558594 87.332031 L 199.453125 86.386719 L 201.214844 84.359375 L 201.652344 83.828125 L 202.082031 83.28125 L 202.929688 82.164063 L 204.574219 79.796875 L 204.667969 79.652344 L 204.757813 79.511719 L 204.945313 79.222656 L 205.308594 78.636719 L 206.027344 77.445313 L 206.199219 77.140625 L 206.375 76.835938 L 206.71875 76.21875 L 207.382813 74.960938 L 207.464844 74.804688 L 207.546875 74.644531 L 207.707031 74.320313 L 208.023438 73.675781 L 208.632813 72.359375 L 209.753906 69.644531 L 209.828125 69.457031 L 209.898438 69.269531 L 210.039063 68.890625 L 210.308594 68.132813 L 210.820313 66.59375 L 210.878906 66.398438 L 210.941406 66.203125 L 211.058594 65.8125 L 211.285156 65.027344 L 211.707031 63.441406 L 211.757813 63.242188 L 211.804688 63.042969 L 211.898438 62.640625 L 212.082031 61.835938 L 212.125 61.632813 L 212.167969 61.433594 L 212.25 61.027344 L 212.40625 60.210938 L 212.476563 59.804688 L 212.546875 59.394531 L 212.679688 58.574219 L 212.710938 58.367188 L 212.738281 58.160156 L 212.796875 57.75 L 212.902344 56.921875 L 212.949219 56.515625 L 212.992188 56.109375 L 213.011719 55.902344 L 213.03125 55.699219 L 213.066406 55.292969 L 213.085938 55.085938 L 213.117188 54.679688 L 213.132813 54.472656 L 213.144531 54.269531 L 213.160156 54.0625 L 213.183594 53.652344 L 213.191406 53.449219 L 213.203125 53.242188 L 213.210938 53.039063 L 213.21875 52.832031 L 213.226563 52.628906 L 213.234375 52.421875 L 213.238281 52.214844 L 213.242188 52.011719 L 213.246094 51.804688 L 213.25 51.601563 L 213.253906 51.394531 L 213.253906 50.367188 L 213.25 50.160156 L 213.246094 49.957031 L 213.242188 49.75 L 213.234375 49.546875 L 213.230469 49.339844 L 213.222656 49.136719 L 213.207031 48.722656 L 213.195313 48.519531 L 213.183594 48.3125 L 213.175781 48.109375 L 213.160156 47.902344 L 213.148438 47.699219 L 213.132813 47.496094 L 213.105469 47.085938 L 213.085938 46.878906 L 213.070313 46.675781 L 213.03125 46.269531 L 213.011719 46.0625 L 212.992188 45.859375 L 212.949219 45.453125 L 212.921875 45.25 L 212.898438 45.046875 L 212.847656 44.640625 L 212.734375 43.828125 L 212.707031 43.640625 L 212.675781 43.453125 L 212.617188 43.074219 L 212.488281 42.324219 L 212.417969 41.949219 L 212.34375 41.578125 L 212.191406 40.832031 L 212.148438 40.648438 L 212.109375 40.460938 L 212.023438 40.09375 L 211.84375 39.355469 L 211.453125 37.898438 L 211.398438 37.714844 L 211.34375 37.535156 L 211.238281 37.175781 L 211.011719 36.457031 L 210.519531 35.039063 L 210.457031 34.863281 L 210.257813 34.335938 L 209.984375 33.640625 L 209.402344 32.273438 L 209.238281 31.90625 L 209.066406 31.542969 L 208.71875 30.820313 L 207.984375 29.402344 L 207.789063 29.050781 L 207.59375 28.707031 L 207.195313 28.019531 L 206.355469 26.683594 L 205.917969 26.027344 L 205.46875 25.386719 L 204.53125 24.136719 L 202.523438 21.78125 L 202.402344 21.648438 L 202.277344 21.519531 L 202.03125 21.261719 L 201.527344 20.753906 L 200.496094 19.773438 L 200.363281 19.652344 L 199.964844 19.300781 L 199.425781 18.839844 L 198.328125 17.957031 L 198.1875 17.851563 L 198.050781 17.746094 L 197.769531 17.539063 L 197.199219 17.128906 L 196.039063 16.351563 L 195.894531 16.261719 L 195.746094 16.167969 L 195.453125 15.984375 L 194.855469 15.632813 L 193.644531 14.96875 L 193.496094 14.890625 L 193.34375 14.8125 L 193.042969 14.660156 L 192.4375 14.371094 L 192.132813 14.230469 L 191.824219 14.09375 L 191.207031 13.828125 L 191.054688 13.765625 L 190.585938 13.578125 L 189.960938 13.34375 L 188.699219 12.917969 L 188.539063 12.867188 L 188.378906 12.820313 L 188.0625 12.726563 L 187.421875 12.546875 L 187.261719 12.507813 L 187.101563 12.464844 L 186.777344 12.386719 L 186.132813 12.238281 L 185.96875 12.203125 L 185.808594 12.171875 L 185.484375 12.105469 L 185.320313 12.074219 L 185.160156 12.042969 L 184.667969 11.960938 L 184.507813 11.933594 L 184.179688 11.882813 L 184.015625 11.859375 L 183.851563 11.839844 L 183.527344 11.796875 L 183.347656 11.773438 L 183.171875 11.753906 L 182.992188 11.734375 L 182.8125 11.71875 L 182.636719 11.699219 L 182.457031 11.683594 L 182.101563 11.65625 L 181.742188 11.632813 L 181.566406 11.621094 L 181.207031 11.605469 L 181.03125 11.597656 L 180.851563 11.59375 L 180.671875 11.585938 L 180.492188 11.582031 L 180.316406 11.582031 L 180.136719 11.578125 L 179.957031 11.578125 L 179.777344 11.582031 L 179.601563 11.582031 L 179.0625 11.59375 L 178.886719 11.601563 L 178.347656 11.625 L 178.171875 11.636719 L 177.992188 11.648438 L 177.8125 11.664063 L 177.636719 11.675781 L 177.277344 11.707031 L 177.101563 11.726563 L 176.921875 11.746094 L 176.746094 11.765625 L 176.390625 11.804688 L 176.210938 11.828125 L 176.035156 11.855469 L 175.679688 11.90625 L 174.972656 12.019531 L 174.796875 12.054688 L 174.621094 12.085938 L 174.265625 12.15625 L 173.566406 12.304688 L 173.390625 12.347656 L 173.214844 12.386719 L 172.863281 12.472656 L 172.167969 12.660156 L 172.007813 12.707031 L 171.84375 12.753906 L 171.523438 12.847656 L 170.878906 13.050781 L 170.71875 13.105469 L 170.5625 13.160156 L 170.242188 13.269531 L 169.605469 13.503906 L 169.292969 13.628906 L 168.976563 13.753906 L 168.351563 14.015625 L 167.113281 14.582031 L 166.960938 14.660156 L 166.808594 14.734375 L 166.503906 14.890625 L 165.898438 15.210938 L 164.707031 15.890625 L 164.558594 15.980469 L 164.414063 16.070313 L 164.121094 16.25 L 163.539063 16.625 L 162.398438 17.414063 L 162.246094 17.527344 L 162.097656 17.636719 L 161.792969 17.863281 L 161.199219 18.328125 L 160.03125 19.304688 L 159.886719 19.429688 L 159.746094 19.554688 L 159.460938 19.8125 L 158.902344 20.335938 L 157.816406 21.421875 L 157.550781 21.703125 L 157.289063 21.984375 L 156.769531 22.5625 L 155.769531 23.753906 L 155.527344 24.058594 L 155.289063 24.367188 L 154.816406 24.996094 L 153.910156 26.28125 L 153.800781 26.445313 L 153.695313 26.605469 L 153.480469 26.929688 L 153.066406 27.589844 L 152.273438 28.9375 L 152.179688 29.109375 L 152.082031 29.28125 L 151.894531 29.625 L 151.53125 30.324219 L 150.835938 31.742188 L 150.753906 31.925781 L 150.671875 32.105469 L 150.511719 32.46875 L 150.199219 33.199219 L 149.609375 34.683594 L 149.539063 34.871094 L 149.472656 35.058594 L 149.335938 35.433594 L 149.078125 36.195313 L 148.597656 37.730469 L 148.542969 37.910156 L 148.492188 38.09375 L 148.390625 38.453125 L 148.199219 39.183594 L 148.105469 39.550781 L 147.847656 40.652344 L 147.808594 40.839844 L 147.769531 41.023438 L 147.691406 41.394531 L 147.546875 42.140625 L 147.511719 42.324219 L 147.480469 42.511719 L 147.414063 42.886719 L 147.292969 43.636719 L 147.265625 43.824219 L 147.238281 44.015625 L 147.183594 44.390625 L 147.160156 44.578125 L 147.136719 44.769531 L 147.089844 45.144531 L 147.066406 45.335938 L 147.042969 45.523438 L 147.003906 45.902344 L 146.964844 46.285156 L 146.929688 46.664063 L 146.914063 46.855469 L 146.898438 47.042969 L 146.871094 47.425781 L 146.855469 47.613281 L 146.820313 48.1875 L 146.8125 48.378906 L 146.800781 48.566406 L 146.769531 49.332031 L 146.761719 49.714844 L 146.753906 49.921875 L 146.75 50.128906 L 146.75 50.335938 L 146.746094 50.542969 L 146.746094 51.371094 L 146.75 51.578125 L 146.75 51.785156 L 146.753906 51.992188 L 146.761719 52.203125 L 146.765625 52.410156 L 146.796875 53.238281 L 146.808594 53.445313 L 146.816406 53.652344 L 146.828125 53.859375 L 146.839844 54.0625 L 146.855469 54.269531 L 146.882813 54.683594 L 146.914063 55.097656 L 146.953125 55.507813 L 146.96875 55.714844 L 146.988281 55.921875 L 147.03125 56.332031 L 147.054688 56.539063 L 147.078125 56.742188 L 147.125 57.152344 L 147.234375 57.972656 L 147.261719 58.175781 L 147.355469 58.785156 L 147.484375 59.597656 L 147.519531 59.800781 L 147.558594 60.003906 L 147.632813 60.410156 L 147.789063 61.214844 L 148.140625 62.8125 L 148.183594 62.996094 L 148.230469 63.183594 L 148.320313 63.550781 L 148.511719 64.285156 L 148.921875 65.742188 L 148.972656 65.921875 L 149.027344 66.101563 L 149.140625 66.464844 L 149.367188 67.179688 L 149.855469 68.59375 L 149.980469 68.945313 L 150.109375 69.292969 L 150.375 69.984375 L 150.929688 71.351563 L 152.136719 74 L 152.308594 74.351563 L 152.484375 74.699219 L 152.839844 75.390625 L 153.574219 76.742188 L 153.667969 76.90625 L 153.761719 77.074219 L 153.949219 77.402344 L 154.335938 78.054688 L 155.125 79.328125 L 155.226563 79.488281 L 155.324219 79.640625 L 155.527344 79.953125 L 155.9375 80.5625 L 156.773438 81.757813 L 158.5 84.011719 L 158.605469 84.144531 L 158.714844 84.277344 L 158.933594 84.539063 L 159.367188 85.054688 L 160.246094 86.054688 L 162.027344 87.925781 L 162.136719 88.035156 L 162.25 88.144531 L 162.472656 88.363281 L 162.921875 88.792969 L 163.820313 89.617188 L 165.601563 91.128906 L 165.707031 91.214844 L 165.808594 91.296875 L 166.015625 91.457031 L 166.425781 91.777344 L 167.238281 92.386719 L 168.835938 93.488281 L 168.933594 93.554688 L 169.226563 93.742188 L 169.617188 93.988281 L 170.378906 94.449219 L 171.847656 95.269531 L 171.941406 95.320313 L 172.039063 95.371094 L 172.230469 95.46875 L 172.605469 95.660156 L 173.339844 96.011719 L 173.429688 96.050781 L 173.519531 96.09375 L 174.046875 96.328125 L 174.71875 96.609375 L 174.882813 96.671875 L 175.042969 96.734375 L 175.355469 96.855469 L 175.960938 97.074219 L 176.035156 97.097656 L 176.105469 97.125 L 176.25 97.171875 L 176.527344 97.261719 L 177.058594 97.421875 L 177.117188 97.4375 L 177.175781 97.457031 L 177.292969 97.488281 L 177.515625 97.550781 L 177.9375 97.65625 L 178.039063 97.679688 L 178.132813 97.699219 L 178.324219 97.742188 L 178.667969 97.8125 L 178.710938 97.820313 L 178.75 97.828125 L 178.828125 97.839844 L 178.976563 97.867188 L 179.011719 97.875 L 179.046875 97.878906 L 179.117188 97.890625 L 179.246094 97.910156 L 179.308594 97.917969 L 179.367188 97.925781 L 179.476563 97.9375 L 179.5 97.941406 L 179.527344 97.945313 L 179.574219 97.949219 L 179.664063 97.957031 L 179.683594 97.960938 L 179.703125 97.960938 L 179.738281 97.964844 L 179.757813 97.964844 L 179.773438 97.96875 L 179.808594 97.96875 L 179.824219 97.972656 L 179.863281 97.972656 L 179.878906 97.976563 L 179.949219 97.976563 L 179.957031 97.980469 L 180 97.980469 L 179.917969 97.980469 L 179.90625 97.984375 L 179.859375 97.984375 L 179.828125 97.988281 L 179.800781 97.988281 L 179.765625 97.992188 L 179.691406 97.996094 L 179.671875 98 L 179.648438 98.003906 L 179.601563 98.007813 L 179.5 98.019531 L 179.472656 98.019531 L 179.445313 98.023438 L 179.386719 98.03125 L 179.261719 98.046875 L 179.226563 98.054688 L 179.191406 98.058594 L 179.125 98.070313 L 178.976563 98.09375 L 178.644531 98.152344 L 178.558594 98.167969 L 178.464844 98.1875 L 178.273438 98.226563 L 177.855469 98.324219 L 177.800781 98.335938 L 177.746094 98.351563 L 177.632813 98.378906 L 177.398438 98.441406 L 176.902344 98.582031 L 176.839844 98.601563 L 176.78125 98.621094 L 176.65625 98.65625 L 176.402344 98.738281 L 175.867188 98.917969 L 175.800781 98.941406 L 175.730469 98.964844 L 175.589844 99.015625 L 175.304688 99.121094 L 174.710938 99.355469 L 174.632813 99.386719 L 174.558594 99.417969 L 174.402344 99.480469 L 174.089844 99.613281 L 173.4375 99.902344 L 172.0625 100.574219 L 171.96875 100.625 L 171.871094 100.675781 L 171.675781 100.78125 L 171.28125 100.992188 L 170.472656 101.453125 L 168.796875 102.496094 L 168.585938 102.636719 L 168.367188 102.78125 L 167.933594 103.078125 L 167.054688 103.707031 L 165.265625 105.101563 L 165.15625 105.191406 L 165.046875 105.285156 L 164.824219 105.46875 L 164.378906 105.851563 L 163.484375 106.644531 L 161.699219 108.363281 L 161.585938 108.476563 L 161.476563 108.589844 L 161.253906 108.820313 L 160.8125 109.289063 L 159.929688 110.257813 L 158.195313 112.328125 L 158.09375 112.453125 L 157.996094 112.578125 L 157.796875 112.835938 L 157.402344 113.351563 L 156.625 114.410156 L 155.125 116.632813 L 155.03125 116.777344 L 154.941406 116.917969 L 154.757813 117.210938 L 154.402344 117.792969 L 153.699219 118.988281 L 152.375 121.476563 L 152.203125 121.820313 L 152.035156 122.167969 L 151.699219 122.871094 L 151.0625 124.300781 L 150.984375 124.484375 L 150.90625 124.664063 L 150.753906 125.027344 L 150.460938 125.761719 L 149.894531 127.253906 L 149.761719 127.628906 L 149.628906 128.007813 L 149.371094 128.769531 L 148.890625 130.3125 L 148.835938 130.503906 L 148.777344 130.699219 L 148.667969 131.089844 L 148.457031 131.875 L 148.066406 133.460938 L 148.023438 133.648438 L 147.984375 133.835938 L 147.902344 134.207031 L 147.746094 134.957031 L 147.707031 135.148438 L 147.601563 135.710938 L 147.46875 136.46875 L 147.4375 136.660156 L 147.40625 136.847656 L 147.34375 137.230469 L 147.234375 137.992188 L 147.179688 138.375 L 147.132813 138.757813 L 147.042969 139.523438 L 147.023438 139.71875 L 146.964844 140.292969 L 146.949219 140.488281 L 146.929688 140.679688 L 146.898438 141.066406 L 146.882813 141.257813 L 146.871094 141.453125 L 146.855469 141.644531 L 146.84375 141.835938 L 146.832031 142.03125 L 146.820313 142.222656 L 146.800781 142.609375 L 146.785156 143 L 146.777344 143.191406 L 146.769531 143.386719 L 146.765625 143.578125 L 146.761719 143.773438 L 146.753906 143.964844 L 146.75 144.160156 L 146.75 144.355469 L 146.746094 144.546875 L 146.746094 145.515625 L 146.75 145.710938 L 146.753906 145.902344 L 146.757813 146.089844 L 146.765625 146.472656 L 146.773438 146.660156 L 146.777344 146.851563 L 146.785156 147.039063 L 146.792969 147.230469 L 146.804688 147.421875 L 146.8125 147.609375 L 146.824219 147.800781 L 146.835938 147.988281 L 146.847656 148.179688 L 146.859375 148.367188 L 146.886719 148.746094 L 146.902344 148.933594 L 146.917969 149.125 L 146.949219 149.503906 L 146.96875 149.691406 L 146.984375 149.878906 L 147.023438 150.257813 L 147.046875 150.445313 L 147.066406 150.632813 L 147.113281 151.007813 L 147.210938 151.761719 L 147.238281 151.949219 L 147.265625 152.132813 L 147.324219 152.507813 L 147.445313 153.253906 L 147.476563 153.441406 L 147.511719 153.625 L 147.582031 153.996094 L 147.726563 154.734375 L 147.765625 154.921875 L 147.804688 155.105469 L 147.886719 155.472656 L 148.058594 156.203125 L 148.433594 157.65625 L 148.542969 158.046875 L 148.65625 158.4375 L 148.894531 159.210938 L 149.414063 160.742188 L 149.480469 160.929688 L 149.550781 161.117188 L 149.691406 161.496094 L 149.984375 162.242188 L 150.609375 163.71875 L 150.691406 163.898438 L 150.777344 164.082031 L 150.945313 164.441406 L 151.289063 165.160156 L 152.019531 166.566406 L 152.117188 166.738281 L 152.210938 166.910156 L 152.40625 167.253906 L 152.800781 167.933594 L 153.632813 169.261719 L 153.835938 169.566406 L 154.039063 169.867188 L 154.453125 170.464844 L 155.316406 171.625 L 155.425781 171.769531 L 155.535156 171.910156 L 155.761719 172.191406 L 156.214844 172.746094 L 157.152344 173.828125 L 157.273438 173.957031 L 157.394531 174.089844 L 157.636719 174.351563 L 158.128906 174.863281 L 159.140625 175.851563 L 159.269531 175.972656 L 159.398438 176.089844 L 159.660156 176.328125 L 160.1875 176.792969 L 161.265625 177.683594 L 161.5625 177.917969 L 161.863281 178.144531 L 162.46875 178.59375 L 163.707031 179.441406 L 164.019531 179.644531 L 164.335938 179.84375 L 164.976563 180.226563 L 166.273438 180.949219 L 166.601563 181.121094 L 166.933594 181.285156 L 167.597656 181.605469 L 167.765625 181.683594 L 168.269531 181.90625 L 168.945313 182.195313 L 169.117188 182.261719 L 169.285156 182.332031 L 169.628906 182.460938 L 170.316406 182.714844 L 171.703125 183.164063 L 171.867188 183.214844 L 172.03125 183.261719 L 172.359375 183.351563 L 173.015625 183.523438 L 173.179688 183.5625 L 173.347656 183.601563 L 173.675781 183.679688 L 174.339844 183.820313 L 174.507813 183.851563 L 174.671875 183.882813 L 175.007813 183.945313 L 175.171875 183.972656 L 175.339844 184 L 175.671875 184.054688 L 176.34375 184.148438 L 176.679688 184.1875 L 177.015625 184.222656 L 177.183594 184.242188 L 177.519531 184.273438 L 177.6875 184.285156 L 177.855469 184.300781 L 178.191406 184.324219 L 178.359375 184.332031 L 178.527344 184.34375 L 178.695313 184.351563 L 178.867188 184.355469 L 179.035156 184.363281 L 179.707031 184.378906 L 180.382813 184.378906 L 180.71875 184.371094 L 180.890625 184.367188 L 181.226563 184.351563 L 181.394531 184.347656 L 181.5625 184.335938 L 181.730469 184.328125 L 182.066406 184.304688 L 182.40625 184.277344 L 182.570313 184.265625 L 182.734375 184.25 L 183.0625 184.214844 L 183.226563 184.199219 L 183.394531 184.179688 L 183.722656 184.136719 L 183.886719 184.117188 L 184.378906 184.046875 L 185.03125 183.9375 L 185.195313 183.90625 L 185.359375 183.878906 L 185.683594 183.8125 L 186.335938 183.675781 L 186.496094 183.640625 L 186.660156 183.601563 L 186.980469 183.523438 L 187.628906 183.355469 L 187.789063 183.3125 L 188.269531 183.171875 L 188.90625 182.976563 L 189.066406 182.925781 L 189.222656 182.871094 L 189.542969 182.765625 L 190.171875 182.539063 L 190.328125 182.480469 L 190.484375 182.417969 L 190.796875 182.296875 L 191.421875 182.042969 L 192.648438 181.488281 L 192.816406 181.410156 L 193.308594 181.164063 L 193.960938 180.824219 L 195.246094 180.097656 L 195.402344 180.003906 L 195.5625 179.90625 L 195.875 179.710938 L 196.5 179.308594 L 197.722656 178.453125 L 197.875 178.34375 L 198.320313 178.003906 L 198.914063 177.542969 L 200.066406 176.570313 L 200.347656 176.320313 L 200.628906 176.0625 L 201.179688 175.542969 L 202.257813 174.460938 L 202.378906 174.332031 L 202.503906 174.199219 L 202.746094 173.9375 L 203.222656 173.402344 L 204.152344 172.300781 L 204.378906 172.019531 L 204.601563 171.734375 L 205.039063 171.160156 L 205.886719 169.972656 L 205.992188 169.824219 L 206.296875 169.367188 L 206.695313 168.75 L 207.457031 167.492188 L 207.550781 167.332031 L 207.640625 167.171875 L 207.824219 166.851563 L 208.175781 166.199219 L 208.851563 164.871094 L 208.9375 164.691406 L 209.195313 164.140625 L 209.527344 163.402344 L 210.152344 161.898438 L 210.300781 161.515625 L 210.441406 161.132813 L 210.71875 160.363281 L 211.230469 158.804688 L 211.292969 158.605469 L 211.351563 158.410156 L 211.464844 158.011719 L 211.683594 157.21875 L 211.738281 157.019531 L 211.789063 156.816406 L 211.890625 156.417969 L 212.082031 155.609375 L 212.128906 155.410156 L 212.257813 154.800781 L 212.421875 153.984375 L 212.460938 153.78125 L 212.496094 153.578125 L 212.570313 153.167969 L 212.703125 152.34375 L 212.734375 152.140625 L 212.761719 151.941406 L 212.820313 151.535156 L 212.847656 151.332031 L 212.871094 151.128906 L 212.921875 150.722656 L 212.945313 150.519531 L 212.96875 150.3125 L 213.011719 149.90625 L 213.03125 149.703125 L 213.050781 149.496094 L 213.085938 149.089844 L 213.101563 148.882813 L 213.117188 148.679688 L 213.132813 148.472656 L 213.148438 148.269531 L 213.160156 148.0625 L 213.171875 147.859375 L 213.195313 147.449219 L 213.203125 147.242188 L 213.214844 147.039063 L 213.222656 146.832031 L 213.230469 146.628906 L 213.234375 146.421875 L 213.242188 146.214844 L 213.246094 146.011719 L 213.25 145.804688 L 213.25 145.597656 L 213.253906 145.394531 L 213.253906 144.570313 L 213.25 144.367188 L 213.25 144.160156 L 213.246094 143.953125 L 213.238281 143.75 L 213.234375 143.542969 L 213.226563 143.335938 L 213.21875 143.132813 L 213.210938 142.925781 L 213.203125 142.722656 L 213.191406 142.515625 L 213.183594 142.3125 L 213.171875 142.105469 L 213.160156 141.902344 L 213.144531 141.695313 L 213.132813 141.492188 L 213.117188 141.285156 L 213.085938 140.875 L 213.066406 140.671875 L 213.050781 140.46875 L 213.011719 140.058594 L 212.925781 139.242188 L 212.902344 139.054688 L 212.878906 138.863281 L 212.832031 138.484375 L 212.730469 137.730469 L 212.703125 137.539063 L 212.671875 137.351563 L 212.617188 136.976563 L 212.492188 136.222656 L 212.421875 135.847656 L 212.355469 135.476563 L 212.207031 134.730469 L 211.882813 133.25 L 211.796875 132.882813 L 211.707031 132.519531 L 211.519531 131.789063 L 211.117188 130.34375 L 211.0625 130.164063 L 211.011719 129.984375 L 210.902344 129.628906 L 210.675781 128.917969 L 210.199219 127.511719 L 210.128906 127.324219 L 210.0625 127.136719 L 209.925781 126.761719 L 209.640625 126.015625 L 209.042969 124.546875 L 208.964844 124.367188 L 208.886719 124.183594 L 208.730469 123.824219 L 208.410156 123.109375 L 207.738281 121.703125 L 207.566406 121.359375 L 207.390625 121.015625 L 207.039063 120.335938 L 206.304688 119 L 204.757813 116.445313 L 204.570313 116.15625 L 204.378906 115.871094 L 204 115.304688 L 203.226563 114.203125 L 201.628906 112.105469 L 201.222656 111.605469 L 200.8125 111.113281 L 199.984375 110.160156 L 198.308594 108.371094 L 197.894531 107.957031 L 197.480469 107.554688 L 196.652344 106.769531 L 195 105.320313 L 194.898438 105.234375 L 194.792969 105.152344 L 194.589844 104.984375 L 194.179688 104.652344 L 193.363281 104.023438 L 191.765625 102.871094 L 191.65625 102.800781 L 191.550781 102.726563 L 191.339844 102.585938 L 190.917969 102.308594 L 190.085938 101.789063 L 189.984375 101.726563 L 189.878906 101.664063 L 189.675781 101.542969 L 189.273438 101.308594 L 188.484375 100.867188 L 188.386719 100.8125 L 188.289063 100.761719 L 188.097656 100.660156 L 187.71875 100.464844 L 186.976563 100.097656 L 185.585938 99.476563 L 185.507813 99.441406 L 185.429688 99.410156 L 185.277344 99.347656 L 184.976563 99.230469 L 184.398438 99.011719 L 184.257813 98.964844 L 184.121094 98.914063 L 183.851563 98.820313 L 183.335938 98.65625 L 183.273438 98.636719 L 183.214844 98.617188 L 183.089844 98.582031 L 182.855469 98.511719 L 182.40625 98.390625 L 182.355469 98.375 L 182.300781 98.363281 L 182.195313 98.335938 L 181.996094 98.289063 L 181.621094 98.203125 L 181.570313 98.195313 L 181.523438 98.183594 L 181.425781 98.164063 L 181.246094 98.128906 L 181.160156 98.113281 L 181.074219 98.101563 L 180.917969 98.074219 L 180.878906 98.070313 L 180.84375 98.0625 L 180.773438 98.054688 L 180.640625 98.035156 L 180.578125 98.027344 L 180.519531 98.019531 L 180.410156 98.007813 L 180.382813 98.003906 L 180.359375 98.003906 L 180.3125 98 L 180.292969 97.996094 L 180.269531 97.996094 L 180.230469 97.992188 L 180.210938 97.988281 L 180.160156 97.988281 L 180.144531 97.984375 L 180.089844 97.984375 L 180.078125 97.980469 L 180 97.980469 "/>
</g>
</svg>
