<?xml version="1.0" encoding="UTF-8"?>
<svg xmlns="http://www.w3.org/2000/svg" xmlns:xlink="http://www.w3.org/1999/xlink" width="360pt" height="223pt" viewBox="0 0 360 223" version="1.1">
<defs>
<clipPath id="clip1">
  <path d="M 0 0 L 359.761719 0 L 359.761719 222.71875 L 0 222.71875 Z M 0 0 "/>
</clipPath>
</defs>
<g id="surface1">
<g clip-path="url(#clip1)" clip-rule="nonzero">
<path style="fill:none;stroke-width:4;stroke-linecap:square;stroke-linejoin:miter;stroke:rgb(99.998474%,0%,0%);stroke-opacity:1;stroke-miterlimit:3.25;" d="M 7.199219 212.3125 L 7.304688 212.308594 L 7.625 212.308594 L 8.046875 212.304688 L 8.894531 212.300781 L 9 212.300781 L 9.109375 212.296875 L 9.320313 212.296875 L 9.742188 212.292969 L 10.59375 212.285156 L 10.804688 212.285156 L 11.015625 212.28125 L 11.441406 212.277344 L 13.984375 212.253906 L 14.097656 212.253906 L 14.214844 212.25 L 14.441406 212.25 L 14.902344 212.242188 L 15.820313 212.230469 L 15.9375 212.230469 L 16.050781 212.226563 L 16.28125 212.226563 L 16.742188 212.21875 L 17.660156 212.207031 L 17.777344 212.203125 L 17.890625 212.203125 L 18.121094 212.199219 L 18.578125 212.191406 L 19.5 212.175781 L 21.339844 212.140625 L 21.445313 212.136719 L 21.550781 212.136719 L 21.765625 212.132813 L 22.195313 212.121094 L 23.054688 212.105469 L 23.160156 212.101563 L 23.269531 212.097656 L 23.484375 212.09375 L 23.914063 212.082031 L 24.769531 212.0625 L 24.878906 212.058594 L 24.984375 212.054688 L 25.199219 212.050781 L 25.628906 212.039063 L 26.488281 212.011719 L 28.203125 211.957031 L 29.046875 211.925781 L 29.886719 211.894531 L 30.730469 211.863281 L 31.570313 211.828125 L 31.675781 211.820313 L 31.992188 211.808594 L 32.414063 211.789063 L 33.253906 211.746094 L 34.9375 211.660156 L 35.164063 211.644531 L 35.394531 211.632813 L 35.851563 211.605469 L 36.761719 211.550781 L 36.875 211.542969 L 36.992188 211.535156 L 37.21875 211.519531 L 38.589844 211.425781 L 38.816406 211.410156 L 39.042969 211.390625 L 39.5 211.359375 L 40.414063 211.285156 L 42.238281 211.125 L 42.347656 211.117188 L 42.453125 211.105469 L 42.664063 211.085938 L 43.089844 211.046875 L 43.945313 210.960938 L 45.648438 210.773438 L 45.859375 210.75 L 46.074219 210.722656 L 46.5 210.671875 L 47.351563 210.566406 L 49.054688 210.332031 L 49.171875 210.316406 L 49.285156 210.300781 L 49.515625 210.265625 L 49.980469 210.195313 L 50.902344 210.050781 L 52.75 209.738281 L 52.863281 209.71875 L 52.980469 209.695313 L 53.671875 209.566406 L 54.59375 209.386719 L 56.441406 208.992188 L 56.554688 208.96875 L 56.667969 208.941406 L 56.894531 208.890625 L 57.347656 208.785156 L 58.253906 208.566406 L 60.066406 208.089844 L 60.519531 207.964844 L 60.972656 207.835938 L 61.878906 207.566406 L 63.691406 206.984375 L 63.902344 206.914063 L 64.117188 206.839844 L 64.539063 206.695313 L 65.382813 206.390625 L 67.074219 205.738281 L 67.496094 205.566406 L 67.921875 205.390625 L 68.765625 205.03125 L 70.457031 204.257813 L 70.570313 204.203125 L 70.6875 204.148438 L 70.914063 204.035156 L 71.375 203.808594 L 72.289063 203.339844 L 74.125 202.34375 L 74.351563 202.210938 L 74.582031 202.078125 L 75.039063 201.808594 L 75.957031 201.25 L 77.792969 200.066406 L 78.003906 199.917969 L 78.21875 199.773438 L 78.648438 199.476563 L 79.503906 198.863281 L 81.214844 197.570313 L 81.320313 197.488281 L 81.429688 197.402344 L 81.644531 197.234375 L 82.070313 196.886719 L 82.925781 196.179688 L 84.636719 194.6875 L 84.742188 194.589844 L 84.847656 194.496094 L 85.058594 194.304688 L 85.476563 193.914063 L 86.316406 193.117188 L 88.101563 191.332031 L 88.203125 191.222656 L 88.414063 191.003906 L 88.832031 190.558594 L 89.671875 189.648438 L 91.351563 187.746094 L 91.464844 187.613281 L 91.578125 187.476563 L 91.804688 187.207031 L 92.261719 186.664063 L 93.171875 185.542969 L 94.992188 183.199219 L 98.632813 178.054688 L 98.742188 177.894531 L 99.058594 177.414063 L 99.484375 176.765625 L 100.332031 175.445313 L 102.03125 172.695313 L 105.429688 166.785156 L 105.546875 166.574219 L 105.660156 166.363281 L 105.890625 165.941406 L 106.351563 165.085938 L 107.273438 163.347656 L 109.113281 159.746094 L 112.796875 152.0625 L 120.027344 135.210938 L 126.773438 117.695313 L 134.085938 97.390625 L 140.914063 78.046875 L 148.3125 57.820313 L 148.425781 57.523438 L 148.539063 57.222656 L 148.765625 56.632813 L 149.222656 55.453125 L 150.128906 53.121094 L 151.945313 48.570313 L 155.578125 39.988281 L 156 39.035156 L 156.425781 38.097656 L 157.269531 36.257813 L 158.964844 32.722656 L 159.070313 32.511719 L 159.175781 32.296875 L 159.386719 31.875 L 159.8125 31.035156 L 160.660156 29.402344 L 162.351563 26.304688 L 162.46875 26.101563 L 162.582031 25.902344 L 162.8125 25.503906 L 163.269531 24.722656 L 164.191406 23.214844 L 164.304688 23.03125 L 164.417969 22.851563 L 164.648438 22.488281 L 165.109375 21.78125 L 166.027344 20.421875 L 166.140625 20.257813 L 166.257813 20.09375 L 166.484375 19.773438 L 166.945313 19.140625 L 167.863281 17.941406 L 169.699219 15.78125 L 169.808594 15.664063 L 169.914063 15.550781 L 170.128906 15.324219 L 170.558594 14.886719 L 171.414063 14.070313 L 171.523438 13.972656 L 171.628906 13.875 L 171.84375 13.6875 L 172.273438 13.324219 L 173.128906 12.65625 L 173.238281 12.578125 L 173.34375 12.5 L 173.558594 12.347656 L 173.988281 12.0625 L 174.09375 11.996094 L 174.203125 11.925781 L 174.414063 11.796875 L 174.84375 11.546875 L 174.953125 11.488281 L 175.058594 11.433594 L 175.273438 11.320313 L 175.703125 11.113281 L 175.808594 11.0625 L 175.917969 11.015625 L 176.128906 10.921875 L 176.558594 10.753906 L 176.664063 10.714844 L 176.769531 10.679688 L 176.980469 10.605469 L 177.085938 10.574219 L 177.191406 10.539063 L 177.398438 10.480469 L 177.503906 10.449219 L 177.609375 10.421875 L 177.820313 10.371094 L 178.03125 10.324219 L 178.242188 10.28125 L 178.34375 10.261719 L 178.449219 10.242188 L 178.765625 10.195313 L 179.1875 10.148438 L 179.292969 10.140625 L 179.394531 10.132813 L 179.5 10.125 L 179.816406 10.113281 L 180.132813 10.113281 L 180.34375 10.121094 L 180.445313 10.125 L 180.550781 10.128906 L 180.867188 10.152344 L 181.183594 10.1875 L 181.289063 10.203125 L 181.390625 10.21875 L 181.601563 10.253906 L 181.707031 10.269531 L 181.8125 10.292969 L 182.023438 10.335938 L 182.234375 10.382813 L 182.441406 10.4375 L 182.546875 10.464844 L 182.863281 10.558594 L 183.285156 10.695313 L 183.511719 10.78125 L 183.738281 10.871094 L 184.195313 11.066406 L 184.308594 11.117188 L 184.421875 11.171875 L 184.652344 11.28125 L 185.109375 11.523438 L 185.335938 11.648438 L 185.5625 11.785156 L 186.019531 12.066406 L 186.929688 12.699219 L 187.046875 12.785156 L 187.160156 12.871094 L 187.386719 13.050781 L 187.84375 13.417969 L 188.753906 14.226563 L 188.871094 14.332031 L 189.210938 14.660156 L 189.667969 15.113281 L 190.578125 16.089844 L 190.6875 16.207031 L 191.003906 16.570313 L 191.429688 17.070313 L 192.28125 18.125 L 193.984375 20.4375 L 194.089844 20.589844 L 194.195313 20.746094 L 194.410156 21.054688 L 194.835938 21.691406 L 195.683594 23.015625 L 197.386719 25.851563 L 197.503906 26.050781 L 197.617188 26.253906 L 197.847656 26.660156 L 198.308594 27.488281 L 199.230469 29.195313 L 201.078125 32.808594 L 204.765625 40.761719 L 204.878906 41.023438 L 204.992188 41.28125 L 205.21875 41.800781 L 205.671875 42.851563 L 206.578125 44.984375 L 208.386719 49.390625 L 212.007813 58.667969 L 218.765625 77.152344 L 226.09375 97.902344 L 232.933594 116.898438 L 239.636719 134.382813 L 246.914063 151.433594 L 247.335938 152.355469 L 247.761719 153.269531 L 248.609375 155.074219 L 250.308594 158.582031 L 253.703125 165.183594 L 253.816406 165.398438 L 253.933594 165.613281 L 254.160156 166.039063 L 254.621094 166.878906 L 255.542969 168.53125 L 257.382813 171.714844 L 261.0625 177.597656 L 261.167969 177.757813 L 261.277344 177.917969 L 261.492188 178.242188 L 261.917969 178.875 L 262.777344 180.121094 L 264.496094 182.511719 L 264.605469 182.65625 L 264.710938 182.800781 L 264.925781 183.089844 L 265.355469 183.65625 L 266.214844 184.769531 L 267.933594 186.894531 L 268.039063 187.023438 L 268.144531 187.148438 L 268.351563 187.398438 L 268.773438 187.890625 L 269.617188 188.859375 L 271.300781 190.703125 L 271.40625 190.8125 L 271.511719 190.925781 L 272.144531 191.582031 L 272.984375 192.429688 L 274.667969 194.050781 L 274.785156 194.15625 L 275.125 194.472656 L 275.582031 194.882813 L 276.496094 195.6875 L 278.324219 197.207031 L 278.550781 197.386719 L 278.78125 197.566406 L 279.238281 197.921875 L 280.148438 198.609375 L 281.976563 199.90625 L 282.082031 199.980469 L 282.191406 200.050781 L 282.402344 200.195313 L 282.828125 200.476563 L 283.683594 201.027344 L 285.386719 202.058594 L 285.492188 202.121094 L 285.601563 202.183594 L 285.8125 202.304688 L 286.238281 202.546875 L 287.089844 203.015625 L 288.796875 203.894531 L 288.914063 203.949219 L 289.027344 204.007813 L 289.257813 204.121094 L 289.71875 204.339844 L 290.644531 204.765625 L 292.492188 205.5625 L 292.609375 205.609375 L 292.722656 205.65625 L 292.953125 205.75 L 293.414063 205.933594 L 294.339844 206.289063 L 296.1875 206.945313 L 296.300781 206.984375 L 296.414063 207.019531 L 296.640625 207.097656 L 297.09375 207.242188 L 298 207.527344 L 299.816406 208.058594 L 300.269531 208.183594 L 300.722656 208.304688 L 301.628906 208.535156 L 303.445313 208.96875 L 304.289063 209.15625 L 305.136719 209.332031 L 306.828125 209.660156 L 307.25 209.738281 L 307.675781 209.8125 L 308.519531 209.957031 L 310.210938 210.226563 L 310.328125 210.242188 L 310.441406 210.261719 L 310.671875 210.292969 L 311.128906 210.359375 L 312.046875 210.484375 L 313.882813 210.71875 L 313.996094 210.730469 L 314.109375 210.746094 L 314.339844 210.773438 L 314.800781 210.824219 L 315.714844 210.925781 L 317.550781 211.105469 L 317.660156 211.117188 L 317.765625 211.128906 L 317.980469 211.148438 L 318.40625 211.183594 L 319.265625 211.257813 L 320.976563 211.394531 L 321.085938 211.402344 L 321.191406 211.410156 L 321.40625 211.425781 L 321.832031 211.457031 L 322.691406 211.515625 L 324.402344 211.621094 L 324.507813 211.628906 L 324.613281 211.632813 L 324.824219 211.644531 L 325.242188 211.667969 L 326.082031 211.714844 L 326.1875 211.71875 L 326.292969 211.726563 L 326.503906 211.734375 L 326.921875 211.757813 L 327.761719 211.796875 L 327.972656 211.804688 L 328.183594 211.816406 L 328.601563 211.832031 L 329.441406 211.871094 L 331.121094 211.933594 L 331.574219 211.949219 L 332.03125 211.964844 L 332.941406 211.996094 L 333.054688 212 L 333.171875 212.003906 L 333.398438 212.007813 L 333.851563 212.023438 L 334.765625 212.046875 L 335.21875 212.0625 L 335.675781 212.074219 L 336.585938 212.09375 L 338.410156 212.136719 L 338.515625 212.136719 L 338.621094 212.140625 L 338.832031 212.144531 L 340.109375 212.167969 L 340.214844 212.171875 L 340.320313 212.171875 L 340.535156 212.175781 L 340.957031 212.183594 L 341.808594 212.195313 L 341.914063 212.199219 L 342.019531 212.199219 L 342.234375 212.203125 L 342.660156 212.210938 L 343.507813 212.222656 L 345.207031 212.242188 L 345.328125 212.246094 L 345.445313 212.246094 L 345.683594 212.25 L 346.15625 212.253906 L 347.105469 212.265625 L 347.34375 212.265625 L 347.582031 212.269531 L 348.054688 212.273438 L 349.003906 212.28125 L 349.121094 212.285156 L 349.480469 212.285156 L 349.953125 212.289063 L 350.902344 212.296875 L 351.019531 212.300781 L 351.375 212.300781 L 351.851563 212.304688 L 352.089844 212.304688 L 352.324219 212.308594 L 352.679688 212.308594 L 352.800781 212.3125 "/>
</g>
</g>
</svg>
