<?xml version="1.0" encoding="UTF-8"?>
<svg xmlns="http://www.w3.org/2000/svg" xmlns:xlink="http://www.w3.org/1999/xlink" width="360pt" height="223pt" viewBox="0 0 360 223" version="1.1">
<defs>
<clipPath id="clip1">
  <path d="M 0 0 L 359.761719 0 L 359.761719 222.71875 L 0 222.71875 Z M 0 0 "/>
</clipPath>
</defs>
<g id="surface6">
<g clip-path="url(#clip1)" clip-rule="nonzero">
<path style="fill:none;stroke-width:4;stroke-linecap:square;stroke-linejoin:miter;stroke:rgb(0%,0%,99.998474%);stroke-opacity:1;stroke-miterlimit:3.25;" d="M 7.199219 17.453125 L 7.304688 17.492188 L 7.410156 17.527344 L 7.625 17.597656 L 8.046875 17.746094 L 8.894531 18.046875 L 10.59375 18.675781 L 10.699219 18.71875 L 10.804688 18.757813 L 11.015625 18.839844 L 11.441406 19.007813 L 12.289063 19.351563 L 13.984375 20.070313 L 14.097656 20.117188 L 14.214844 20.167969 L 14.441406 20.269531 L 14.902344 20.476563 L 15.820313 20.898438 L 17.660156 21.789063 L 17.777344 21.847656 L 17.890625 21.90625 L 18.121094 22.023438 L 18.578125 22.257813 L 19.5 22.742188 L 21.339844 23.753906 L 21.550781 23.878906 L 22.195313 24.253906 L 23.054688 24.761719 L 24.769531 25.832031 L 28.203125 28.160156 L 28.308594 28.234375 L 28.414063 28.3125 L 28.625 28.464844 L 29.046875 28.773438 L 29.886719 29.398438 L 31.570313 30.707031 L 34.9375 33.53125 L 35.164063 33.734375 L 35.394531 33.9375 L 35.851563 34.347656 L 36.761719 35.1875 L 38.589844 36.929688 L 42.238281 40.691406 L 42.347656 40.808594 L 42.453125 40.925781 L 42.664063 41.15625 L 43.089844 41.625 L 43.945313 42.578125 L 45.648438 44.550781 L 49.054688 48.75 L 56.441406 59.058594 L 63.691406 70.78125 L 70.457031 83.054688 L 77.792969 97.613281 L 84.636719 112.066406 L 91.351563 126.652344 L 98.632813 142.433594 L 105.429688 156.582031 L 112.796875 170.703125 L 113.25 171.515625 L 113.699219 172.320313 L 114.605469 173.910156 L 116.414063 177.003906 L 120.027344 182.8125 L 120.132813 182.972656 L 120.238281 183.136719 L 120.449219 183.457031 L 120.871094 184.09375 L 121.714844 185.34375 L 123.402344 187.753906 L 123.503906 187.898438 L 123.609375 188.046875 L 123.820313 188.335938 L 124.242188 188.910156 L 125.085938 190.039063 L 126.773438 192.207031 L 127 192.488281 L 127.230469 192.769531 L 127.6875 193.328125 L 128.601563 194.410156 L 130.429688 196.46875 L 130.542969 196.589844 L 130.660156 196.714844 L 130.886719 196.957031 L 131.34375 197.441406 L 132.257813 198.375 L 134.085938 200.136719 L 134.195313 200.234375 L 134.300781 200.332031 L 134.515625 200.527344 L 134.941406 200.910156 L 135.792969 201.648438 L 137.5 203.039063 L 137.609375 203.121094 L 137.714844 203.203125 L 137.929688 203.367188 L 138.355469 203.6875 L 139.207031 204.304688 L 140.914063 205.453125 L 141.03125 205.527344 L 141.144531 205.597656 L 141.378906 205.742188 L 141.839844 206.027344 L 142.765625 206.566406 L 142.878906 206.632813 L 142.996094 206.699219 L 143.226563 206.828125 L 143.691406 207.078125 L 144.613281 207.554688 L 144.730469 207.613281 L 144.84375 207.671875 L 145.078125 207.785156 L 145.539063 208.003906 L 146.464844 208.421875 L 148.3125 209.175781 L 148.539063 209.261719 L 148.765625 209.34375 L 149.222656 209.507813 L 150.128906 209.8125 L 150.355469 209.882813 L 150.582031 209.957031 L 151.039063 210.09375 L 151.945313 210.355469 L 152.058594 210.382813 L 152.398438 210.476563 L 152.851563 210.589844 L 153.761719 210.808594 L 153.875 210.835938 L 153.988281 210.859375 L 154.214844 210.910156 L 154.667969 211.007813 L 155.578125 211.1875 L 155.789063 211.226563 L 156 211.261719 L 156.425781 211.335938 L 157.269531 211.476563 L 157.375 211.492188 L 157.484375 211.507813 L 157.695313 211.539063 L 158.117188 211.597656 L 158.964844 211.710938 L 159.175781 211.734375 L 159.386719 211.761719 L 159.8125 211.808594 L 160.023438 211.832031 L 160.234375 211.851563 L 160.660156 211.894531 L 160.871094 211.917969 L 161.082031 211.9375 L 161.507813 211.972656 L 162.351563 212.042969 L 162.46875 212.050781 L 162.582031 212.058594 L 162.8125 212.074219 L 163.269531 212.105469 L 163.386719 212.113281 L 163.5 212.121094 L 163.730469 212.132813 L 164.191406 212.160156 L 164.304688 212.164063 L 164.417969 212.171875 L 165.109375 212.207031 L 165.335938 212.214844 L 165.566406 212.226563 L 166.027344 212.242188 L 166.140625 212.25 L 166.257813 212.253906 L 166.484375 212.261719 L 166.945313 212.277344 L 167.058594 212.28125 L 167.175781 212.28125 L 167.402344 212.289063 L 167.863281 212.300781 L 167.976563 212.304688 L 168.09375 212.308594 L 168.320313 212.3125 L 168.4375 212.316406 L 168.550781 212.316406 L 168.78125 212.324219 L 168.894531 212.324219 L 169.011719 212.328125 L 169.242188 212.332031 L 169.699219 212.339844 L 169.808594 212.339844 L 169.914063 212.34375 L 170.128906 212.34375 L 170.234375 212.347656 L 170.34375 212.347656 L 170.558594 212.351563 L 170.773438 212.351563 L 170.984375 212.355469 L 171.414063 212.359375 L 171.628906 212.359375 L 171.84375 212.363281 L 172.058594 212.363281 L 172.273438 212.367188 L 172.699219 212.367188 L 172.808594 212.371094 L 173.558594 212.371094 L 173.664063 212.375 L 175.058594 212.375 L 175.164063 212.378906 L 184.765625 212.378906 L 184.878906 212.375 L 186.246094 212.375 L 186.476563 212.371094 L 187.160156 212.371094 L 187.386719 212.367188 L 187.84375 212.367188 L 187.957031 212.363281 L 188.300781 212.363281 L 188.753906 212.359375 L 188.871094 212.355469 L 188.984375 212.355469 L 189.210938 212.351563 L 189.4375 212.351563 L 189.667969 212.347656 L 189.78125 212.347656 L 189.894531 212.34375 L 190.125 212.339844 L 190.578125 212.335938 L 190.6875 212.332031 L 190.792969 212.332031 L 191.003906 212.328125 L 191.429688 212.316406 L 191.535156 212.316406 L 191.644531 212.3125 L 191.855469 212.308594 L 192.28125 212.296875 L 192.386719 212.296875 L 192.492188 212.292969 L 192.707031 212.285156 L 193.132813 212.273438 L 193.34375 212.265625 L 193.558594 212.257813 L 193.984375 212.242188 L 194.195313 212.234375 L 194.410156 212.226563 L 194.835938 212.207031 L 195.046875 212.199219 L 195.257813 212.1875 L 195.683594 212.167969 L 195.792969 212.160156 L 195.898438 212.15625 L 196.109375 212.144531 L 196.535156 212.117188 L 197.386719 212.058594 L 197.503906 212.050781 L 197.617188 212.042969 L 197.847656 212.027344 L 198.308594 211.988281 L 198.425781 211.980469 L 198.539063 211.96875 L 198.769531 211.949219 L 199.230469 211.90625 L 199.347656 211.894531 L 199.460938 211.882813 L 200.152344 211.8125 L 201.078125 211.703125 L 201.191406 211.6875 L 201.308594 211.675781 L 202 211.582031 L 202.921875 211.445313 L 203.035156 211.425781 L 203.152344 211.40625 L 203.382813 211.371094 L 203.84375 211.292969 L 204.765625 211.121094 L 204.992188 211.074219 L 205.21875 211.03125 L 205.671875 210.933594 L 206.578125 210.730469 L 207.03125 210.621094 L 207.480469 210.507813 L 208.386719 210.261719 L 208.5 210.230469 L 208.613281 210.195313 L 208.839844 210.128906 L 209.292969 209.992188 L 210.199219 209.703125 L 212.007813 209.050781 L 212.113281 209.011719 L 212.21875 208.96875 L 212.433594 208.886719 L 212.855469 208.714844 L 213.699219 208.351563 L 213.910156 208.257813 L 214.542969 207.964844 L 215.386719 207.554688 L 215.492188 207.5 L 215.597656 207.449219 L 215.808594 207.339844 L 216.230469 207.117188 L 217.078125 206.65625 L 218.765625 205.652344 L 218.878906 205.582031 L 218.996094 205.507813 L 219.222656 205.363281 L 219.683594 205.0625 L 220.597656 204.441406 L 222.429688 203.089844 L 222.542969 203.003906 L 222.660156 202.914063 L 222.886719 202.730469 L 223.34375 202.363281 L 224.261719 201.601563 L 226.09375 199.96875 L 226.199219 199.871094 L 226.308594 199.769531 L 226.519531 199.566406 L 226.949219 199.15625 L 227.804688 198.3125 L 229.511719 196.53125 L 232.933594 192.570313 L 233.039063 192.441406 L 233.140625 192.3125 L 233.351563 192.050781 L 233.769531 191.519531 L 234.609375 190.441406 L 236.285156 188.1875 L 239.636719 183.324219 L 239.75 183.148438 L 239.867188 182.976563 L 240.546875 181.921875 L 241.457031 180.488281 L 243.277344 177.523438 L 246.914063 171.222656 L 253.703125 158.324219 L 261.0625 143.085938 L 267.933594 128.21875 L 274.667969 113.558594 L 281.976563 98.089844 L 288.796875 84.484375 L 296.1875 70.988281 L 303.445313 59.234375 L 310.210938 49.699219 L 310.328125 49.550781 L 310.441406 49.398438 L 310.671875 49.101563 L 311.128906 48.511719 L 312.046875 47.351563 L 313.882813 45.109375 L 317.550781 40.917969 L 317.660156 40.804688 L 317.765625 40.6875 L 317.980469 40.457031 L 318.40625 39.996094 L 319.265625 39.097656 L 320.976563 37.355469 L 324.402344 34.117188 L 324.824219 33.742188 L 325.242188 33.371094 L 326.082031 32.644531 L 327.761719 31.242188 L 331.121094 28.648438 L 331.347656 28.484375 L 331.574219 28.316406 L 332.03125 27.992188 L 332.941406 27.351563 L 334.765625 26.132813 L 335.21875 25.835938 L 335.675781 25.546875 L 336.585938 24.980469 L 338.410156 23.902344 L 338.621094 23.777344 L 338.832031 23.660156 L 339.257813 23.417969 L 340.109375 22.953125 L 341.808594 22.058594 L 342.019531 21.949219 L 342.234375 21.84375 L 342.660156 21.632813 L 343.507813 21.21875 L 345.207031 20.425781 L 345.328125 20.375 L 345.445313 20.320313 L 345.683594 20.214844 L 346.15625 20.007813 L 347.105469 19.601563 L 349.003906 18.832031 L 349.121094 18.785156 L 349.242188 18.742188 L 349.480469 18.648438 L 349.953125 18.46875 L 350.902344 18.117188 L 351.019531 18.074219 L 351.140625 18.03125 L 351.375 17.949219 L 351.851563 17.78125 L 351.96875 17.738281 L 352.089844 17.699219 L 352.324219 17.617188 L 352.445313 17.574219 L 352.679688 17.496094 L 352.800781 17.453125 "/>
</g>
</g>
</svg>
