<?xml version="1.0" encoding="UTF-8"?>
<svg xmlns="http://www.w3.org/2000/svg" xmlns:xlink="http://www.w3.org/1999/xlink" width="360pt" height="223pt" viewBox="0 0 360 223" version="1.1">
<defs>
<clipPath id="clip1">
  <path d="M 0 0 L 360 0 L 360 222.480469 L 0 222.480469 Z M 0 0 "/>
</clipPath>
</defs>
<g id="surface1">
<g clip-path="url(#clip1)" clip-rule="nonzero">
<path style="fill:none;stroke-width:3;stroke-linecap:square;stroke-linejoin:miter;stroke:rgb(0%,0%,99.998474%);stroke-opacity:1;stroke-miterlimit:3.25;" d="M 7.199219 10.113281 L 19.15625 10.113281 L 19.269531 10.117188 L 20.074219 10.117188 L 20.1875 10.121094 L 20.417969 10.121094 L 20.535156 10.125 L 20.761719 10.125 L 20.878906 10.128906 L 20.992188 10.128906 L 21.109375 10.132813 L 21.222656 10.136719 L 21.339844 10.136719 L 21.550781 10.144531 L 21.660156 10.148438 L 21.765625 10.152344 L 21.875 10.160156 L 21.980469 10.164063 L 22.089844 10.171875 L 22.195313 10.179688 L 22.304688 10.1875 L 22.410156 10.195313 L 22.519531 10.203125 L 22.625 10.214844 L 22.734375 10.226563 L 22.839844 10.238281 L 22.949219 10.253906 L 23.054688 10.269531 L 23.160156 10.289063 L 23.269531 10.308594 L 23.375 10.332031 L 23.484375 10.355469 L 23.589844 10.382813 L 23.699219 10.410156 L 23.804688 10.441406 L 23.914063 10.476563 L 24.019531 10.515625 L 24.128906 10.558594 L 24.234375 10.609375 L 24.34375 10.660156 L 24.449219 10.714844 L 24.558594 10.777344 L 24.664063 10.847656 L 24.769531 10.921875 L 24.878906 11 L 24.984375 11.089844 L 25.09375 11.1875 L 25.199219 11.292969 L 25.308594 11.40625 L 25.414063 11.53125 L 25.628906 11.816406 L 25.738281 11.976563 L 25.84375 12.148438 L 25.953125 12.335938 L 26.058594 12.539063 L 26.167969 12.757813 L 26.273438 12.996094 L 26.488281 13.53125 L 26.59375 13.828125 L 26.703125 14.148438 L 26.808594 14.492188 L 26.917969 14.863281 L 27.023438 15.261719 L 27.132813 15.691406 L 27.347656 16.640625 L 27.453125 17.164063 L 27.5625 17.726563 L 27.667969 18.324219 L 27.777344 18.964844 L 27.882813 19.644531 L 27.992188 20.371094 L 28.203125 21.964844 L 28.308594 22.816406 L 28.414063 23.722656 L 28.625 25.691406 L 28.730469 26.761719 L 28.835938 27.890625 L 29.046875 30.332031 L 29.152344 31.648438 L 29.257813 33.035156 L 29.46875 36.015625 L 29.574219 37.613281 L 29.675781 39.285156 L 29.886719 42.855469 L 29.992188 44.761719 L 30.097656 46.742188 L 30.308594 50.949219 L 30.414063 53.171875 L 30.519531 55.476563 L 30.730469 60.335938 L 30.835938 62.886719 L 30.941406 65.515625 L 31.148438 71.011719 L 31.570313 82.890625 L 31.675781 86.035156 L 31.78125 89.238281 L 31.992188 95.820313 L 32.414063 109.539063 L 33.253906 137.964844 L 33.359375 141.480469 L 33.464844 144.96875 L 33.675781 151.824219 L 34.09375 164.851563 L 34.199219 167.925781 L 34.304688 170.917969 L 34.515625 176.628906 L 34.621094 179.335938 L 34.726563 181.9375 L 34.9375 186.816406 L 35.050781 189.273438 L 35.164063 191.59375 L 35.28125 193.773438 L 35.394531 195.816406 L 35.507813 197.714844 L 35.621094 199.480469 L 35.734375 201.101563 L 35.851563 202.589844 L 35.964844 203.945313 L 36.078125 205.175781 L 36.191406 206.277344 L 36.304688 207.261719 L 36.421875 208.128906 L 36.535156 208.890625 L 36.648438 209.554688 L 36.761719 210.125 L 36.875 210.605469 L 36.992188 211.011719 L 37.105469 211.34375 L 37.21875 211.613281 L 37.332031 211.828125 L 37.449219 211.996094 L 37.5625 212.125 L 37.675781 212.214844 L 37.789063 212.28125 L 37.902344 212.324219 L 38.019531 212.351563 L 38.132813 212.367188 L 38.246094 212.375 L 38.359375 212.378906 L 38.816406 212.378906 L 39.042969 212.371094 L 39.160156 212.359375 L 39.273438 212.339844 L 39.386719 212.304688 L 39.5 212.253906 L 39.617188 212.175781 L 39.730469 212.066406 L 39.84375 211.921875 L 39.957031 211.734375 L 40.070313 211.492188 L 40.1875 211.191406 L 40.300781 210.824219 L 40.414063 210.386719 L 40.527344 209.863281 L 40.640625 209.25 L 40.757813 208.539063 L 40.871094 207.726563 L 40.984375 206.804688 L 41.097656 205.765625 L 41.214844 204.601563 L 41.328125 203.3125 L 41.441406 201.894531 L 41.554688 200.34375 L 41.667969 198.652344 L 41.785156 196.824219 L 41.898438 194.855469 L 42.011719 192.746094 L 42.238281 188.113281 L 42.347656 185.765625 L 42.453125 183.300781 L 42.664063 178.035156 L 43.089844 166.296875 L 43.199219 163.136719 L 43.304688 159.902344 L 43.519531 153.226563 L 43.945313 139.257813 L 44.050781 135.679688 L 44.15625 132.082031 L 44.371094 124.855469 L 44.796875 110.480469 L 45.648438 83.421875 L 45.753906 80.296875 L 45.859375 77.238281 L 46.074219 71.351563 L 46.179688 68.519531 L 46.285156 65.769531 L 46.5 60.511719 L 46.605469 58.007813 L 46.710938 55.585938 L 46.925781 50.992188 L 47.351563 42.804688 L 47.457031 40.960938 L 47.5625 39.195313 L 47.777344 35.894531 L 47.882813 34.355469 L 47.992188 32.890625 L 48.203125 30.167969 L 48.308594 28.910156 L 48.417969 27.714844 L 48.628906 25.507813 L 48.734375 24.496094 L 48.84375 23.535156 L 49.054688 21.777344 L 49.171875 20.910156 L 49.285156 20.097656 L 49.402344 19.335938 L 49.515625 18.625 L 49.632813 17.960938 L 49.746094 17.34375 L 49.980469 16.230469 L 50.09375 15.734375 L 50.210938 15.273438 L 50.324219 14.84375 L 50.441406 14.449219 L 50.554688 14.082031 L 50.671875 13.742188 L 50.902344 13.144531 L 51.015625 12.878906 L 51.132813 12.632813 L 51.246094 12.40625 L 51.363281 12.203125 L 51.480469 12.011719 L 51.59375 11.839844 L 51.710938 11.679688 L 51.824219 11.535156 L 51.941406 11.402344 L 52.054688 11.285156 L 52.171875 11.175781 L 52.285156 11.074219 L 52.402344 10.984375 L 52.515625 10.902344 L 52.632813 10.828125 L 52.75 10.761719 L 52.863281 10.703125 L 52.980469 10.648438 L 53.09375 10.601563 L 53.210938 10.5625 L 53.324219 10.523438 L 53.441406 10.492188 L 53.554688 10.464844 L 53.671875 10.441406 L 53.785156 10.421875 L 54.019531 10.398438 L 54.132813 10.390625 L 54.25 10.386719 L 54.480469 10.386719 L 54.59375 10.394531 L 54.710938 10.402344 L 54.824219 10.417969 L 54.941406 10.433594 L 55.054688 10.457031 L 55.289063 10.511719 L 55.402344 10.546875 L 55.519531 10.585938 L 55.632813 10.632813 L 55.75 10.683594 L 55.863281 10.742188 L 55.980469 10.804688 L 56.09375 10.875 L 56.210938 10.953125 L 56.324219 11.039063 L 56.441406 11.136719 L 56.554688 11.242188 L 56.667969 11.355469 L 56.78125 11.480469 L 56.894531 11.617188 L 57.007813 11.765625 L 57.121094 11.929688 L 57.347656 12.300781 L 57.460938 12.511719 L 57.574219 12.742188 L 57.6875 12.992188 L 57.800781 13.261719 L 57.914063 13.554688 L 58.027344 13.871094 L 58.253906 14.582031 L 58.367188 14.980469 L 58.480469 15.414063 L 58.59375 15.875 L 58.707031 16.375 L 58.820313 16.910156 L 58.933594 17.484375 L 59.160156 18.761719 L 59.273438 19.46875 L 59.386719 20.226563 L 59.5 21.03125 L 59.613281 21.890625 L 59.726563 22.808594 L 59.839844 23.785156 L 60.066406 25.921875 L 60.179688 27.089844 L 60.292969 28.328125 L 60.519531 31.023438 L 60.632813 32.484375 L 60.746094 34.023438 L 60.972656 37.347656 L 61.085938 39.140625 L 61.199219 41.019531 L 61.425781 45.046875 L 61.539063 47.195313 L 61.652344 49.441406 L 61.878906 54.210938 L 61.992188 56.738281 L 62.105469 59.359375 L 62.332031 64.886719 L 62.785156 77.023438 L 62.898438 80.269531 L 63.011719 83.597656 L 63.238281 90.472656 L 63.691406 104.972656 L 63.796875 108.464844 L 63.902344 111.992188 L 64.117188 119.113281 L 64.539063 133.449219 L 64.644531 137.015625 L 64.75 140.554688 L 64.960938 147.546875 L 65.382813 160.941406 L 65.488281 164.128906 L 65.59375 167.238281 L 65.804688 173.199219 L 65.914063 176.042969 L 66.019531 178.78125 L 66.230469 183.949219 L 66.335938 186.363281 L 66.441406 188.667969 L 66.546875 190.851563 L 66.652344 192.917969 L 66.757813 194.867188 L 66.863281 196.695313 L 67.074219 199.988281 L 67.179688 201.460938 L 67.285156 202.8125 L 67.390625 204.054688 L 67.496094 205.1875 L 67.601563 206.210938 L 67.707031 207.132813 L 67.816406 207.957031 L 67.921875 208.6875 L 68.027344 209.328125 L 68.132813 209.886719 L 68.238281 210.371094 L 68.34375 210.785156 L 68.449219 211.132813 L 68.554688 211.421875 L 68.660156 211.660156 L 68.765625 211.851563 L 68.871094 212.003906 L 68.976563 212.121094 L 69.082031 212.207031 L 69.1875 212.273438 L 69.292969 212.316406 L 69.398438 212.34375 L 69.503906 212.363281 L 69.609375 212.371094 L 69.71875 212.375 L 69.824219 212.378906 L 70.246094 212.378906 L 70.457031 212.371094 L 70.570313 212.363281 L 70.6875 212.339844 L 70.800781 212.308594 L 70.914063 212.253906 L 71.03125 212.179688 L 71.144531 212.070313 L 71.257813 211.925781 L 71.375 211.738281 L 71.488281 211.496094 L 71.601563 211.195313 L 71.71875 210.828125 L 71.832031 210.386719 L 71.945313 209.863281 L 72.0625 209.246094 L 72.175781 208.53125 L 72.289063 207.714844 L 72.40625 206.785156 L 72.519531 205.738281 L 72.632813 204.570313 L 72.75 203.269531 L 72.863281 201.839844 L 72.976563 200.277344 L 73.207031 196.730469 L 73.320313 194.746094 L 73.4375 192.621094 L 73.664063 187.949219 L 73.78125 185.40625 L 73.894531 182.734375 L 74.125 177 L 74.238281 173.953125 L 74.351563 170.789063 L 74.582031 164.15625 L 75.039063 149.851563 L 75.957031 119.097656 L 76.074219 115.226563 L 76.1875 111.378906 L 76.417969 103.785156 L 76.875 89.199219 L 76.988281 85.710938 L 77.105469 82.296875 L 77.332031 75.714844 L 77.792969 63.59375 L 77.898438 60.976563 L 78.003906 58.445313 L 78.21875 53.636719 L 78.328125 51.355469 L 78.433594 49.160156 L 78.648438 45.023438 L 78.753906 43.078125 L 78.859375 41.210938 L 79.074219 37.722656 L 79.183594 36.09375 L 79.289063 34.539063 L 79.503906 31.648438 L 79.609375 30.308594 L 79.71875 29.035156 L 79.929688 26.683594 L 80.039063 25.601563 L 80.144531 24.578125 L 80.359375 22.695313 L 80.464844 21.835938 L 80.574219 21.023438 L 80.679688 20.261719 L 80.785156 19.546875 L 80.894531 18.871094 L 81 18.238281 L 81.214844 17.09375 L 81.320313 16.574219 L 81.429688 16.089844 L 81.535156 15.636719 L 81.644531 15.214844 L 81.75 14.820313 L 81.855469 14.453125 L 82.070313 13.796875 L 82.179688 13.5 L 82.285156 13.226563 L 82.390625 12.976563 L 82.5 12.742188 L 82.605469 12.523438 L 82.710938 12.324219 L 82.925781 11.964844 L 83.035156 11.808594 L 83.140625 11.664063 L 83.246094 11.53125 L 83.355469 11.410156 L 83.460938 11.296875 L 83.570313 11.191406 L 83.675781 11.097656 L 83.78125 11.011719 L 83.890625 10.933594 L 83.996094 10.863281 L 84.105469 10.796875 L 84.210938 10.738281 L 84.316406 10.6875 L 84.425781 10.640625 L 84.53125 10.597656 L 84.636719 10.558594 L 84.742188 10.523438 L 84.953125 10.46875 L 85.164063 10.429688 L 85.269531 10.414063 L 85.371094 10.402344 L 85.582031 10.386719 L 85.898438 10.386719 L 86.003906 10.394531 L 86.105469 10.402344 L 86.210938 10.414063 L 86.421875 10.445313 L 86.632813 10.492188 L 86.734375 10.523438 L 86.839844 10.554688 L 86.945313 10.589844 L 87.050781 10.632813 L 87.15625 10.679688 L 87.261719 10.730469 L 87.367188 10.785156 L 87.46875 10.847656 L 87.574219 10.917969 L 87.679688 10.992188 L 87.785156 11.074219 L 87.890625 11.164063 L 87.996094 11.261719 L 88.101563 11.367188 L 88.203125 11.484375 L 88.308594 11.613281 L 88.414063 11.75 L 88.519531 11.898438 L 88.625 12.0625 L 88.832031 12.425781 L 88.9375 12.628906 L 89.042969 12.851563 L 89.148438 13.089844 L 89.253906 13.347656 L 89.359375 13.625 L 89.464844 13.921875 L 89.671875 14.585938 L 89.777344 14.953125 L 89.882813 15.347656 L 89.988281 15.773438 L 90.09375 16.226563 L 90.199219 16.710938 L 90.300781 17.226563 L 90.511719 18.367188 L 90.617188 18.996094 L 90.722656 19.664063 L 90.828125 20.371094 L 90.929688 21.125 L 91.035156 21.925781 L 91.140625 22.777344 L 91.351563 24.628906 L 91.464844 25.722656 L 91.578125 26.882813 L 91.804688 29.417969 L 91.921875 30.792969 L 92.035156 32.246094 L 92.261719 35.398438 L 92.375 37.097656 L 92.488281 38.886719 L 92.714844 42.722656 L 92.832031 44.78125 L 92.945313 46.929688 L 93.171875 51.507813 L 93.285156 53.941406 L 93.398438 56.472656 L 93.628906 61.8125 L 94.082031 73.613281 L 94.195313 76.785156 L 94.308594 80.042969 L 94.539063 86.792969 L 94.992188 101.109375 L 95.105469 104.828125 L 95.21875 108.589844 L 95.449219 116.214844 L 95.902344 131.644531 L 96.015625 135.492188 L 96.128906 139.316406 L 96.359375 146.863281 L 96.8125 161.296875 L 96.925781 164.714844 L 97.042969 168.042969 L 97.269531 174.394531 L 97.382813 177.40625 L 97.496094 180.300781 L 97.722656 185.707031 L 97.835938 188.21875 L 97.953125 190.589844 L 98.066406 192.828125 L 98.179688 194.925781 L 98.292969 196.882813 L 98.40625 198.703125 L 98.632813 201.929688 L 98.742188 203.253906 L 98.847656 204.460938 L 98.953125 205.558594 L 99.058594 206.550781 L 99.164063 207.441406 L 99.269531 208.234375 L 99.378906 208.933594 L 99.484375 209.546875 L 99.589844 210.082031 L 99.695313 210.539063 L 99.800781 210.929688 L 99.910156 211.253906 L 100.015625 211.523438 L 100.121094 211.742188 L 100.226563 211.917969 L 100.332031 212.054688 L 100.4375 212.160156 L 100.546875 212.238281 L 100.652344 212.292969 L 100.757813 212.328125 L 100.863281 212.351563 L 100.96875 212.367188 L 101.078125 212.375 L 101.183594 212.378906 L 101.714844 212.378906 L 101.820313 212.375 L 101.925781 212.367188 L 102.03125 212.355469 L 102.136719 212.332031 L 102.246094 212.296875 L 102.351563 212.246094 L 102.457031 212.171875 L 102.5625 212.070313 L 102.667969 211.9375 L 102.777344 211.765625 L 102.882813 211.554688 L 102.988281 211.289063 L 103.09375 210.96875 L 103.199219 210.589844 L 103.304688 210.140625 L 103.414063 209.617188 L 103.519531 209.011719 L 103.625 208.320313 L 103.730469 207.539063 L 103.835938 206.664063 L 103.945313 205.683594 L 104.050781 204.597656 L 104.15625 203.402344 L 104.261719 202.09375 L 104.367188 200.671875 L 104.582031 197.464844 L 104.6875 195.683594 L 104.792969 193.78125 L 105.003906 189.609375 L 105.113281 187.347656 L 105.21875 184.964844 L 105.429688 179.867188 L 105.546875 176.921875 L 105.660156 173.855469 L 105.890625 167.390625 L 106.351563 153.328125 L 107.273438 122.625 L 107.386719 118.726563 L 107.5 114.839844 L 107.730469 107.152344 L 108.191406 92.304688 L 108.308594 88.742188 L 108.421875 85.246094 L 108.652344 78.492188 L 109.113281 66.015625 L 109.226563 63.125 L 109.34375 60.332031 L 109.574219 55.03125 L 109.6875 52.53125 L 109.804688 50.125 L 110.035156 45.609375 L 110.148438 43.492188 L 110.265625 41.472656 L 110.496094 37.703125 L 110.609375 35.957031 L 110.726563 34.292969 L 110.953125 31.21875 L 111.070313 29.804688 L 111.183594 28.464844 L 111.300781 27.203125 L 111.414063 26.007813 L 111.53125 24.886719 L 111.644531 23.828125 L 111.875 21.902344 L 111.992188 21.027344 L 112.105469 20.210938 L 112.222656 19.441406 L 112.335938 18.726563 L 112.453125 18.058594 L 112.566406 17.433594 L 112.796875 16.316406 L 112.910156 15.820313 L 113.023438 15.363281 L 113.136719 14.9375 L 113.25 14.542969 L 113.363281 14.175781 L 113.472656 13.835938 L 113.699219 13.234375 L 113.8125 12.96875 L 113.925781 12.71875 L 114.039063 12.492188 L 114.152344 12.285156 L 114.265625 12.09375 L 114.378906 11.914063 L 114.492188 11.753906 L 114.605469 11.605469 L 114.71875 11.46875 L 114.832031 11.347656 L 114.945313 11.234375 L 115.054688 11.128906 L 115.167969 11.039063 L 115.28125 10.953125 L 115.394531 10.875 L 115.507813 10.804688 L 115.621094 10.742188 L 115.734375 10.6875 L 115.847656 10.636719 L 116.074219 10.550781 L 116.300781 10.488281 L 116.414063 10.460938 L 116.523438 10.441406 L 116.636719 10.421875 L 116.75 10.40625 L 116.863281 10.394531 L 117.089844 10.386719 L 117.316406 10.386719 L 117.542969 10.402344 L 117.769531 10.433594 L 117.882813 10.453125 L 117.996094 10.480469 L 118.105469 10.507813 L 118.332031 10.578125 L 118.445313 10.621094 L 118.558594 10.671875 L 118.671875 10.726563 L 118.785156 10.785156 L 118.898438 10.855469 L 119.011719 10.929688 L 119.125 11.011719 L 119.238281 11.101563 L 119.351563 11.203125 L 119.464844 11.3125 L 119.578125 11.433594 L 119.6875 11.5625 L 119.800781 11.707031 L 119.914063 11.867188 L 120.027344 12.039063 L 120.132813 12.210938 L 120.238281 12.402344 L 120.34375 12.605469 L 120.449219 12.824219 L 120.554688 13.0625 L 120.660156 13.320313 L 120.871094 13.890625 L 120.976563 14.210938 L 121.082031 14.554688 L 121.1875 14.921875 L 121.292969 15.316406 L 121.398438 15.738281 L 121.503906 16.191406 L 121.714844 17.195313 L 121.820313 17.75 L 121.925781 18.335938 L 122.03125 18.964844 L 122.136719 19.636719 L 122.242188 20.347656 L 122.347656 21.101563 L 122.558594 22.757813 L 122.664063 23.660156 L 122.769531 24.617188 L 122.980469 26.695313 L 123.085938 27.820313 L 123.191406 29.007813 L 123.402344 31.578125 L 123.503906 32.960938 L 123.609375 34.414063 L 123.820313 37.535156 L 123.925781 39.207031 L 124.03125 40.957031 L 124.242188 44.683594 L 124.347656 46.664063 L 124.453125 48.730469 L 124.664063 53.097656 L 125.085938 62.820313 L 125.191406 65.453125 L 125.296875 68.164063 L 125.507813 73.820313 L 125.929688 86 L 126.773438 113.070313 L 126.886719 116.914063 L 127 120.78125 L 127.230469 128.542969 L 127.6875 143.914063 L 127.800781 147.671875 L 127.914063 151.382813 L 128.144531 158.605469 L 128.601563 172.058594 L 128.714844 175.167969 L 128.828125 178.160156 L 129.058594 183.78125 L 129.171875 186.398438 L 129.285156 188.882813 L 129.515625 193.433594 L 129.628906 195.5 L 129.746094 197.429688 L 129.859375 199.214844 L 129.972656 200.863281 L 130.085938 202.375 L 130.203125 203.753906 L 130.316406 205 L 130.429688 206.121094 L 130.542969 207.125 L 130.660156 208.011719 L 130.773438 208.789063 L 130.886719 209.46875 L 131 210.050781 L 131.117188 210.546875 L 131.230469 210.960938 L 131.34375 211.304688 L 131.457031 211.582031 L 131.574219 211.804688 L 131.6875 211.976563 L 131.800781 212.109375 L 131.914063 212.207031 L 132.03125 212.273438 L 132.144531 212.320313 L 132.257813 212.347656 L 132.375 212.367188 L 132.488281 212.375 L 132.601563 212.378906 L 133.171875 212.378906 L 133.289063 212.371094 L 133.402344 212.363281 L 133.515625 212.34375 L 133.628906 212.308594 L 133.746094 212.257813 L 133.859375 212.183594 L 133.972656 212.078125 L 134.085938 211.9375 L 134.195313 211.765625 L 134.300781 211.550781 L 134.40625 211.285156 L 134.515625 210.964844 L 134.621094 210.578125 L 134.726563 210.125 L 134.835938 209.597656 L 134.941406 208.988281 L 135.046875 208.289063 L 135.15625 207.5 L 135.261719 206.613281 L 135.367188 205.625 L 135.472656 204.527344 L 135.582031 203.320313 L 135.6875 201.996094 L 135.792969 200.558594 L 135.902344 199 L 136.007813 197.320313 L 136.113281 195.519531 L 136.222656 193.59375 L 136.328125 191.546875 L 136.433594 189.382813 L 136.648438 184.691406 L 136.753906 182.171875 L 136.859375 179.539063 L 137.074219 173.960938 L 137.5 161.671875 L 137.609375 158.398438 L 137.714844 155.058594 L 137.929688 148.199219 L 138.355469 133.992188 L 139.207031 105.238281 L 139.316406 101.746094 L 139.421875 98.296875 L 139.636719 91.546875 L 140.0625 78.761719 L 140.167969 75.738281 L 140.273438 72.789063 L 140.488281 67.121094 L 140.914063 56.757813 L 141.03125 54.175781 L 141.144531 51.699219 L 141.378906 47.03125 L 141.492188 44.847656 L 141.609375 42.753906 L 141.839844 38.855469 L 141.957031 37.042969 L 142.070313 35.320313 L 142.300781 32.128906 L 142.417969 30.660156 L 142.535156 29.269531 L 142.765625 26.714844 L 142.878906 25.542969 L 142.996094 24.445313 L 143.113281 23.410156 L 143.226563 22.4375 L 143.34375 21.523438 L 143.457031 20.671875 L 143.691406 19.125 L 143.804688 18.425781 L 143.921875 17.777344 L 144.035156 17.167969 L 144.152344 16.605469 L 144.265625 16.082031 L 144.382813 15.59375 L 144.613281 14.722656 L 144.730469 14.335938 L 144.84375 13.976563 L 144.960938 13.644531 L 145.078125 13.339844 L 145.191406 13.058594 L 145.308594 12.796875 L 145.539063 12.339844 L 145.65625 12.140625 L 145.769531 11.957031 L 145.886719 11.785156 L 146 11.632813 L 146.117188 11.492188 L 146.234375 11.363281 L 146.347656 11.246094 L 146.464844 11.140625 L 146.578125 11.042969 L 146.695313 10.957031 L 146.8125 10.878906 L 146.925781 10.804688 L 147.042969 10.742188 L 147.15625 10.683594 L 147.273438 10.632813 L 147.386719 10.589844 L 147.503906 10.546875 L 147.621094 10.511719 L 147.734375 10.484375 L 147.851563 10.457031 L 147.964844 10.4375 L 148.082031 10.417969 L 148.199219 10.402344 L 148.425781 10.386719 L 148.652344 10.386719 L 148.878906 10.394531 L 148.996094 10.40625 L 149.109375 10.421875 L 149.335938 10.460938 L 149.449219 10.488281 L 149.5625 10.519531 L 149.675781 10.554688 L 149.789063 10.59375 L 149.902344 10.636719 L 150.015625 10.6875 L 150.128906 10.746094 L 150.242188 10.808594 L 150.355469 10.878906 L 150.46875 10.957031 L 150.582031 11.042969 L 150.695313 11.136719 L 150.808594 11.242188 L 150.921875 11.355469 L 151.039063 11.480469 L 151.152344 11.617188 L 151.265625 11.769531 L 151.378906 11.933594 L 151.492188 12.109375 L 151.605469 12.304688 L 151.71875 12.515625 L 151.945313 12.996094 L 152.058594 13.269531 L 152.171875 13.5625 L 152.285156 13.878906 L 152.398438 14.222656 L 152.511719 14.59375 L 152.625 14.996094 L 152.851563 15.894531 L 152.964844 16.394531 L 153.078125 16.933594 L 153.195313 17.511719 L 153.308594 18.128906 L 153.421875 18.792969 L 153.535156 19.503906 L 153.761719 21.074219 L 153.875 21.941406 L 153.988281 22.863281 L 154.101563 23.84375 L 154.214844 24.886719 L 154.328125 25.992188 L 154.441406 27.167969 L 154.667969 29.726563 L 154.78125 31.117188 L 154.894531 32.585938 L 155.121094 35.765625 L 155.238281 37.476563 L 155.351563 39.277344 L 155.578125 43.144531 L 155.683594 45.074219 L 155.789063 47.082031 L 156 51.34375 L 156.105469 53.597656 L 156.210938 55.933594 L 156.425781 60.855469 L 156.53125 63.4375 L 156.636719 66.105469 L 156.847656 71.671875 L 157.269531 83.699219 L 157.375 86.878906 L 157.484375 90.121094 L 157.695313 96.773438 L 158.117188 110.628906 L 158.964844 139.246094 L 159.070313 142.777344 L 159.175781 146.273438 L 159.386719 153.136719 L 159.496094 156.488281 L 159.601563 159.777344 L 159.8125 166.140625 L 159.917969 169.199219 L 160.023438 172.175781 L 160.234375 177.835938 L 160.339844 180.515625 L 160.445313 183.085938 L 160.660156 187.890625 L 160.765625 190.121094 L 160.871094 192.234375 L 160.976563 194.222656 L 161.082031 196.09375 L 161.1875 197.84375 L 161.292969 199.476563 L 161.507813 202.382813 L 161.613281 203.664063 L 161.71875 204.832031 L 161.824219 205.890625 L 161.929688 206.847656 L 162.035156 207.703125 L 162.140625 208.464844 L 162.246094 209.136719 L 162.351563 209.722656 L 162.46875 210.269531 L 162.582031 210.730469 L 162.699219 211.117188 L 162.8125 211.433594 L 162.925781 211.6875 L 163.042969 211.886719 L 163.15625 212.042969 L 163.269531 212.15625 L 163.386719 212.242188 L 163.5 212.296875 L 163.617188 212.335938 L 163.730469 212.359375 L 163.84375 212.371094 L 163.960938 212.375 L 164.074219 212.378906 L 164.535156 212.378906 L 164.648438 212.375 L 164.761719 212.367188 L 164.878906 212.355469 L 164.992188 212.328125 L 165.109375 212.285156 L 165.222656 212.222656 L 165.335938 212.132813 L 165.453125 212.007813 L 165.566406 211.84375 L 165.683594 211.632813 L 165.796875 211.363281 L 165.910156 211.03125 L 166.027344 210.628906 L 166.140625 210.148438 L 166.257813 209.578125 L 166.371094 208.914063 L 166.484375 208.152344 L 166.601563 207.28125 L 166.714844 206.292969 L 166.828125 205.183594 L 166.945313 203.949219 L 167.058594 202.585938 L 167.175781 201.089844 L 167.289063 199.453125 L 167.402344 197.679688 L 167.519531 195.761719 L 167.632813 193.703125 L 167.863281 189.164063 L 167.976563 186.6875 L 168.09375 184.074219 L 168.320313 178.453125 L 168.78125 165.800781 L 168.894531 162.378906 L 169.011719 158.871094 L 169.242188 151.621094 L 169.699219 136.460938 L 169.808594 132.84375 L 169.914063 129.210938 L 170.128906 121.933594 L 170.558594 107.527344 L 170.664063 103.992188 L 170.773438 100.5 L 170.984375 93.652344 L 171.414063 80.648438 L 171.523438 77.566406 L 171.628906 74.558594 L 171.84375 68.769531 L 171.949219 65.992188 L 172.058594 63.300781 L 172.273438 58.164063 L 172.378906 55.71875 L 172.488281 53.363281 L 172.699219 48.902344 L 173.128906 40.980469 L 173.238281 39.203125 L 173.34375 37.503906 L 173.558594 34.332031 L 173.664063 32.859375 L 173.773438 31.457031 L 173.988281 28.859375 L 174.09375 27.660156 L 174.203125 26.523438 L 174.414063 24.429688 L 174.523438 23.46875 L 174.628906 22.5625 L 174.84375 20.902344 L 174.953125 20.144531 L 175.058594 19.433594 L 175.164063 18.765625 L 175.273438 18.140625 L 175.378906 17.554688 L 175.488281 17.003906 L 175.703125 16.011719 L 175.808594 15.5625 L 175.917969 15.144531 L 176.023438 14.753906 L 176.128906 14.390625 L 176.238281 14.054688 L 176.34375 13.742188 L 176.558594 13.179688 L 176.664063 12.933594 L 176.769531 12.707031 L 176.875 12.496094 L 176.980469 12.300781 L 177.085938 12.121094 L 177.191406 11.953125 L 177.398438 11.660156 L 177.503906 11.527344 L 177.609375 11.40625 L 177.714844 11.296875 L 177.820313 11.195313 L 177.925781 11.101563 L 178.03125 11.019531 L 178.136719 10.941406 L 178.242188 10.871094 L 178.34375 10.804688 L 178.449219 10.746094 L 178.554688 10.695313 L 178.660156 10.648438 L 178.765625 10.605469 L 178.871094 10.566406 L 178.976563 10.53125 L 179.082031 10.5 L 179.292969 10.453125 L 179.394531 10.433594 L 179.5 10.417969 L 179.710938 10.394531 L 180.027344 10.382813 L 180.238281 10.390625 L 180.34375 10.398438 L 180.445313 10.410156 L 180.65625 10.441406 L 180.867188 10.488281 L 180.972656 10.515625 L 181.078125 10.546875 L 181.289063 10.625 L 181.390625 10.671875 L 181.496094 10.71875 L 181.707031 10.835938 L 181.8125 10.90625 L 181.917969 10.980469 L 182.023438 11.058594 L 182.128906 11.148438 L 182.234375 11.246094 L 182.441406 11.46875 L 182.546875 11.59375 L 182.652344 11.730469 L 182.757813 11.875 L 182.863281 12.035156 L 182.96875 12.210938 L 183.074219 12.398438 L 183.285156 12.820313 L 183.398438 13.078125 L 183.511719 13.355469 L 183.625 13.660156 L 183.738281 13.988281 L 183.855469 14.339844 L 183.96875 14.722656 L 184.195313 15.582031 L 184.308594 16.058594 L 184.421875 16.574219 L 184.539063 17.128906 L 184.652344 17.726563 L 184.765625 18.363281 L 184.878906 19.046875 L 185.109375 20.558594 L 185.222656 21.394531 L 185.335938 22.28125 L 185.449219 23.230469 L 185.5625 24.238281 L 185.675781 25.3125 L 185.792969 26.449219 L 186.019531 28.933594 L 186.132813 30.289063 L 186.246094 31.714844 L 186.476563 34.8125 L 186.589844 36.484375 L 186.703125 38.246094 L 186.929688 42.027344 L 187.046875 44.054688 L 187.160156 46.175781 L 187.386719 50.699219 L 187.5 53.101563 L 187.617188 55.601563 L 187.84375 60.890625 L 187.957031 63.675781 L 188.070313 66.554688 L 188.300781 72.585938 L 188.753906 85.683594 L 188.871094 89.148438 L 188.984375 92.6875 L 189.210938 99.945313 L 189.667969 115.027344 L 190.578125 145.757813 L 190.6875 149.234375 L 190.792969 152.664063 L 191.003906 159.355469 L 191.109375 162.597656 L 191.21875 165.765625 L 191.429688 171.847656 L 191.535156 174.753906 L 191.644531 177.558594 L 191.855469 182.855469 L 191.960938 185.335938 L 192.070313 187.703125 L 192.28125 192.082031 L 192.386719 194.089844 L 192.492188 195.980469 L 192.601563 197.746094 L 192.707031 199.390625 L 192.8125 200.914063 L 192.917969 202.324219 L 193.027344 203.613281 L 193.132813 204.792969 L 193.238281 205.859375 L 193.34375 206.824219 L 193.453125 207.6875 L 193.558594 208.453125 L 193.664063 209.128906 L 193.769531 209.71875 L 193.875 210.226563 L 193.984375 210.664063 L 194.089844 211.035156 L 194.195313 211.34375 L 194.300781 211.597656 L 194.410156 211.804688 L 194.515625 211.964844 L 194.621094 212.09375 L 194.726563 212.1875 L 194.835938 212.257813 L 194.941406 212.304688 L 195.046875 212.339844 L 195.152344 212.359375 L 195.257813 212.371094 L 195.367188 212.375 L 195.472656 212.378906 L 196.003906 212.378906 L 196.109375 212.375 L 196.21875 212.363281 L 196.324219 212.347656 L 196.429688 212.324219 L 196.535156 212.28125 L 196.640625 212.222656 L 196.75 212.140625 L 196.855469 212.027344 L 196.960938 211.882813 L 197.066406 211.695313 L 197.175781 211.464844 L 197.28125 211.179688 L 197.386719 210.839844 L 197.503906 210.394531 L 197.617188 209.871094 L 197.734375 209.25 L 197.847656 208.535156 L 197.964844 207.710938 L 198.078125 206.777344 L 198.195313 205.722656 L 198.308594 204.542969 L 198.425781 203.234375 L 198.539063 201.789063 L 198.65625 200.210938 L 198.769531 198.492188 L 198.886719 196.628906 L 199 194.625 L 199.230469 190.191406 L 199.347656 187.761719 L 199.460938 185.195313 L 199.691406 179.660156 L 200.152344 167.128906 L 200.269531 163.730469 L 200.382813 160.242188 L 200.617188 153.019531 L 201.078125 137.859375 L 201.191406 133.972656 L 201.308594 130.070313 L 201.539063 122.242188 L 202 106.753906 L 202.113281 102.964844 L 202.230469 99.21875 L 202.460938 91.902344 L 202.921875 78.105469 L 203.035156 74.855469 L 203.152344 71.695313 L 203.382813 65.648438 L 203.496094 62.765625 L 203.613281 59.980469 L 203.84375 54.699219 L 203.957031 52.207031 L 204.074219 49.808594 L 204.304688 45.3125 L 204.417969 43.203125 L 204.535156 41.191406 L 204.765625 37.445313 L 204.878906 35.738281 L 204.992188 34.113281 L 205.21875 31.105469 L 205.332031 29.71875 L 205.445313 28.40625 L 205.671875 25.996094 L 205.785156 24.890625 L 205.898438 23.851563 L 206.011719 22.871094 L 206.125 21.953125 L 206.238281 21.089844 L 206.351563 20.28125 L 206.578125 18.8125 L 206.691406 18.148438 L 206.804688 17.53125 L 206.917969 16.953125 L 207.03125 16.414063 L 207.140625 15.914063 L 207.253906 15.449219 L 207.480469 14.613281 L 207.59375 14.242188 L 207.707031 13.898438 L 207.820313 13.578125 L 207.933594 13.285156 L 208.046875 13.011719 L 208.160156 12.761719 L 208.386719 12.320313 L 208.5 12.125 L 208.613281 11.945313 L 208.726563 11.78125 L 208.839844 11.628906 L 208.953125 11.492188 L 209.066406 11.367188 L 209.179688 11.25 L 209.292969 11.144531 L 209.40625 11.050781 L 209.519531 10.964844 L 209.632813 10.886719 L 209.746094 10.816406 L 209.859375 10.753906 L 209.972656 10.695313 L 210.085938 10.644531 L 210.199219 10.597656 L 210.3125 10.558594 L 210.425781 10.523438 L 210.539063 10.492188 L 210.652344 10.464844 L 210.765625 10.441406 L 210.878906 10.421875 L 211.105469 10.398438 L 211.21875 10.390625 L 211.445313 10.382813 L 211.558594 10.386719 L 211.671875 10.394531 L 211.78125 10.402344 L 211.894531 10.414063 L 212.007813 10.433594 L 212.113281 10.449219 L 212.21875 10.472656 L 212.328125 10.5 L 212.433594 10.527344 L 212.539063 10.5625 L 212.644531 10.601563 L 212.75 10.644531 L 212.855469 10.691406 L 212.960938 10.742188 L 213.066406 10.800781 L 213.171875 10.867188 L 213.277344 10.9375 L 213.382813 11.011719 L 213.488281 11.097656 L 213.59375 11.191406 L 213.699219 11.292969 L 213.804688 11.402344 L 213.910156 11.523438 L 214.015625 11.65625 L 214.121094 11.796875 L 214.226563 11.949219 L 214.332031 12.117188 L 214.542969 12.496094 L 214.648438 12.707031 L 214.753906 12.933594 L 214.859375 13.183594 L 214.964844 13.449219 L 215.070313 13.734375 L 215.175781 14.042969 L 215.386719 14.730469 L 215.492188 15.109375 L 215.597656 15.519531 L 215.703125 15.957031 L 215.808594 16.429688 L 215.914063 16.929688 L 216.019531 17.464844 L 216.230469 18.648438 L 216.339844 19.296875 L 216.445313 19.988281 L 216.550781 20.722656 L 216.65625 21.503906 L 216.761719 22.332031 L 216.867188 23.210938 L 217.078125 25.128906 L 217.183594 26.171875 L 217.289063 27.269531 L 217.5 29.652344 L 217.605469 30.941406 L 217.710938 32.296875 L 217.921875 35.210938 L 218.027344 36.777344 L 218.132813 38.417969 L 218.34375 41.925781 L 218.765625 49.882813 L 218.878906 52.265625 L 218.996094 54.742188 L 219.222656 59.988281 L 219.683594 71.621094 L 219.796875 74.757813 L 219.910156 77.980469 L 220.140625 84.671875 L 220.597656 98.921875 L 220.710938 102.636719 L 220.828125 106.394531 L 221.054688 114.03125 L 221.515625 129.539063 L 221.628906 133.417969 L 221.742188 137.277344 L 221.972656 144.910156 L 222.429688 159.5625 L 222.542969 163.042969 L 222.660156 166.4375 L 222.886719 172.929688 L 223.003906 176.011719 L 223.117188 178.980469 L 223.34375 184.535156 L 223.460938 187.121094 L 223.574219 189.570313 L 223.6875 191.878906 L 223.804688 194.050781 L 223.917969 196.078125 L 224.03125 197.96875 L 224.261719 201.324219 L 224.375 202.800781 L 224.492188 204.140625 L 224.605469 205.351563 L 224.71875 206.441406 L 224.832031 207.40625 L 224.949219 208.261719 L 225.0625 209.011719 L 225.175781 209.660156 L 225.292969 210.214844 L 225.40625 210.683594 L 225.519531 211.074219 L 225.636719 211.398438 L 225.75 211.660156 L 225.863281 211.863281 L 225.980469 212.023438 L 226.09375 212.144531 L 226.199219 212.226563 L 226.308594 212.285156 L 226.414063 212.324219 L 226.519531 212.351563 L 226.628906 212.367188 L 226.734375 212.375 L 226.839844 212.378906 L 227.375 212.378906 L 227.484375 212.375 L 227.589844 212.371094 L 227.695313 212.355469 L 227.804688 212.335938 L 227.910156 212.300781 L 228.015625 212.25 L 228.125 212.175781 L 228.230469 212.074219 L 228.335938 211.945313 L 228.445313 211.773438 L 228.550781 211.558594 L 228.65625 211.296875 L 228.765625 210.976563 L 228.871094 210.59375 L 228.980469 210.140625 L 229.085938 209.613281 L 229.191406 209.007813 L 229.300781 208.3125 L 229.40625 207.523438 L 229.511719 206.636719 L 229.621094 205.648438 L 229.726563 204.550781 L 229.832031 203.34375 L 229.941406 202.019531 L 230.046875 200.582031 L 230.152344 199.023438 L 230.367188 195.535156 L 230.476563 193.609375 L 230.582031 191.5625 L 230.796875 187.101563 L 230.902344 184.691406 L 231.007813 182.167969 L 231.222656 176.789063 L 231.328125 173.945313 L 231.4375 171 L 231.652344 164.835938 L 232.078125 151.589844 L 232.933594 123.019531 L 233.039063 119.46875 L 233.140625 115.925781 L 233.351563 108.90625 L 233.769531 95.269531 L 233.875 91.976563 L 233.980469 88.734375 L 234.191406 82.433594 L 234.609375 70.636719 L 234.714844 67.875 L 234.820313 65.183594 L 235.027344 60.046875 L 235.132813 57.59375 L 235.238281 55.226563 L 235.449219 50.730469 L 235.550781 48.605469 L 235.65625 46.558594 L 235.867188 42.703125 L 235.972656 40.890625 L 236.074219 39.15625 L 236.285156 35.910156 L 236.390625 34.394531 L 236.496094 32.953125 L 236.703125 30.265625 L 236.808594 29.023438 L 236.914063 27.839844 L 237.125 25.65625 L 237.226563 24.648438 L 237.332031 23.699219 L 237.542969 21.949219 L 237.648438 21.148438 L 237.753906 20.394531 L 237.960938 19.015625 L 238.066406 18.386719 L 238.171875 17.796875 L 238.277344 17.246094 L 238.378906 16.726563 L 238.484375 16.242188 L 238.589844 15.789063 L 238.800781 14.96875 L 238.90625 14.597656 L 239.007813 14.253906 L 239.113281 13.933594 L 239.21875 13.636719 L 239.324219 13.359375 L 239.429688 13.101563 L 239.636719 12.640625 L 239.75 12.417969 L 239.867188 12.214844 L 239.980469 12.027344 L 240.09375 11.855469 L 240.207031 11.699219 L 240.320313 11.554688 L 240.433594 11.421875 L 240.546875 11.300781 L 240.660156 11.191406 L 240.773438 11.09375 L 240.886719 11 L 241.003906 10.917969 L 241.117188 10.84375 L 241.230469 10.777344 L 241.34375 10.71875 L 241.457031 10.664063 L 241.570313 10.617188 L 241.683594 10.574219 L 241.796875 10.535156 L 241.910156 10.503906 L 242.023438 10.476563 L 242.140625 10.449219 L 242.253906 10.429688 L 242.367188 10.414063 L 242.59375 10.390625 L 242.820313 10.382813 L 243.046875 10.390625 L 243.160156 10.398438 L 243.277344 10.410156 L 243.390625 10.425781 L 243.503906 10.445313 L 243.617188 10.46875 L 243.730469 10.496094 L 243.84375 10.527344 L 243.957031 10.5625 L 244.070313 10.605469 L 244.183594 10.652344 L 244.300781 10.703125 L 244.414063 10.761719 L 244.527344 10.828125 L 244.640625 10.898438 L 244.753906 10.976563 L 244.867188 11.066406 L 244.980469 11.164063 L 245.09375 11.269531 L 245.207031 11.386719 L 245.320313 11.515625 L 245.4375 11.65625 L 245.550781 11.8125 L 245.664063 11.980469 L 245.777344 12.160156 L 246.003906 12.578125 L 246.117188 12.816406 L 246.230469 13.070313 L 246.34375 13.347656 L 246.457031 13.648438 L 246.574219 13.976563 L 246.6875 14.328125 L 246.914063 15.117188 L 247.019531 15.53125 L 247.125 15.972656 L 247.230469 16.445313 L 247.335938 16.949219 L 247.445313 17.488281 L 247.550781 18.066406 L 247.761719 19.335938 L 247.867188 20.03125 L 247.972656 20.773438 L 248.1875 22.398438 L 248.292969 23.285156 L 248.398438 24.226563 L 248.609375 26.273438 L 248.714844 27.382813 L 248.824219 28.554688 L 249.035156 31.09375 L 249.140625 32.460938 L 249.246094 33.898438 L 249.460938 36.992188 L 249.566406 38.648438 L 249.671875 40.382813 L 249.882813 44.082031 L 250.308594 52.457031 L 250.414063 54.757813 L 250.519531 57.140625 L 250.730469 62.152344 L 251.15625 73.148438 L 251.261719 76.089844 L 251.367188 79.105469 L 251.582031 85.347656 L 252.003906 98.5625 L 252.109375 101.996094 L 252.21875 105.46875 L 252.429688 112.523438 L 252.851563 126.875 L 253.703125 155.007813 L 253.816406 158.605469 L 253.933594 162.128906 L 254.160156 168.898438 L 254.277344 172.132813 L 254.390625 175.257813 L 254.621094 181.152344 L 254.738281 183.910156 L 254.851563 186.535156 L 254.964844 189.027344 L 255.082031 191.378906 L 255.195313 193.589844 L 255.3125 195.65625 L 255.542969 199.371094 L 255.65625 201.015625 L 255.773438 202.519531 L 255.886719 203.894531 L 256 205.136719 L 256.117188 206.25 L 256.230469 207.242188 L 256.347656 208.121094 L 256.460938 208.890625 L 256.578125 209.558594 L 256.691406 210.128906 L 256.804688 210.613281 L 256.921875 211.019531 L 257.035156 211.355469 L 257.152344 211.625 L 257.265625 211.839844 L 257.382813 212.003906 L 257.496094 212.128906 L 257.609375 212.222656 L 257.726563 212.285156 L 257.839844 212.328125 L 257.957031 212.355469 L 258.070313 212.367188 L 258.1875 212.375 L 258.300781 212.378906 L 258.761719 212.378906 L 258.875 212.375 L 258.992188 212.371094 L 259.105469 212.359375 L 259.222656 212.335938 L 259.335938 212.296875 L 259.449219 212.238281 L 259.566406 212.15625 L 259.679688 212.039063 L 259.796875 211.882813 L 259.910156 211.683594 L 260.027344 211.425781 L 260.140625 211.109375 L 260.257813 210.722656 L 260.371094 210.257813 L 260.484375 209.707031 L 260.601563 209.066406 L 260.714844 208.324219 L 260.832031 207.472656 L 260.945313 206.507813 L 261.0625 205.421875 L 261.167969 204.296875 L 261.277344 203.058594 L 261.382813 201.707031 L 261.492188 200.230469 L 261.597656 198.636719 L 261.703125 196.917969 L 261.917969 193.109375 L 262.027344 191.019531 L 262.132813 188.808594 L 262.347656 184.027344 L 262.457031 181.460938 L 262.5625 178.78125 L 262.777344 173.109375 L 262.886719 170.121094 L 262.992188 167.042969 L 263.207031 160.636719 L 263.636719 146.996094 L 264.496094 118.089844 L 264.605469 114.46875 L 264.710938 110.867188 L 264.925781 103.757813 L 265.355469 90.066406 L 265.460938 86.777344 L 265.570313 83.558594 L 265.785156 77.320313 L 266.214844 65.753906 L 266.320313 63.0625 L 266.429688 60.457031 L 266.644531 55.492188 L 266.75 53.140625 L 266.859375 50.871094 L 267.074219 46.589844 L 267.179688 44.570313 L 267.289063 42.636719 L 267.503906 39.011719 L 267.609375 37.320313 L 267.71875 35.703125 L 267.933594 32.695313 L 268.039063 31.324219 L 268.144531 30.019531 L 268.351563 27.609375 L 268.457031 26.492188 L 268.5625 25.4375 L 268.773438 23.492188 L 268.878906 22.601563 L 268.984375 21.757813 L 269.089844 20.964844 L 269.195313 20.21875 L 269.300781 19.515625 L 269.40625 18.855469 L 269.617188 17.652344 L 269.722656 17.105469 L 269.828125 16.59375 L 269.933594 16.113281 L 270.039063 15.667969 L 270.144531 15.25 L 270.25 14.859375 L 270.457031 14.15625 L 270.5625 13.84375 L 270.667969 13.546875 L 270.773438 13.277344 L 270.878906 13.023438 L 270.984375 12.789063 L 271.089844 12.570313 L 271.300781 12.183594 L 271.40625 12.011719 L 271.511719 11.855469 L 271.617188 11.707031 L 271.722656 11.574219 L 271.828125 11.449219 L 271.933594 11.335938 L 272.144531 11.132813 L 272.25 11.046875 L 272.351563 10.964844 L 272.457031 10.894531 L 272.5625 10.828125 L 272.667969 10.765625 L 272.773438 10.710938 L 272.984375 10.617188 L 273.089844 10.578125 L 273.195313 10.542969 L 273.300781 10.511719 L 273.40625 10.484375 L 273.511719 10.460938 L 273.722656 10.421875 L 273.933594 10.398438 L 274.039063 10.390625 L 274.25 10.382813 L 274.351563 10.386719 L 274.457031 10.390625 L 274.667969 10.40625 L 274.785156 10.421875 L 275.011719 10.460938 L 275.125 10.488281 L 275.238281 10.519531 L 275.355469 10.554688 L 275.582031 10.640625 L 275.695313 10.691406 L 275.8125 10.75 L 275.925781 10.816406 L 276.039063 10.886719 L 276.152344 10.964844 L 276.269531 11.050781 L 276.382813 11.148438 L 276.496094 11.253906 L 276.609375 11.371094 L 276.722656 11.496094 L 276.839844 11.636719 L 276.953125 11.789063 L 277.066406 11.957031 L 277.179688 12.140625 L 277.410156 12.554688 L 277.523438 12.789063 L 277.636719 13.042969 L 277.753906 13.320313 L 277.867188 13.621094 L 277.980469 13.945313 L 278.09375 14.296875 L 278.324219 15.085938 L 278.4375 15.527344 L 278.550781 16.003906 L 278.664063 16.515625 L 278.78125 17.066406 L 278.894531 17.65625 L 279.007813 18.292969 L 279.238281 19.699219 L 279.351563 20.476563 L 279.464844 21.304688 L 279.578125 22.191406 L 279.691406 23.136719 L 279.808594 24.140625 L 279.921875 25.207031 L 280.148438 27.542969 L 280.265625 28.816406 L 280.378906 30.164063 L 280.605469 33.09375 L 280.71875 34.679688 L 280.835938 36.347656 L 281.0625 39.945313 L 281.175781 41.875 L 281.292969 43.898438 L 281.519531 48.226563 L 281.976563 58.027344 L 282.082031 60.535156 L 282.191406 63.125 L 282.402344 68.550781 L 282.828125 80.335938 L 282.9375 83.464844 L 283.042969 86.660156 L 283.253906 93.234375 L 283.683594 107.007813 L 283.789063 110.550781 L 283.894531 114.121094 L 284.109375 121.320313 L 284.535156 135.765625 L 284.640625 139.347656 L 284.746094 142.902344 L 284.960938 149.894531 L 285.386719 163.230469 L 285.492188 166.390625 L 285.601563 169.464844 L 285.8125 175.335938 L 285.917969 178.125 L 286.027344 180.8125 L 286.238281 185.847656 L 286.347656 188.195313 L 286.453125 190.421875 L 286.558594 192.53125 L 286.664063 194.515625 L 286.773438 196.378906 L 286.878906 198.121094 L 287.089844 201.246094 L 287.199219 202.628906 L 287.304688 203.894531 L 287.410156 205.050781 L 287.519531 206.09375 L 287.625 207.035156 L 287.730469 207.875 L 287.835938 208.621094 L 287.945313 209.277344 L 288.050781 209.847656 L 288.15625 210.339844 L 288.265625 210.761719 L 288.371094 211.117188 L 288.476563 211.414063 L 288.582031 211.652344 L 288.691406 211.847656 L 288.796875 212 L 288.914063 212.128906 L 289.027344 212.21875 L 289.144531 212.285156 L 289.257813 212.328125 L 289.375 212.355469 L 289.488281 212.367188 L 289.605469 212.375 L 289.71875 212.378906 L 290.183594 212.378906 L 290.296875 212.375 L 290.414063 212.371094 L 290.527344 212.359375 L 290.644531 212.332031 L 290.761719 212.296875 L 290.875 212.234375 L 290.992188 212.148438 L 291.105469 212.03125 L 291.222656 211.871094 L 291.335938 211.667969 L 291.453125 211.40625 L 291.566406 211.082031 L 291.683594 210.6875 L 291.800781 210.214844 L 291.914063 209.652344 L 292.03125 209 L 292.144531 208.242188 L 292.261719 207.375 L 292.375 206.394531 L 292.492188 205.292969 L 292.609375 204.0625 L 292.722656 202.703125 L 292.839844 201.203125 L 292.953125 199.570313 L 293.070313 197.792969 L 293.183594 195.875 L 293.414063 191.605469 L 293.53125 189.257813 L 293.648438 186.769531 L 293.878906 181.386719 L 293.992188 178.496094 L 294.109375 175.484375 L 294.339844 169.113281 L 294.457031 165.769531 L 294.570313 162.324219 L 294.800781 155.183594 L 295.261719 140.117188 L 296.1875 108.9375 L 296.300781 105.183594 L 296.414063 101.476563 L 296.640625 94.210938 L 297.09375 80.445313 L 297.207031 77.1875 L 297.320313 74.019531 L 297.546875 67.933594 L 298 56.859375 L 298.113281 54.328125 L 298.226563 51.890625 L 298.453125 47.296875 L 298.566406 45.136719 L 298.683594 43.074219 L 298.910156 39.21875 L 299.023438 37.421875 L 299.136719 35.710938 L 299.363281 32.542969 L 299.476563 31.078125 L 299.589844 29.691406 L 299.816406 27.136719 L 299.929688 25.964844 L 300.042969 24.859375 L 300.15625 23.820313 L 300.269531 22.84375 L 300.382813 21.921875 L 300.496094 21.058594 L 300.722656 19.492188 L 300.835938 18.785156 L 300.949219 18.121094 L 301.0625 17.503906 L 301.175781 16.925781 L 301.289063 16.390625 L 301.402344 15.890625 L 301.628906 14.992188 L 301.742188 14.59375 L 301.855469 14.222656 L 301.96875 13.878906 L 302.082031 13.5625 L 302.195313 13.265625 L 302.308594 12.996094 L 302.535156 12.515625 L 302.648438 12.304688 L 302.761719 12.109375 L 302.875 11.933594 L 302.988281 11.769531 L 303.101563 11.617188 L 303.214844 11.480469 L 303.328125 11.355469 L 303.445313 11.242188 L 303.550781 11.144531 L 303.65625 11.054688 L 303.761719 10.972656 L 303.972656 10.832031 L 304.183594 10.714844 L 304.289063 10.664063 L 304.394531 10.621094 L 304.605469 10.542969 L 304.710938 10.511719 L 304.816406 10.484375 L 304.925781 10.460938 L 305.136719 10.421875 L 305.347656 10.398438 L 305.453125 10.390625 L 305.664063 10.382813 L 305.875 10.390625 L 306.085938 10.40625 L 306.191406 10.421875 L 306.300781 10.4375 L 306.40625 10.457031 L 306.511719 10.480469 L 306.617188 10.507813 L 306.722656 10.539063 L 306.828125 10.574219 L 306.933594 10.613281 L 307.144531 10.707031 L 307.25 10.761719 L 307.355469 10.824219 L 307.460938 10.890625 L 307.566406 10.960938 L 307.675781 11.042969 L 307.78125 11.128906 L 307.886719 11.226563 L 307.992188 11.332031 L 308.097656 11.445313 L 308.203125 11.570313 L 308.308594 11.703125 L 308.519531 12.011719 L 308.625 12.183594 L 308.730469 12.371094 L 308.835938 12.570313 L 308.941406 12.789063 L 309.046875 13.027344 L 309.15625 13.28125 L 309.367188 13.847656 L 309.472656 14.167969 L 309.578125 14.507813 L 309.683594 14.875 L 309.789063 15.265625 L 309.894531 15.6875 L 310 16.140625 L 310.210938 17.136719 L 310.328125 17.738281 L 310.441406 18.378906 L 310.554688 19.070313 L 310.671875 19.804688 L 310.785156 20.59375 L 310.898438 21.4375 L 311.128906 23.292969 L 311.246094 24.308594 L 311.359375 25.394531 L 311.589844 27.765625 L 311.703125 29.054688 L 311.816406 30.425781 L 312.046875 33.394531 L 312.160156 35.003906 L 312.277344 36.695313 L 312.503906 40.347656 L 312.621094 42.304688 L 312.734375 44.359375 L 312.964844 48.75 L 313.078125 51.085938 L 313.195313 53.519531 L 313.421875 58.683594 L 313.882813 70.152344 L 313.996094 73.25 L 314.109375 76.4375 L 314.339844 83.066406 L 314.800781 97.214844 L 315.714844 127.78125 L 315.832031 131.671875 L 315.945313 135.546875 L 316.175781 143.222656 L 316.632813 158.007813 L 316.75 161.53125 L 316.863281 164.972656 L 317.09375 171.5625 L 317.207031 174.699219 L 317.320313 177.722656 L 317.550781 183.398438 L 317.660156 185.871094 L 317.765625 188.226563 L 317.871094 190.464844 L 317.980469 192.578125 L 318.085938 194.570313 L 318.195313 196.441406 L 318.40625 199.808594 L 318.515625 201.3125 L 318.621094 202.695313 L 318.730469 203.960938 L 318.835938 205.117188 L 318.941406 206.160156 L 319.050781 207.097656 L 319.15625 207.933594 L 319.265625 208.675781 L 319.371094 209.328125 L 319.476563 209.894531 L 319.585938 210.382813 L 319.691406 210.800781 L 319.800781 211.148438 L 319.90625 211.441406 L 320.015625 211.679688 L 320.121094 211.867188 L 320.226563 212.019531 L 320.335938 212.132813 L 320.441406 212.21875 L 320.550781 212.277344 L 320.65625 212.320313 L 320.761719 212.347656 L 320.871094 212.363281 L 320.976563 212.375 L 321.085938 212.378906 L 321.621094 212.378906 L 321.832031 212.371094 L 321.941406 212.359375 L 322.046875 212.335938 L 322.15625 212.304688 L 322.261719 212.253906 L 322.367188 212.183594 L 322.476563 212.085938 L 322.582031 211.957031 L 322.691406 211.789063 L 322.796875 211.578125 L 322.90625 211.320313 L 323.011719 211.003906 L 323.117188 210.625 L 323.226563 210.175781 L 323.332031 209.652344 L 323.441406 209.050781 L 323.546875 208.359375 L 323.652344 207.578125 L 323.761719 206.695313 L 323.867188 205.710938 L 323.976563 204.617188 L 324.082031 203.414063 L 324.1875 202.097656 L 324.402344 199.105469 L 324.507813 197.460938 L 324.613281 195.699219 L 324.824219 191.820313 L 324.929688 189.707031 L 325.03125 187.472656 L 325.242188 182.671875 L 325.347656 180.105469 L 325.453125 177.433594 L 325.664063 171.796875 L 326.082031 159.46875 L 326.1875 156.203125 L 326.292969 152.875 L 326.503906 146.066406 L 326.921875 132.019531 L 327.761719 103.777344 L 327.867188 100.359375 L 327.972656 96.984375 L 328.183594 90.378906 L 328.601563 77.886719 L 328.707031 74.929688 L 328.8125 72.046875 L 329.019531 66.507813 L 329.441406 56.375 L 329.546875 54.042969 L 329.652344 51.789063 L 329.859375 47.53125 L 329.964844 45.523438 L 330.070313 43.59375 L 330.28125 39.96875 L 330.386719 38.269531 L 330.492188 36.648438 L 330.699219 33.617188 L 330.804688 32.207031 L 330.910156 30.863281 L 331.121094 28.375 L 331.234375 27.128906 L 331.347656 25.953125 L 331.460938 24.84375 L 331.574219 23.800781 L 331.691406 22.820313 L 331.804688 21.898438 L 332.03125 20.222656 L 332.144531 19.460938 L 332.257813 18.753906 L 332.371094 18.089844 L 332.488281 17.46875 L 332.601563 16.894531 L 332.714844 16.355469 L 332.941406 15.390625 L 333.054688 14.960938 L 333.171875 14.558594 L 333.285156 14.191406 L 333.398438 13.847656 L 333.511719 13.53125 L 333.625 13.238281 L 333.851563 12.71875 L 333.96875 12.488281 L 334.082031 12.277344 L 334.195313 12.082031 L 334.308594 11.90625 L 334.421875 11.742188 L 334.535156 11.589844 L 334.652344 11.453125 L 334.765625 11.328125 L 334.878906 11.214844 L 334.992188 11.109375 L 335.105469 11.015625 L 335.21875 10.925781 L 335.332031 10.847656 L 335.449219 10.777344 L 335.5625 10.710938 L 335.675781 10.652344 L 335.789063 10.597656 L 335.902344 10.546875 L 336.015625 10.503906 L 336.128906 10.464844 L 336.246094 10.425781 L 336.472656 10.363281 L 336.585938 10.339844 L 336.699219 10.3125 L 336.8125 10.292969 L 336.929688 10.273438 L 337.269531 10.226563 L 337.609375 10.191406 L 337.726563 10.183594 L 338.066406 10.160156 L 338.292969 10.152344 L 338.410156 10.148438 L 338.832031 10.132813 L 338.941406 10.132813 L 339.046875 10.128906 L 339.152344 10.128906 L 339.257813 10.125 L 339.472656 10.125 L 339.578125 10.121094 L 339.894531 10.121094 L 340.003906 10.117188 L 340.746094 10.117188 L 340.851563 10.113281 L 352.800781 10.113281 "/>
</g>
</g>
</svg>
