<?xml version="1.0" encoding="UTF-8"?>
<svg xmlns="http://www.w3.org/2000/svg" xmlns:xlink="http://www.w3.org/1999/xlink" width="360pt" height="223pt" viewBox="0 0 360 223" version="1.1">
<defs>
<clipPath id="clip1">
  <path d="M 0 80 L 359 80 L 359 142 L 0 142 Z M 0 80 "/>
</clipPath>
</defs>
<g id="surface20">
<g clip-path="url(#clip1)" clip-rule="nonzero">
<path style="fill:none;stroke-width:3.59;stroke-linecap:square;stroke-linejoin:miter;stroke:rgb(50%,50%,50%);stroke-opacity:1;stroke-miterlimit:3.25;" d="M 73.179688 115.9375 L 73.285156 115.695313 L 73.390625 115.457031 L 73.601563 114.976563 L 74.027344 114.019531 L 74.871094 112.136719 L 74.976563 111.90625 L 75.082031 111.679688 L 75.292969 111.222656 L 75.71875 110.332031 L 76.5625 108.628906 L 76.667969 108.425781 L 76.773438 108.226563 L 76.984375 107.832031 L 77.40625 107.070313 L 77.515625 106.886719 L 77.621094 106.707031 L 77.832031 106.351563 L 78.253906 105.679688 L 78.359375 105.519531 L 78.464844 105.363281 L 78.675781 105.058594 L 79.097656 104.488281 L 79.203125 104.355469 L 79.3125 104.222656 L 79.523438 103.972656 L 79.945313 103.515625 L 80.058594 103.402344 L 80.175781 103.292969 L 80.402344 103.089844 L 80.519531 102.992188 L 80.632813 102.902344 L 80.863281 102.734375 L 80.976563 102.65625 L 81.089844 102.582031 L 81.207031 102.515625 L 81.320313 102.453125 L 81.433594 102.394531 L 81.550781 102.339844 L 81.664063 102.289063 L 81.777344 102.246094 L 81.894531 102.207031 L 82.007813 102.171875 L 82.121094 102.144531 L 82.238281 102.121094 L 82.351563 102.101563 L 82.464844 102.085938 L 82.582031 102.074219 L 82.695313 102.070313 L 82.808594 102.070313 L 82.925781 102.074219 L 83.039063 102.085938 L 83.152344 102.101563 L 83.269531 102.121094 L 83.382813 102.144531 L 83.496094 102.171875 L 83.613281 102.207031 L 83.726563 102.246094 L 83.839844 102.289063 L 83.957031 102.339844 L 84.070313 102.390625 L 84.183594 102.449219 L 84.300781 102.515625 L 84.527344 102.652344 L 84.644531 102.730469 L 84.757813 102.8125 L 84.988281 102.992188 L 85.101563 103.085938 L 85.214844 103.1875 L 85.445313 103.402344 L 85.675781 103.632813 L 85.902344 103.882813 L 86.363281 104.429688 L 86.476563 104.578125 L 86.589844 104.730469 L 86.820313 105.042969 L 87.277344 105.71875 L 87.386719 105.886719 L 87.492188 106.054688 L 87.707031 106.402344 L 88.132813 107.132813 L 88.992188 108.71875 L 90.703125 112.285156 L 90.808594 112.519531 L 90.917969 112.757813 L 91.128906 113.234375 L 91.558594 114.195313 L 92.414063 116.136719 L 94.125 119.972656 L 94.335938 120.425781 L 94.546875 120.875 L 94.964844 121.753906 L 95.804688 123.429688 L 95.910156 123.628906 L 96.015625 123.824219 L 96.222656 124.214844 L 96.644531 124.960938 L 97.484375 126.320313 L 97.589844 126.476563 L 97.691406 126.628906 L 97.902344 126.925781 L 98.324219 127.484375 L 98.425781 127.613281 L 98.53125 127.742188 L 98.742188 127.984375 L 99.160156 128.429688 L 99.265625 128.53125 L 99.371094 128.628906 L 99.582031 128.8125 L 99.6875 128.898438 L 99.789063 128.980469 L 100 129.136719 L 100.105469 129.207031 L 100.316406 129.339844 L 100.421875 129.398438 L 100.523438 129.453125 L 100.628906 129.503906 L 100.734375 129.550781 L 100.839844 129.59375 L 100.953125 129.636719 L 101.066406 129.675781 L 101.179688 129.707031 L 101.296875 129.734375 L 101.410156 129.757813 L 101.523438 129.777344 L 101.636719 129.792969 L 101.75 129.800781 L 101.863281 129.804688 L 101.976563 129.804688 L 102.089844 129.796875 L 102.207031 129.785156 L 102.320313 129.769531 L 102.433594 129.75 L 102.546875 129.726563 L 102.660156 129.695313 L 102.773438 129.660156 L 102.886719 129.621094 L 103.003906 129.578125 L 103.230469 129.476563 L 103.34375 129.417969 L 103.570313 129.285156 L 103.683594 129.214844 L 103.796875 129.136719 L 104.027344 128.96875 L 104.140625 128.878906 L 104.253906 128.78125 L 104.480469 128.578125 L 104.59375 128.46875 L 104.707031 128.355469 L 104.9375 128.117188 L 105.390625 127.589844 L 105.503906 127.449219 L 105.621094 127.300781 L 105.847656 126.996094 L 106.300781 126.339844 L 106.414063 126.167969 L 106.53125 125.992188 L 106.757813 125.628906 L 107.210938 124.863281 L 108.121094 123.183594 L 108.230469 122.976563 L 108.546875 122.34375 L 108.972656 121.46875 L 109.820313 119.648438 L 111.519531 115.828125 L 111.628906 115.585938 L 111.734375 115.347656 L 111.945313 114.863281 L 112.371094 113.902344 L 113.21875 112.015625 L 113.324219 111.785156 L 113.433594 111.554688 L 113.644531 111.101563 L 114.070313 110.207031 L 114.917969 108.507813 L 115.035156 108.289063 L 115.148438 108.070313 L 115.378906 107.644531 L 115.839844 106.832031 L 115.953125 106.632813 L 116.070313 106.441406 L 116.300781 106.066406 L 116.761719 105.359375 L 116.875 105.191406 L 116.992188 105.027344 L 117.222656 104.714844 L 117.335938 104.5625 L 117.449219 104.414063 L 117.679688 104.132813 L 117.796875 103.996094 L 117.910156 103.863281 L 118.140625 103.617188 L 118.257813 103.496094 L 118.371094 103.382813 L 118.601563 103.171875 L 118.71875 103.070313 L 118.832031 102.976563 L 119.0625 102.796875 L 119.175781 102.71875 L 119.292969 102.640625 L 119.523438 102.5 L 119.636719 102.4375 L 119.753906 102.382813 L 119.867188 102.328125 L 119.984375 102.28125 L 120.097656 102.238281 L 120.214844 102.199219 L 120.441406 102.136719 L 120.558594 102.113281 L 120.671875 102.097656 L 120.789063 102.082031 L 120.902344 102.074219 L 121.019531 102.070313 L 121.132813 102.070313 L 121.25 102.078125 L 121.363281 102.089844 L 121.480469 102.105469 L 121.59375 102.125 L 121.710938 102.152344 L 121.824219 102.183594 L 121.9375 102.21875 L 122.054688 102.257813 L 122.167969 102.304688 L 122.285156 102.355469 L 122.398438 102.410156 L 122.511719 102.46875 L 122.625 102.53125 L 122.738281 102.601563 L 122.847656 102.671875 L 122.960938 102.75 L 123.1875 102.917969 L 123.300781 103.007813 L 123.414063 103.101563 L 123.640625 103.308594 L 124.09375 103.765625 L 124.207031 103.890625 L 124.320313 104.019531 L 124.542969 104.292969 L 124.996094 104.882813 L 125.109375 105.039063 L 125.222656 105.199219 L 125.449219 105.53125 L 125.898438 106.238281 L 126.125 106.613281 L 126.351563 107 L 126.804688 107.8125 L 127.707031 109.5625 L 129.515625 113.4375 L 129.621094 113.675781 L 129.726563 113.910156 L 129.9375 114.386719 L 131.203125 117.257813 L 131.308594 117.5 L 131.414063 117.734375 L 131.625 118.210938 L 132.046875 119.152344 L 132.886719 120.980469 L 132.992188 121.203125 L 133.308594 121.859375 L 133.730469 122.714844 L 134.574219 124.316406 L 134.679688 124.507813 L 134.785156 124.695313 L 134.996094 125.0625 L 135.417969 125.761719 L 135.523438 125.929688 L 135.628906 126.09375 L 135.839844 126.414063 L 136.261719 127.015625 L 136.375 127.171875 L 136.488281 127.320313 L 136.71875 127.609375 L 136.832031 127.75 L 136.945313 127.882813 L 137.175781 128.136719 L 137.289063 128.261719 L 137.402344 128.375 L 137.632813 128.597656 L 137.746094 128.703125 L 137.859375 128.800781 L 138.089844 128.984375 L 138.203125 129.070313 L 138.316406 129.152344 L 138.433594 129.230469 L 138.546875 129.300781 L 138.660156 129.367188 L 138.773438 129.429688 L 138.890625 129.488281 L 139.117188 129.589844 L 139.234375 129.632813 L 139.347656 129.671875 L 139.574219 129.734375 L 139.691406 129.757813 L 139.804688 129.777344 L 140.03125 129.800781 L 140.148438 129.804688 L 140.261719 129.804688 L 140.488281 129.789063 L 140.605469 129.773438 L 140.71875 129.753906 L 140.945313 129.699219 L 141.0625 129.664063 L 141.175781 129.625 L 141.289063 129.582031 L 141.402344 129.53125 L 141.519531 129.476563 L 141.746094 129.355469 L 141.859375 129.289063 L 141.976563 129.214844 L 142.203125 129.054688 L 142.316406 128.96875 L 142.433594 128.878906 L 142.660156 128.683594 L 142.773438 128.578125 L 142.890625 128.46875 L 143.117188 128.238281 L 143.574219 127.722656 L 143.683594 127.59375 L 143.789063 127.460938 L 144.003906 127.183594 L 144.429688 126.589844 L 145.28125 125.246094 L 145.390625 125.0625 L 145.496094 124.878906 L 145.710938 124.503906 L 146.136719 123.71875 L 146.988281 122.039063 L 147.097656 121.820313 L 147.203125 121.601563 L 147.417969 121.152344 L 147.84375 120.242188 L 148.695313 118.359375 L 150.402344 114.492188 L 150.507813 114.253906 L 150.613281 114.019531 L 150.820313 113.546875 L 151.242188 112.617188 L 152.078125 110.804688 L 152.179688 110.585938 L 152.285156 110.367188 L 152.496094 109.933594 L 152.914063 109.089844 L 153.75 107.503906 L 153.855469 107.316406 L 153.960938 107.132813 L 154.167969 106.769531 L 154.585938 106.078125 L 154.691406 105.910156 L 154.796875 105.75 L 155.003906 105.429688 L 155.425781 104.835938 L 155.527344 104.695313 L 155.632813 104.558594 L 155.84375 104.292969 L 155.945313 104.164063 L 156.050781 104.039063 L 156.261719 103.800781 L 156.367188 103.6875 L 156.46875 103.578125 L 156.679688 103.371094 L 156.785156 103.273438 L 156.886719 103.175781 L 157.097656 103 L 157.210938 102.90625 L 157.324219 102.820313 L 157.4375 102.738281 L 157.664063 102.589844 L 157.777344 102.523438 L 158.003906 102.402344 L 158.117188 102.347656 L 158.230469 102.296875 L 158.347656 102.253906 L 158.460938 102.214844 L 158.574219 102.179688 L 158.6875 102.148438 L 158.800781 102.125 L 158.914063 102.105469 L 159.027344 102.089844 L 159.140625 102.078125 L 159.253906 102.070313 L 159.367188 102.070313 L 159.480469 102.074219 L 159.59375 102.082031 L 159.707031 102.09375 L 159.820313 102.113281 L 159.933594 102.136719 L 160.046875 102.164063 L 160.160156 102.195313 L 160.386719 102.273438 L 160.5 102.320313 L 160.617188 102.371094 L 160.84375 102.488281 L 160.957031 102.554688 L 161.183594 102.699219 L 161.296875 102.777344 L 161.410156 102.863281 L 161.636719 103.042969 L 161.75 103.140625 L 161.863281 103.242188 L 162.089844 103.457031 L 162.542969 103.941406 L 162.65625 104.074219 L 162.773438 104.210938 L 163 104.496094 L 163.453125 105.109375 L 163.679688 105.4375 L 163.90625 105.785156 L 164.359375 106.515625 L 164.464844 106.691406 L 164.570313 106.875 L 164.785156 107.242188 L 165.207031 108.015625 L 166.054688 109.667969 L 167.75 113.304688 L 167.855469 113.539063 L 168.171875 114.253906 L 168.597656 115.214844 L 169.441406 117.140625 L 171.136719 120.886719 L 171.253906 121.128906 L 171.367188 121.371094 L 171.597656 121.847656 L 172.054688 122.773438 L 172.171875 123 L 172.285156 123.222656 L 172.515625 123.664063 L 172.972656 124.507813 L 173.089844 124.710938 L 173.203125 124.910156 L 173.433594 125.304688 L 173.890625 126.046875 L 174.007813 126.222656 L 174.121094 126.398438 L 174.351563 126.730469 L 174.808594 127.355469 L 174.925781 127.503906 L 175.039063 127.644531 L 175.269531 127.917969 L 175.382813 128.046875 L 175.5 128.171875 L 175.726563 128.410156 L 175.84375 128.519531 L 175.957031 128.628906 L 176.1875 128.828125 L 176.300781 128.921875 L 176.417969 129.011719 L 176.648438 129.175781 L 176.761719 129.253906 L 176.875 129.324219 L 176.992188 129.390625 L 177.21875 129.507813 L 177.335938 129.558594 L 177.449219 129.605469 L 177.566406 129.644531 L 177.679688 129.683594 L 177.792969 129.714844 L 177.910156 129.742188 L 178.023438 129.765625 L 178.140625 129.78125 L 178.253906 129.792969 L 178.367188 129.800781 L 178.484375 129.804688 L 178.597656 129.800781 L 178.707031 129.796875 L 178.820313 129.785156 L 179.046875 129.746094 L 179.160156 129.71875 L 179.273438 129.6875 L 179.382813 129.652344 L 179.496094 129.613281 L 179.609375 129.570313 L 179.722656 129.519531 L 179.835938 129.464844 L 179.949219 129.40625 L 180.0625 129.34375 L 180.285156 129.203125 L 180.398438 129.128906 L 180.511719 129.046875 L 180.738281 128.871094 L 180.847656 128.773438 L 180.960938 128.675781 L 181.1875 128.464844 L 181.300781 128.351563 L 181.414063 128.234375 L 181.636719 127.992188 L 182.089844 127.453125 L 182.203125 127.308594 L 182.3125 127.15625 L 182.539063 126.847656 L 182.992188 126.1875 L 183.890625 124.699219 L 184.003906 124.5 L 184.117188 124.296875 L 184.34375 123.878906 L 184.792969 123.019531 L 185.695313 121.183594 L 185.90625 120.738281 L 186.113281 120.289063 L 186.535156 119.371094 L 187.375 117.488281 L 189.058594 113.675781 L 189.269531 113.207031 L 189.476563 112.738281 L 189.898438 111.816406 L 190.738281 110.035156 L 190.949219 109.605469 L 191.160156 109.183594 L 191.578125 108.367188 L 192.421875 106.839844 L 192.648438 106.457031 L 192.875 106.082031 L 193.332031 105.382813 L 193.445313 105.214844 L 193.558594 105.054688 L 193.789063 104.738281 L 194.242188 104.160156 L 194.359375 104.023438 L 194.472656 103.894531 L 194.699219 103.644531 L 194.8125 103.527344 L 194.929688 103.414063 L 195.15625 103.199219 L 195.382813 103.003906 L 195.613281 102.824219 L 195.726563 102.742188 L 195.839844 102.667969 L 196.066406 102.523438 L 196.183594 102.460938 L 196.296875 102.402344 L 196.410156 102.347656 L 196.636719 102.253906 L 196.75 102.214844 L 196.867188 102.179688 L 196.980469 102.148438 L 197.09375 102.125 L 197.207031 102.105469 L 197.320313 102.089844 L 197.433594 102.078125 L 197.550781 102.070313 L 197.664063 102.070313 L 197.777344 102.074219 L 197.890625 102.082031 L 198.003906 102.097656 L 198.121094 102.113281 L 198.234375 102.136719 L 198.347656 102.164063 L 198.574219 102.234375 L 198.6875 102.277344 L 198.804688 102.324219 L 198.917969 102.375 L 199.03125 102.433594 L 199.257813 102.558594 L 199.375 102.632813 L 199.488281 102.707031 L 199.714844 102.871094 L 199.820313 102.953125 L 199.929688 103.042969 L 200.140625 103.226563 L 200.246094 103.324219 L 200.566406 103.644531 L 200.671875 103.757813 L 200.777344 103.875 L 200.992188 104.121094 L 201.417969 104.65625 L 201.628906 104.945313 L 201.84375 105.25 L 202.269531 105.890625 L 203.121094 107.320313 L 203.332031 107.703125 L 203.546875 108.097656 L 203.96875 108.914063 L 204.820313 110.648438 L 206.523438 114.386719 L 206.640625 114.648438 L 206.753906 114.910156 L 207.445313 116.480469 L 208.367188 118.5625 L 208.484375 118.820313 L 208.597656 119.078125 L 208.828125 119.585938 L 209.289063 120.585938 L 210.210938 122.503906 L 210.328125 122.730469 L 210.441406 122.960938 L 210.671875 123.40625 L 211.132813 124.269531 L 211.367188 124.683594 L 211.597656 125.082031 L 212.058594 125.84375 L 212.171875 126.027344 L 212.289063 126.203125 L 212.519531 126.550781 L 212.980469 127.195313 L 213.09375 127.34375 L 213.210938 127.492188 L 213.441406 127.773438 L 213.902344 128.285156 L 214.015625 128.402344 L 214.128906 128.511719 L 214.355469 128.71875 L 214.46875 128.816406 L 214.582031 128.910156 L 214.808594 129.082031 L 214.921875 129.164063 L 215.03125 129.238281 L 215.144531 129.308594 L 215.257813 129.375 L 215.371094 129.4375 L 215.484375 129.492188 L 215.710938 129.59375 L 215.9375 129.671875 L 216.050781 129.707031 L 216.164063 129.734375 L 216.277344 129.757813 L 216.390625 129.777344 L 216.617188 129.800781 L 216.730469 129.804688 L 216.84375 129.804688 L 217.070313 129.789063 L 217.183594 129.773438 L 217.296875 129.753906 L 217.410156 129.730469 L 217.523438 129.703125 L 217.636719 129.667969 L 217.75 129.628906 L 217.863281 129.585938 L 217.976563 129.539063 L 218.203125 129.429688 L 218.429688 129.300781 L 218.542969 129.230469 L 218.65625 129.152344 L 218.882813 128.988281 L 218.996094 128.898438 L 219.109375 128.804688 L 219.332031 128.605469 L 219.558594 128.386719 L 219.785156 128.152344 L 220.238281 127.628906 L 220.351563 127.488281 L 220.464844 127.34375 L 220.691406 127.042969 L 221.144531 126.398438 L 221.25 126.238281 L 221.355469 126.074219 L 221.566406 125.742188 L 221.988281 125.039063 L 222.835938 123.507813 L 223.046875 123.101563 L 223.257813 122.683594 L 223.679688 121.828125 L 224.523438 120.039063 L 224.734375 119.578125 L 224.945313 119.113281 L 225.367188 118.167969 L 226.210938 116.257813 L 227.902344 112.449219 L 228.015625 112.199219 L 228.132813 111.949219 L 228.359375 111.453125 L 228.816406 110.480469 L 229.734375 108.632813 L 229.960938 108.195313 L 230.191406 107.769531 L 230.648438 106.953125 L 231.566406 105.472656 L 231.792969 105.136719 L 232.023438 104.820313 L 232.136719 104.664063 L 232.253906 104.515625 L 232.480469 104.226563 L 232.59375 104.089844 L 232.710938 103.957031 L 232.9375 103.703125 L 233.398438 103.246094 L 233.511719 103.144531 L 233.625 103.046875 L 233.855469 102.863281 L 233.96875 102.777344 L 234.082031 102.699219 L 234.3125 102.554688 L 234.425781 102.488281 L 234.542969 102.425781 L 234.65625 102.371094 L 234.769531 102.320313 L 234.886719 102.273438 L 235 102.230469 L 235.113281 102.191406 L 235.226563 102.160156 L 235.335938 102.136719 L 235.441406 102.113281 L 235.550781 102.097656 L 235.65625 102.082031 L 235.761719 102.074219 L 235.871094 102.070313 L 235.976563 102.070313 L 236.082031 102.074219 L 236.191406 102.082031 L 236.296875 102.09375 L 236.402344 102.113281 L 236.511719 102.132813 L 236.617188 102.160156 L 236.726563 102.1875 L 236.832031 102.222656 L 236.9375 102.261719 L 237.046875 102.304688 L 237.152344 102.347656 L 237.257813 102.398438 L 237.367188 102.453125 L 237.578125 102.578125 L 237.792969 102.714844 L 237.902344 102.789063 L 238.007813 102.871094 L 238.222656 103.042969 L 238.328125 103.132813 L 238.433594 103.226563 L 238.648438 103.429688 L 238.753906 103.535156 L 238.863281 103.648438 L 239.074219 103.878906 L 239.503906 104.390625 L 239.609375 104.527344 L 239.71875 104.667969 L 239.929688 104.957031 L 240.359375 105.578125 L 240.464844 105.742188 L 240.574219 105.90625 L 240.785156 106.25 L 241.214844 106.96875 L 242.070313 108.535156 L 242.171875 108.738281 L 242.277344 108.941406 L 242.488281 109.359375 L 242.90625 110.214844 L 243.746094 112 L 245.421875 115.757813 L 245.632813 116.234375 L 245.839844 116.710938 L 246.261719 117.660156 L 247.097656 119.53125 L 248.773438 123.035156 L 248.886719 123.253906 L 249.003906 123.472656 L 249.230469 123.902344 L 249.683594 124.726563 L 249.796875 124.925781 L 249.910156 125.121094 L 250.140625 125.5 L 250.59375 126.222656 L 250.707031 126.394531 L 250.820313 126.5625 L 251.046875 126.886719 L 251.160156 127.046875 L 251.277344 127.199219 L 251.503906 127.492188 L 251.617188 127.632813 L 251.730469 127.769531 L 251.957031 128.03125 L 252.414063 128.503906 L 252.640625 128.714844 L 252.867188 128.90625 L 252.980469 128.996094 L 253.09375 129.078125 L 253.320313 129.234375 L 253.433594 129.304688 L 253.550781 129.371094 L 253.664063 129.433594 L 253.777344 129.492188 L 253.890625 129.542969 L 254.003906 129.589844 L 254.117188 129.632813 L 254.230469 129.671875 L 254.34375 129.707031 L 254.457031 129.734375 L 254.570313 129.757813 L 254.6875 129.777344 L 254.914063 129.800781 L 255.027344 129.804688 L 255.140625 129.804688 L 255.367188 129.789063 L 255.480469 129.773438 L 255.59375 129.753906 L 255.707031 129.730469 L 255.824219 129.699219 L 255.9375 129.664063 L 256.050781 129.625 L 256.15625 129.585938 L 256.261719 129.542969 L 256.472656 129.441406 L 256.582031 129.382813 L 256.6875 129.320313 L 256.898438 129.1875 L 257.003906 129.113281 L 257.109375 129.035156 L 257.324219 128.871094 L 257.429688 128.78125 L 257.535156 128.6875 L 257.746094 128.492188 L 257.960938 128.277344 L 258.171875 128.050781 L 258.59375 127.550781 L 258.703125 127.417969 L 258.808594 127.28125 L 259.019531 126.996094 L 259.445313 126.386719 L 259.65625 126.066406 L 259.867188 125.730469 L 260.292969 125.023438 L 261.140625 123.480469 L 261.246094 123.277344 L 261.355469 123.070313 L 261.566406 122.652344 L 261.988281 121.792969 L 262.839844 119.992188 L 262.953125 119.738281 L 263.070313 119.488281 L 263.296875 118.980469 L 263.757813 117.949219 L 264.679688 115.863281 L 264.792969 115.601563 L 264.910156 115.34375 L 265.136719 114.820313 L 265.597656 113.78125 L 266.519531 111.746094 L 266.632813 111.496094 L 266.746094 111.25 L 266.976563 110.761719 L 267.4375 109.804688 L 268.355469 108.007813 L 268.472656 107.792969 L 268.585938 107.582031 L 268.816406 107.171875 L 269.277344 106.386719 L 269.390625 106.199219 L 269.507813 106.011719 L 269.738281 105.65625 L 270.195313 104.984375 L 270.308594 104.828125 L 270.421875 104.675781 L 270.648438 104.382813 L 270.761719 104.242188 L 270.875 104.109375 L 271.101563 103.847656 L 271.210938 103.722656 L 271.324219 103.605469 L 271.550781 103.378906 L 271.777344 103.167969 L 272.003906 102.976563 L 272.117188 102.886719 L 272.230469 102.804688 L 272.339844 102.722656 L 272.453125 102.648438 L 272.566406 102.578125 L 272.679688 102.511719 L 272.90625 102.390625 L 273.132813 102.289063 L 273.246094 102.246094 L 273.355469 102.207031 L 273.582031 102.144531 L 273.695313 102.121094 L 273.808594 102.101563 L 273.921875 102.085938 L 274.148438 102.070313 L 274.261719 102.070313 L 274.375 102.074219 L 274.484375 102.082031 L 274.710938 102.113281 L 274.824219 102.136719 L 274.9375 102.164063 L 275.164063 102.234375 L 275.277344 102.277344 L 275.390625 102.324219 L 275.5 102.375 L 275.613281 102.429688 L 275.726563 102.492188 L 275.839844 102.558594 L 276.066406 102.703125 L 276.179688 102.78125 L 276.292969 102.863281 L 276.519531 103.042969 L 276.628906 103.140625 L 276.742188 103.242188 L 276.96875 103.457031 L 277.421875 103.9375 L 277.527344 104.058594 L 277.632813 104.1875 L 277.839844 104.449219 L 278.261719 105.011719 L 278.367188 105.160156 L 278.472656 105.3125 L 278.683594 105.625 L 279.105469 106.292969 L 279.210938 106.464844 L 279.316406 106.640625 L 279.527344 107.003906 L 279.949219 107.753906 L 280.789063 109.375 L 280.894531 109.585938 L 281 109.800781 L 281.210938 110.234375 L 281.632813 111.121094 L 282.472656 112.957031 L 284.160156 116.765625 L 284.273438 117.027344 L 284.613281 117.800781 L 285.070313 118.824219 L 285.984375 120.816406 L 286.097656 121.058594 L 286.214844 121.300781 L 286.441406 121.773438 L 286.898438 122.699219 L 287.8125 124.433594 L 287.925781 124.636719 L 288.039063 124.835938 L 288.269531 125.230469 L 288.726563 125.972656 L 288.839844 126.152344 L 288.953125 126.324219 L 289.183594 126.660156 L 289.636719 127.289063 L 289.753906 127.4375 L 289.867188 127.578125 L 290.09375 127.855469 L 290.210938 127.984375 L 290.324219 128.109375 L 290.550781 128.351563 L 290.664063 128.464844 L 290.78125 128.574219 L 291.007813 128.777344 L 291.121094 128.875 L 291.238281 128.964844 L 291.464844 129.132813 L 291.570313 129.207031 L 291.679688 129.277344 L 291.785156 129.339844 L 291.996094 129.457031 L 292.105469 129.507813 L 292.210938 129.554688 L 292.316406 129.597656 L 292.425781 129.640625 L 292.53125 129.675781 L 292.636719 129.707031 L 292.742188 129.730469 L 292.851563 129.753906 L 292.957031 129.773438 L 293.0625 129.789063 L 293.171875 129.796875 L 293.382813 129.804688 L 293.488281 129.800781 L 293.597656 129.792969 L 293.808594 129.769531 L 293.917969 129.746094 L 294.023438 129.722656 L 294.128906 129.695313 L 294.234375 129.664063 L 294.34375 129.625 L 294.449219 129.585938 L 294.554688 129.542969 L 294.664063 129.492188 L 294.875 129.382813 L 294.980469 129.320313 L 295.089844 129.253906 L 295.300781 129.109375 L 295.410156 129.035156 L 295.515625 128.953125 L 295.726563 128.777344 L 295.835938 128.683594 L 295.941406 128.585938 L 296.15625 128.378906 L 296.582031 127.921875 L 296.6875 127.796875 L 296.792969 127.667969 L 297.007813 127.402344 L 297.433594 126.832031 L 297.539063 126.679688 L 297.644531 126.523438 L 297.859375 126.203125 L 298.285156 125.527344 L 298.390625 125.355469 L 298.496094 125.179688 L 298.703125 124.816406 L 299.121094 124.066406 L 299.957031 122.457031 L 301.628906 118.898438 L 301.839844 118.429688 L 302.046875 117.960938 L 302.464844 117.015625 L 303.300781 115.117188 L 304.972656 111.398438 L 305.199219 110.914063 L 305.425781 110.4375 L 305.878906 109.503906 L 305.992188 109.277344 L 306.332031 108.609375 L 306.785156 107.753906 L 306.898438 107.546875 L 307.011719 107.34375 L 307.238281 106.945313 L 307.691406 106.1875 L 307.804688 106.003906 L 307.917969 105.824219 L 308.148438 105.480469 L 308.601563 104.832031 L 308.714844 104.679688 L 308.828125 104.53125 L 309.054688 104.246094 L 309.167969 104.109375 L 309.28125 103.976563 L 309.507813 103.722656 L 309.621094 103.601563 L 309.734375 103.488281 L 309.960938 103.269531 L 310.1875 103.066406 L 310.414063 102.882813 L 310.640625 102.71875 L 310.753906 102.644531 L 310.867188 102.574219 L 310.980469 102.507813 L 311.09375 102.445313 L 311.207031 102.386719 L 311.433594 102.285156 L 311.546875 102.242188 L 311.773438 102.171875 L 312 102.117188 L 312.226563 102.085938 L 312.332031 102.074219 L 312.4375 102.070313 L 312.546875 102.070313 L 312.652344 102.074219 L 312.757813 102.082031 L 312.863281 102.09375 L 312.96875 102.109375 L 313.074219 102.128906 L 313.179688 102.152344 L 313.285156 102.179688 L 313.496094 102.25 L 313.601563 102.289063 L 313.8125 102.382813 L 313.921875 102.4375 L 314.132813 102.554688 L 314.34375 102.691406 L 314.449219 102.761719 L 314.554688 102.839844 L 314.765625 103.007813 L 314.871094 103.09375 L 314.976563 103.1875 L 315.1875 103.386719 L 315.613281 103.824219 L 315.824219 104.066406 L 316.035156 104.320313 L 316.457031 104.875 L 316.5625 105.023438 L 316.671875 105.171875 L 316.882813 105.480469 L 317.304688 106.140625 L 317.515625 106.484375 L 317.726563 106.84375 L 318.152344 107.589844 L 318.996094 109.203125 L 319.113281 109.433594 L 319.226563 109.664063 L 319.457031 110.136719 L 319.914063 111.097656 L 320.832031 113.101563 L 322.667969 117.253906 L 322.78125 117.511719 L 322.894531 117.773438 L 323.125 118.289063 L 323.582031 119.308594 L 324.5 121.289063 L 324.617188 121.527344 L 324.730469 121.765625 L 324.960938 122.234375 L 325.417969 123.144531 L 326.335938 124.839844 L 326.441406 125.027344 L 326.550781 125.207031 L 326.765625 125.566406 L 327.191406 126.242188 L 327.300781 126.402344 L 327.40625 126.5625 L 327.621094 126.867188 L 328.046875 127.441406 L 328.15625 127.574219 L 328.261719 127.707031 L 328.476563 127.957031 L 328.585938 128.074219 L 328.691406 128.191406 L 328.90625 128.410156 L 329.011719 128.515625 L 329.121094 128.617188 L 329.332031 128.804688 L 329.441406 128.894531 L 329.546875 128.980469 L 329.761719 129.136719 L 329.867188 129.210938 L 329.976563 129.277344 L 330.082031 129.34375 L 330.191406 129.402344 L 330.296875 129.460938 L 330.402344 129.511719 L 330.511719 129.558594 L 330.617188 129.601563 L 330.726563 129.640625 L 330.832031 129.675781 L 330.941406 129.707031 L 331.046875 129.734375 L 331.152344 129.757813 L 331.261719 129.773438 L 331.367188 129.789063 L 331.476563 129.796875 L 331.582031 129.804688 L 331.6875 129.804688 L 331.796875 129.800781 L 331.902344 129.792969 L 332.011719 129.78125 L 332.117188 129.765625 L 332.222656 129.746094 L 332.332031 129.71875 L 332.4375 129.691406 L 332.546875 129.65625 L 332.652344 129.621094 L 332.761719 129.578125 L 332.867188 129.535156 L 332.972656 129.484375 L 333.1875 129.371094 L 333.398438 129.246094 L 333.609375 129.101563 L 333.714844 129.023438 L 333.816406 128.945313 L 334.027344 128.769531 L 334.132813 128.679688 L 334.238281 128.582031 L 334.449219 128.378906 L 334.867188 127.925781 L 334.972656 127.804688 L 335.078125 127.679688 L 335.289063 127.417969 L 335.707031 126.855469 L 335.8125 126.707031 L 335.917969 126.554688 L 336.128906 126.242188 L 336.546875 125.578125 L 336.652344 125.40625 L 336.757813 125.230469 L 336.96875 124.871094 L 337.386719 124.121094 L 338.226563 122.503906 L 339.90625 118.933594 L 340.132813 118.425781 L 340.363281 117.914063 L 340.816406 116.882813 L 341.726563 114.8125 L 341.84375 114.554688 L 341.957031 114.296875 L 342.183594 113.785156 L 342.640625 112.765625 L 343.550781 110.792969 L 343.664063 110.550781 L 343.777344 110.316406 L 344.003906 109.84375 L 344.460938 108.933594 L 344.6875 108.488281 L 344.917969 108.058594 L 345.371094 107.226563 L 345.484375 107.027344 L 345.597656 106.832031 L 345.828125 106.445313 L 346.28125 105.71875 L 346.394531 105.546875 L 346.511719 105.375 L 346.738281 105.046875 L 347.195313 104.4375 L 347.40625 104.171875 L 347.617188 103.925781 L 347.726563 103.804688 L 347.832031 103.691406 L 348.042969 103.472656 L 348.148438 103.367188 L 348.257813 103.265625 L 348.46875 103.078125 L 348.574219 102.988281 L 348.679688 102.90625 L 348.894531 102.746094 L 349.105469 102.605469 L 349.210938 102.542969 L 349.320313 102.480469 L 349.53125 102.371094 L 349.636719 102.324219 L 349.742188 102.28125 L 349.851563 102.242188 L 349.957031 102.203125 L 350.0625 102.171875 L 350.167969 102.144531 L 350.273438 102.121094 L 350.382813 102.105469 L 350.488281 102.089844 L 350.59375 102.078125 L 350.699219 102.070313 L 350.914063 102.070313 L 351.019531 102.078125 L 351.125 102.089844 L 351.335938 102.121094 L 351.445313 102.144531 L 351.550781 102.171875 L 351.65625 102.203125 L 351.761719 102.242188 L 351.871094 102.28125 L 351.976563 102.324219 L 352.082031 102.371094 L 352.292969 102.480469 L 352.402344 102.542969 L 352.507813 102.605469 L 352.71875 102.746094 L 352.824219 102.824219 L 352.933594 102.90625 L 353.144531 103.078125 L 353.355469 103.265625 L 353.570313 103.46875 L 353.996094 103.925781 L 354.109375 104.058594 L 354.226563 104.195313 L 354.457031 104.480469 L 354.914063 105.105469 L 355.03125 105.269531 L 355.144531 105.4375 L 355.375 105.789063 L 355.835938 106.53125 L 355.953125 106.726563 L 356.066406 106.921875 L 356.296875 107.328125 L 356.757813 108.171875 L 357.679688 109.992188 L 357.792969 110.230469 L 357.910156 110.46875 L 358.140625 110.953125 L 358.601563 111.945313 L 359.523438 113.992188 L 361.363281 118.167969 L 361.589844 118.675781 L 361.816406 119.175781 L 362.269531 120.167969 L 363.171875 122.074219 L 363.285156 122.304688 L 363.398438 122.53125 L 363.625 122.976563 L 364.078125 123.84375 L 364.984375 125.441406 L 365.09375 125.628906 L 365.207031 125.808594 L 365.433594 126.164063 L 365.886719 126.832031 L 366 126.988281 L 366.113281 127.140625 L 366.339844 127.4375 L 366.792969 127.980469 L 366.90625 128.105469 L 367.019531 128.226563 L 367.242188 128.457031 L 367.355469 128.566406 L 367.46875 128.667969 L 367.695313 128.863281 L 367.921875 129.042969 L 368.035156 129.125 L 368.261719 129.273438 L 368.375 129.339844 L 368.601563 129.464844 L 368.707031 129.515625 L 368.8125 129.5625 L 368.917969 129.605469 L 369.023438 129.644531 L 369.234375 129.707031 L 369.339844 129.734375 L 369.445313 129.757813 L 369.65625 129.789063 L 369.867188 129.804688 L 369.972656 129.804688 L 370.078125 129.800781 L 370.289063 129.785156 L 370.394531 129.769531 L 370.5 129.75 L 370.605469 129.726563 L 370.710938 129.699219 L 370.921875 129.628906 L 371.027344 129.589844 L 371.132813 129.546875 L 371.34375 129.445313 L 371.449219 129.390625 L 371.660156 129.265625 L 371.765625 129.195313 L 371.976563 129.046875 L 372.082031 128.96875 L 372.1875 128.882813 L 372.398438 128.703125 L 372.503906 128.609375 L 372.609375 128.507813 L 372.820313 128.300781 L 373.03125 128.074219 L 373.242188 127.835938 L 373.664063 127.3125 L 373.769531 127.175781 L 373.875 127.03125 L 374.085938 126.738281 L 374.507813 126.109375 L 375.351563 124.714844 L 375.464844 124.511719 L 375.578125 124.304688 L 375.808594 123.882813 L 376.265625 123.007813 L 377.179688 121.144531 L 379.011719 117.113281 L 379.125 116.851563 L 379.238281 116.59375 L 379.46875 116.074219 L 379.925781 115.03125 L 380.839844 112.972656 L 382.667969 109.097656 L 382.777344 108.890625 L 382.882813 108.679688 L 383.097656 108.273438 L 383.523438 107.480469 L 383.628906 107.289063 L 383.738281 107.101563 L 383.949219 106.734375 L 384.378906 106.027344 L 384.484375 105.859375 L 384.589844 105.695313 L 384.804688 105.375 L 385.230469 104.769531 L 385.339844 104.628906 L 385.445313 104.488281 L 385.660156 104.222656 L 386.085938 103.730469 L 386.191406 103.617188 L 386.300781 103.507813 L 386.511719 103.300781 L 386.621094 103.203125 L 386.726563 103.109375 L 386.941406 102.933594 L 387.152344 102.769531 L 387.261719 102.695313 L 387.367188 102.625 L 387.472656 102.5625 L 387.582031 102.5 L 387.792969 102.386719 L 387.902344 102.335938 L 388.113281 102.25 L 388.222656 102.214844 L 388.328125 102.179688 L 388.433594 102.152344 L 388.542969 102.128906 L 388.648438 102.109375 L 388.753906 102.09375 L 388.863281 102.082031 L 388.96875 102.074219 L 389.074219 102.070313 L 389.183594 102.070313 L 389.394531 102.085938 L 389.503906 102.101563 L 389.605469 102.117188 L 389.816406 102.164063 L 389.921875 102.195313 L 390.027344 102.230469 L 390.128906 102.265625 L 390.234375 102.308594 L 390.339844 102.355469 L 390.445313 102.40625 L 390.546875 102.460938 L 390.757813 102.578125 L 390.863281 102.644531 L 390.96875 102.714844 L 391.175781 102.867188 L 391.28125 102.949219 L 391.386719 103.035156 L 391.59375 103.214844 L 391.699219 103.3125 L 391.804688 103.414063 L 392.015625 103.625 L 392.117188 103.738281 L 392.222656 103.851563 L 392.433594 104.09375 L 392.851563 104.613281 L 392.957031 104.753906 L 393.0625 104.898438 L 393.269531 105.191406 L 393.6875 105.816406 L 394.527344 107.210938 L 394.628906 107.398438 L 394.734375 107.585938 L 394.945313 107.972656 L 395.363281 108.769531 L 396.199219 110.464844 L 396.3125 110.703125 L 396.429688 110.941406 L 396.65625 111.429688 L 397.109375 112.417969 L 398.015625 114.449219 L 399.835938 118.5625 L 400.0625 119.070313 L 400.289063 119.570313 L 400.742188 120.554688 L 401.652344 122.445313 L 401.878906 122.898438 L 402.105469 123.339844 L 402.558594 124.191406 L 403.46875 125.753906 L 403.574219 125.925781 L 403.679688 126.089844 L 403.890625 126.414063 L 404.316406 127.019531 L 404.527344 127.300781 L 404.738281 127.570313 L 405.164063 128.066406 L 405.269531 128.183594 L 405.375 128.292969 L 405.585938 128.503906 L 405.695313 128.605469 L 405.800781 128.699219 L 406.011719 128.882813 L 406.222656 129.046875 L 406.433594 129.195313 L 406.542969 129.265625 L 406.648438 129.328125 L 406.859375 129.445313 L 406.964844 129.5 L 407.070313 129.546875 L 407.28125 129.632813 L 407.390625 129.667969 L 407.496094 129.699219 L 407.601563 129.726563 L 407.707031 129.75 L 407.8125 129.769531 L 407.917969 129.785156 L 408.023438 129.796875 L 408.128906 129.800781 L 408.238281 129.804688 L 408.449219 129.796875 L 408.660156 129.773438 L 408.765625 129.753906 L 408.871094 129.730469 L 408.976563 129.703125 L 409.085938 129.671875 L 409.191406 129.636719 L 409.296875 129.597656 L 409.402344 129.554688 L 409.507813 129.507813 L 409.613281 129.457031 L 409.71875 129.402344 L 409.824219 129.339844 L 409.933594 129.277344 L 410.039063 129.210938 L 410.25 129.0625 L 410.367188 128.972656 L 410.484375 128.878906 L 410.722656 128.675781 L 410.839844 128.566406 L 410.960938 128.453125 L 411.195313 128.210938 L 411.3125 128.085938 L 411.433594 127.953125 L 411.667969 127.675781 L 412.140625 127.066406 L 412.261719 126.902344 L 412.378906 126.738281 L 412.617188 126.390625 L 413.089844 125.652344 L 414.035156 124.007813 L 414.269531 123.5625 L 414.507813 123.109375 L 414.980469 122.164063 L 415.925781 120.175781 L 416.046875 119.917969 L 416.164063 119.660156 L 416.402344 119.136719 L 416.875 118.082031 L 416.992188 117.816406 L 417.109375 117.546875 L 417.347656 117.011719 L 417.464844 116.742188 L 417.582031 116.476563 L 417.703125 116.207031 L 417.820313 115.9375 " transform="matrix(1,0,0,1,-66,-5)"/>
</g>
</g>
</svg>
