<?xml version="1.0" encoding="UTF-8"?>
<svg xmlns="http://www.w3.org/2000/svg" xmlns:xlink="http://www.w3.org/1999/xlink" width="360pt" height="223pt" viewBox="0 0 360 223" version="1.1">
<defs>
<clipPath id="clip1">
  <path d="M 0 38 L 359 38 L 359 183 L 0 183 Z M 0 38 "/>
</clipPath>
</defs>
<g id="surface24">
<g clip-path="url(#clip1)" clip-rule="nonzero">
<path style="fill:none;stroke-width:3.59;stroke-linecap:square;stroke-linejoin:miter;stroke:rgb(78.430176%,0%,0%);stroke-opacity:1;stroke-miterlimit:3.25;" d="M 73.179688 115.9375 L 73.285156 115.667969 L 73.390625 115.402344 L 73.601563 114.867188 L 74.027344 113.800781 L 74.871094 111.664063 L 76.5625 107.417969 L 79.945313 99.105469 L 80.058594 98.828125 L 80.175781 98.554688 L 80.402344 98.003906 L 80.863281 96.910156 L 81.777344 94.75 L 83.613281 90.546875 L 83.839844 90.03125 L 84.070313 89.523438 L 84.527344 88.507813 L 85.445313 86.519531 L 87.277344 82.695313 L 87.386719 82.480469 L 87.492188 82.265625 L 87.707031 81.835938 L 88.132813 80.988281 L 88.992188 79.335938 L 90.703125 76.199219 L 90.808594 76.011719 L 90.917969 75.824219 L 91.128906 75.453125 L 91.558594 74.71875 L 92.414063 73.304688 L 94.125 70.667969 L 94.335938 70.363281 L 94.546875 70.0625 L 94.964844 69.472656 L 95.804688 68.351563 L 96.015625 68.078125 L 96.222656 67.8125 L 96.644531 67.296875 L 97.484375 66.3125 L 97.589844 66.191406 L 97.691406 66.078125 L 97.902344 65.847656 L 98.324219 65.398438 L 99.160156 64.5625 L 99.265625 64.464844 L 99.371094 64.363281 L 99.582031 64.171875 L 100 63.800781 L 100.839844 63.113281 L 101.066406 62.941406 L 101.296875 62.773438 L 101.75 62.457031 L 101.976563 62.308594 L 102.207031 62.164063 L 102.660156 61.894531 L 102.773438 61.828125 L 102.886719 61.765625 L 103.117188 61.644531 L 103.570313 61.421875 L 103.683594 61.371094 L 103.796875 61.316406 L 104.027344 61.222656 L 104.480469 61.042969 L 104.707031 60.964844 L 104.9375 60.890625 L 105.050781 60.855469 L 105.503906 60.730469 L 105.621094 60.703125 L 106.074219 60.609375 L 106.300781 60.574219 L 106.414063 60.554688 L 106.53125 60.539063 L 106.984375 60.492188 L 107.097656 60.484375 L 107.210938 60.480469 L 107.324219 60.472656 L 107.441406 60.472656 L 107.554688 60.46875 L 107.78125 60.46875 L 108.121094 60.480469 L 108.230469 60.488281 L 108.441406 60.503906 L 108.757813 60.539063 L 108.867188 60.554688 L 109.078125 60.585938 L 109.183594 60.605469 L 109.398438 60.644531 L 109.609375 60.691406 L 109.820313 60.742188 L 109.929688 60.769531 L 110.035156 60.796875 L 110.351563 60.890625 L 110.457031 60.925781 L 110.671875 60.996094 L 110.777344 61.035156 L 110.882813 61.070313 L 111.097656 61.152344 L 111.519531 61.332031 L 111.628906 61.378906 L 111.945313 61.53125 L 112.371094 61.75 L 112.582031 61.867188 L 112.796875 61.992188 L 113.21875 62.25 L 113.324219 62.316406 L 113.433594 62.386719 L 113.644531 62.53125 L 114.070313 62.832031 L 114.917969 63.488281 L 115.035156 63.585938 L 115.148438 63.683594 L 115.378906 63.878906 L 115.839844 64.292969 L 116.761719 65.1875 L 116.875 65.304688 L 116.992188 65.425781 L 117.222656 65.667969 L 117.679688 66.171875 L 118.601563 67.242188 L 118.71875 67.382813 L 118.832031 67.523438 L 119.0625 67.8125 L 119.523438 68.402344 L 120.441406 69.640625 L 122.285156 72.367188 L 122.398438 72.542969 L 122.738281 73.082031 L 123.1875 73.816406 L 124.09375 75.339844 L 125.898438 78.589844 L 129.515625 85.820313 L 129.621094 86.046875 L 129.726563 86.269531 L 129.9375 86.722656 L 130.359375 87.632813 L 131.203125 89.488281 L 132.886719 93.308594 L 136.261719 101.328125 L 143.574219 119.644531 L 150.402344 136.414063 L 150.507813 136.660156 L 150.613281 136.902344 L 150.820313 137.390625 L 151.242188 138.363281 L 152.078125 140.28125 L 153.75 144.007813 L 153.855469 144.238281 L 153.960938 144.464844 L 154.167969 144.914063 L 154.585938 145.8125 L 155.425781 147.574219 L 157.097656 150.953125 L 157.210938 151.175781 L 157.324219 151.394531 L 157.550781 151.835938 L 158.003906 152.703125 L 158.914063 154.390625 L 160.730469 157.5625 L 161.183594 158.3125 L 161.636719 159.042969 L 162.542969 160.449219 L 164.359375 163.035156 L 164.464844 163.175781 L 164.570313 163.3125 L 164.785156 163.589844 L 165.207031 164.128906 L 166.054688 165.152344 L 166.160156 165.277344 L 166.265625 165.398438 L 166.476563 165.636719 L 166.902344 166.105469 L 167.75 166.980469 L 167.855469 167.085938 L 168.171875 167.390625 L 168.597656 167.78125 L 168.808594 167.96875 L 169.019531 168.152344 L 169.441406 168.503906 L 169.550781 168.589844 L 169.867188 168.835938 L 170.289063 169.148438 L 171.136719 169.710938 L 171.253906 169.78125 L 171.367188 169.851563 L 171.597656 169.984375 L 172.054688 170.234375 L 172.171875 170.292969 L 172.285156 170.351563 L 172.515625 170.460938 L 172.972656 170.660156 L 173.089844 170.707031 L 173.203125 170.753906 L 173.433594 170.839844 L 173.546875 170.878906 L 173.664063 170.917969 L 173.890625 170.992188 L 174.007813 171.027344 L 174.121094 171.058594 L 174.351563 171.121094 L 174.464844 171.148438 L 174.582031 171.175781 L 174.808594 171.226563 L 174.925781 171.25 L 175.039063 171.269531 L 175.15625 171.289063 L 175.269531 171.308594 L 175.382813 171.324219 L 175.5 171.339844 L 175.726563 171.363281 L 175.84375 171.375 L 175.957031 171.382813 L 176.074219 171.390625 L 176.1875 171.398438 L 176.300781 171.402344 L 176.417969 171.402344 L 176.53125 171.40625 L 176.648438 171.40625 L 176.875 171.398438 L 176.992188 171.394531 L 177.105469 171.390625 L 177.21875 171.382813 L 177.335938 171.371094 L 177.449219 171.359375 L 177.566406 171.347656 L 177.679688 171.335938 L 177.792969 171.320313 L 177.910156 171.300781 L 178.023438 171.285156 L 178.140625 171.265625 L 178.253906 171.242188 L 178.484375 171.195313 L 178.597656 171.167969 L 178.707031 171.144531 L 178.933594 171.085938 L 179.046875 171.054688 L 179.160156 171.019531 L 179.382813 170.949219 L 179.496094 170.914063 L 179.609375 170.875 L 179.835938 170.792969 L 180.285156 170.613281 L 180.398438 170.5625 L 180.511719 170.515625 L 180.738281 170.410156 L 181.1875 170.183594 L 181.300781 170.121094 L 181.414063 170.0625 L 181.636719 169.933594 L 182.089844 169.660156 L 182.203125 169.589844 L 182.3125 169.515625 L 182.539063 169.367188 L 182.992188 169.050781 L 183.890625 168.347656 L 184.003906 168.253906 L 184.117188 168.15625 L 184.34375 167.964844 L 184.792969 167.558594 L 185.695313 166.679688 L 185.90625 166.460938 L 186.113281 166.242188 L 186.535156 165.785156 L 187.375 164.816406 L 189.058594 162.664063 L 189.269531 162.375 L 189.476563 162.082031 L 189.898438 161.484375 L 190.738281 160.238281 L 192.421875 157.554688 L 192.535156 157.363281 L 192.648438 157.167969 L 192.875 156.78125 L 193.332031 155.992188 L 194.242188 154.363281 L 196.066406 150.910156 L 199.714844 143.304688 L 199.820313 143.070313 L 199.929688 142.835938 L 200.140625 142.363281 L 200.566406 141.414063 L 201.417969 139.484375 L 203.121094 135.519531 L 206.523438 127.265625 L 213.902344 108.714844 L 221.144531 91.277344 L 221.25 91.035156 L 221.355469 90.796875 L 221.566406 90.324219 L 221.988281 89.382813 L 222.835938 87.527344 L 224.523438 83.945313 L 224.628906 83.730469 L 224.734375 83.511719 L 224.945313 83.082031 L 225.367188 82.226563 L 226.210938 80.554688 L 227.902344 77.375 L 228.015625 77.167969 L 228.132813 76.960938 L 228.359375 76.550781 L 228.816406 75.746094 L 229.734375 74.183594 L 229.847656 73.996094 L 229.960938 73.804688 L 230.191406 73.429688 L 230.648438 72.695313 L 231.566406 71.285156 L 231.679688 71.113281 L 231.792969 70.945313 L 232.023438 70.609375 L 232.480469 69.949219 L 233.398438 68.695313 L 235.226563 66.4375 L 235.335938 66.316406 L 235.441406 66.195313 L 235.65625 65.957031 L 236.082031 65.5 L 236.9375 64.636719 L 237.046875 64.535156 L 237.152344 64.433594 L 237.367188 64.238281 L 237.792969 63.855469 L 238.648438 63.152344 L 238.753906 63.070313 L 238.863281 62.988281 L 239.074219 62.828125 L 239.503906 62.527344 L 239.609375 62.453125 L 239.71875 62.382813 L 239.929688 62.246094 L 240.359375 61.984375 L 240.464844 61.921875 L 240.574219 61.863281 L 240.785156 61.742188 L 241.214844 61.523438 L 241.425781 61.421875 L 241.640625 61.324219 L 242.070313 61.144531 L 242.171875 61.105469 L 242.277344 61.066406 L 242.488281 60.992188 L 242.59375 60.953125 L 242.699219 60.921875 L 242.90625 60.855469 L 243.011719 60.824219 L 243.117188 60.796875 L 243.324219 60.742188 L 243.429688 60.714844 L 243.746094 60.644531 L 243.851563 60.625 L 243.953125 60.605469 L 244.058594 60.589844 L 244.164063 60.570313 L 244.269531 60.554688 L 244.375 60.542969 L 244.480469 60.527344 L 244.582031 60.515625 L 244.6875 60.507813 L 244.792969 60.496094 L 244.898438 60.488281 L 245.003906 60.484375 L 245.105469 60.476563 L 245.316406 60.46875 L 245.632813 60.46875 L 245.734375 60.472656 L 246.050781 60.484375 L 246.261719 60.5 L 246.363281 60.511719 L 246.679688 60.546875 L 246.890625 60.578125 L 247.097656 60.617188 L 247.308594 60.65625 L 247.515625 60.703125 L 247.621094 60.726563 L 247.9375 60.808594 L 248.042969 60.839844 L 248.144531 60.871094 L 248.355469 60.9375 L 248.773438 61.085938 L 248.886719 61.128906 L 249.003906 61.171875 L 249.230469 61.269531 L 249.683594 61.472656 L 249.796875 61.53125 L 249.910156 61.585938 L 250.140625 61.703125 L 250.59375 61.957031 L 250.820313 62.089844 L 251.046875 62.234375 L 251.503906 62.53125 L 252.414063 63.199219 L 252.640625 63.378906 L 252.867188 63.566406 L 253.320313 63.957031 L 254.230469 64.804688 L 254.34375 64.914063 L 254.6875 65.257813 L 255.140625 65.738281 L 256.050781 66.757813 L 256.261719 67.007813 L 256.472656 67.261719 L 256.898438 67.785156 L 257.746094 68.886719 L 259.445313 71.300781 L 259.550781 71.457031 L 259.65625 71.621094 L 259.867188 71.945313 L 260.292969 72.605469 L 261.140625 73.976563 L 262.839844 76.90625 L 262.953125 77.113281 L 263.070313 77.320313 L 263.296875 77.742188 L 263.757813 78.59375 L 264.679688 80.34375 L 266.519531 84.03125 L 270.195313 92.050781 L 277.421875 109.519531 L 284.160156 126.476563 L 284.273438 126.761719 L 284.386719 127.042969 L 284.613281 127.609375 L 285.070313 128.734375 L 285.984375 130.96875 L 287.8125 135.355469 L 291.464844 143.699219 L 291.570313 143.933594 L 291.679688 144.164063 L 291.890625 144.628906 L 292.316406 145.542969 L 293.171875 147.34375 L 294.875 150.800781 L 294.980469 151.007813 L 295.089844 151.21875 L 295.300781 151.632813 L 295.726563 152.449219 L 296.582031 154.042969 L 298.285156 157.058594 L 298.496094 157.410156 L 298.703125 157.761719 L 299.121094 158.445313 L 299.957031 159.773438 L 300.167969 160.09375 L 300.375 160.410156 L 300.792969 161.035156 L 301.628906 162.234375 L 301.734375 162.378906 L 301.839844 162.519531 L 302.046875 162.804688 L 302.464844 163.363281 L 303.300781 164.421875 L 304.972656 166.332031 L 305.085938 166.453125 L 305.199219 166.570313 L 305.425781 166.800781 L 305.878906 167.25 L 305.992188 167.355469 L 306.105469 167.464844 L 306.332031 167.671875 L 306.785156 168.074219 L 307.011719 168.269531 L 307.238281 168.457031 L 307.691406 168.8125 L 308.601563 169.460938 L 308.828125 169.609375 L 309.054688 169.75 L 309.507813 170.015625 L 309.734375 170.140625 L 309.960938 170.257813 L 310.414063 170.480469 L 310.640625 170.582031 L 310.980469 170.722656 L 311.320313 170.851563 L 311.546875 170.929688 L 311.886719 171.035156 L 312.226563 171.128906 L 312.332031 171.152344 L 312.4375 171.179688 L 312.546875 171.203125 L 312.652344 171.222656 L 312.757813 171.246094 L 312.863281 171.265625 L 313.074219 171.300781 L 313.285156 171.332031 L 313.601563 171.367188 L 313.8125 171.382813 L 313.921875 171.390625 L 314.027344 171.394531 L 314.132813 171.402344 L 314.238281 171.402344 L 314.34375 171.40625 L 314.554688 171.40625 L 314.871094 171.394531 L 314.976563 171.386719 L 315.082031 171.382813 L 315.1875 171.371094 L 315.296875 171.363281 L 315.507813 171.339844 L 315.929688 171.277344 L 316.140625 171.238281 L 316.5625 171.144531 L 316.671875 171.117188 L 316.882813 171.058594 L 317.304688 170.929688 L 317.410156 170.894531 L 317.515625 170.855469 L 317.726563 170.78125 L 318.152344 170.609375 L 318.363281 170.515625 L 318.574219 170.417969 L 319.113281 170.148438 L 319.226563 170.085938 L 319.457031 169.957031 L 319.914063 169.679688 L 320.027344 169.609375 L 320.144531 169.535156 L 320.375 169.382813 L 320.832031 169.058594 L 320.945313 168.976563 L 321.0625 168.890625 L 321.289063 168.714844 L 321.75 168.347656 L 322.667969 167.542969 L 322.894531 167.324219 L 323.125 167.105469 L 323.582031 166.644531 L 324.5 165.660156 L 326.335938 163.433594 L 326.441406 163.292969 L 326.550781 163.152344 L 326.765625 162.867188 L 327.191406 162.28125 L 328.046875 161.054688 L 329.761719 158.402344 L 329.867188 158.226563 L 329.976563 158.050781 L 330.191406 157.695313 L 330.617188 156.976563 L 331.476563 155.488281 L 333.1875 152.335938 L 333.292969 152.132813 L 333.398438 151.933594 L 333.609375 151.527344 L 334.027344 150.707031 L 334.867188 149.027344 L 336.546875 145.527344 L 339.90625 138.023438 L 347.195313 120.226563 L 353.996094 103.152344 L 354.109375 102.871094 L 354.226563 102.585938 L 354.457031 102.023438 L 354.914063 100.898438 L 355.835938 98.671875 L 357.679688 94.308594 L 357.792969 94.042969 L 357.910156 93.773438 L 358.140625 93.242188 L 358.601563 92.183594 L 359.523438 90.101563 L 361.363281 86.074219 L 361.476563 85.835938 L 361.589844 85.59375 L 361.816406 85.117188 L 362.269531 84.175781 L 363.171875 82.328125 L 364.984375 78.808594 L 365.09375 78.59375 L 365.207031 78.382813 L 365.433594 77.964844 L 365.886719 77.140625 L 366.792969 75.539063 L 368.601563 72.546875 L 368.707031 72.382813 L 368.8125 72.214844 L 369.023438 71.890625 L 369.445313 71.25 L 370.289063 70.019531 L 370.5 69.722656 L 370.710938 69.429688 L 371.132813 68.859375 L 371.976563 67.765625 L 372.082031 67.632813 L 372.398438 67.246094 L 372.820313 66.742188 L 373.664063 65.792969 L 373.769531 65.679688 L 373.875 65.570313 L 374.085938 65.347656 L 374.507813 64.917969 L 375.351563 64.121094 L 375.578125 63.917969 L 375.808594 63.71875 L 376.265625 63.339844 L 376.492188 63.160156 L 376.722656 62.984375 L 377.179688 62.652344 L 377.292969 62.570313 L 377.410156 62.492188 L 377.636719 62.34375 L 378.09375 62.054688 L 378.210938 61.988281 L 378.324219 61.921875 L 378.550781 61.792969 L 379.011719 61.554688 L 379.125 61.496094 L 379.238281 61.441406 L 379.46875 61.335938 L 379.582031 61.289063 L 379.695313 61.238281 L 379.925781 61.144531 L 380.152344 61.058594 L 380.382813 60.976563 L 380.496094 60.9375 L 380.609375 60.902344 L 380.839844 60.832031 L 381.066406 60.769531 L 381.296875 60.710938 L 381.410156 60.6875 L 381.527344 60.660156 L 381.753906 60.617188 L 381.867188 60.597656 L 381.984375 60.578125 L 382.097656 60.558594 L 382.210938 60.542969 L 382.328125 60.53125 L 382.441406 60.515625 L 382.554688 60.503906 L 382.667969 60.496094 L 382.777344 60.488281 L 382.882813 60.480469 L 382.988281 60.476563 L 383.097656 60.472656 L 383.203125 60.46875 L 383.523438 60.46875 L 383.628906 60.472656 L 383.738281 60.476563 L 383.84375 60.480469 L 383.949219 60.488281 L 384.058594 60.496094 L 384.164063 60.507813 L 384.269531 60.515625 L 384.378906 60.527344 L 384.484375 60.542969 L 384.589844 60.554688 L 384.699219 60.570313 L 384.910156 60.609375 L 385.019531 60.628906 L 385.230469 60.671875 L 385.339844 60.695313 L 385.445313 60.71875 L 385.660156 60.773438 L 385.765625 60.800781 L 385.871094 60.832031 L 386.085938 60.898438 L 386.191406 60.929688 L 386.300781 60.96875 L 386.511719 61.042969 L 386.941406 61.207031 L 387.046875 61.25 L 387.152344 61.296875 L 387.367188 61.394531 L 387.792969 61.597656 L 387.902344 61.652344 L 388.007813 61.710938 L 388.222656 61.828125 L 388.648438 62.074219 L 389.503906 62.628906 L 389.605469 62.703125 L 389.710938 62.78125 L 389.921875 62.933594 L 390.339844 63.253906 L 391.175781 63.957031 L 391.28125 64.046875 L 391.386719 64.140625 L 391.59375 64.335938 L 392.015625 64.730469 L 392.851563 65.582031 L 393.0625 65.808594 L 393.269531 66.035156 L 393.6875 66.507813 L 394.527344 67.503906 L 396.199219 69.707031 L 396.3125 69.863281 L 396.429688 70.023438 L 396.65625 70.351563 L 397.109375 71.015625 L 398.015625 72.398438 L 399.835938 75.390625 L 399.949219 75.585938 L 400.289063 76.183594 L 400.742188 76.992188 L 401.652344 78.660156 L 403.46875 82.1875 L 403.574219 82.398438 L 403.890625 83.042969 L 404.316406 83.910156 L 405.164063 85.683594 L 406.859375 89.363281 L 410.25 97.175781 L 410.484375 97.738281 L 410.722656 98.304688 L 411.195313 99.445313 L 412.140625 101.742188 L 414.035156 106.414063 L 414.152344 106.710938 L 414.269531 107.003906 L 414.507813 107.59375 L 414.980469 108.78125 L 415.925781 111.160156 L 416.046875 111.457031 L 416.164063 111.753906 L 416.402344 112.351563 L 416.875 113.546875 L 416.992188 113.84375 L 417.109375 114.144531 L 417.347656 114.742188 L 417.464844 115.039063 L 417.582031 115.339844 L 417.703125 115.636719 L 417.820313 115.9375 " transform="matrix(1,0,0,1,-66,-5)"/>
</g>
</g>
</svg>
