<?xml version="1.0" encoding="UTF-8"?>
<svg xmlns="http://www.w3.org/2000/svg" xmlns:xlink="http://www.w3.org/1999/xlink" width="270pt" height="167pt" viewBox="0 0 270 167" version="1.1">
<defs>
<clipPath id="clip1">
  <path d="M 0 0 L 270 0 L 270 166.800781 L 0 166.800781 Z M 0 0 "/>
</clipPath>
</defs>
<g id="surface1">
<g clip-path="url(#clip1)" clip-rule="nonzero">
<path style="fill:none;stroke-width:2.7;stroke-linecap:square;stroke-linejoin:miter;stroke:rgb(78.430176%,0%,0%);stroke-opacity:1;stroke-miterlimit:3.25;" d="M 5.398438 83.433594 L 5.480469 83.496094 L 5.558594 83.5625 L 5.71875 83.6875 L 6.035156 83.949219 L 6.671875 84.484375 L 7.945313 85.613281 L 10.488281 87.996094 L 10.832031 88.324219 L 11.175781 88.648438 L 11.867188 89.289063 L 13.246094 90.527344 L 13.332031 90.605469 L 13.417969 90.679688 L 13.933594 91.113281 L 14.625 91.667969 L 14.796875 91.800781 L 14.96875 91.929688 L 15.3125 92.183594 L 16.003906 92.65625 L 16.082031 92.707031 L 16.164063 92.757813 L 16.324219 92.859375 L 16.648438 93.050781 L 16.726563 93.097656 L 16.808594 93.144531 L 16.96875 93.230469 L 17.289063 93.398438 L 17.371094 93.441406 L 17.453125 93.480469 L 17.613281 93.554688 L 17.933594 93.695313 L 18.015625 93.730469 L 18.09375 93.761719 L 18.257813 93.824219 L 18.578125 93.933594 L 18.660156 93.960938 L 18.738281 93.984375 L 18.902344 94.03125 L 18.980469 94.054688 L 19.0625 94.074219 L 19.222656 94.113281 L 19.304688 94.132813 L 19.382813 94.148438 L 19.464844 94.164063 L 19.542969 94.179688 L 19.707031 94.203125 L 19.785156 94.214844 L 19.867188 94.226563 L 19.945313 94.234375 L 20.027344 94.246094 L 20.109375 94.25 L 20.1875 94.257813 L 20.269531 94.261719 L 20.347656 94.265625 L 20.429688 94.269531 L 20.511719 94.269531 L 20.589844 94.273438 L 20.671875 94.273438 L 20.75 94.269531 L 20.914063 94.261719 L 20.992188 94.257813 L 21.074219 94.25 L 21.152344 94.246094 L 21.234375 94.234375 L 21.3125 94.226563 L 21.546875 94.191406 L 21.628906 94.175781 L 21.863281 94.128906 L 21.941406 94.109375 L 22.101563 94.066406 L 22.179688 94.046875 L 22.257813 94.023438 L 22.414063 93.972656 L 22.496094 93.945313 L 22.574219 93.914063 L 22.730469 93.855469 L 22.808594 93.824219 L 22.890625 93.789063 L 23.046875 93.722656 L 23.203125 93.644531 L 23.363281 93.566406 L 23.679688 93.394531 L 23.835938 93.300781 L 23.992188 93.199219 L 24.308594 92.988281 L 24.386719 92.929688 L 24.46875 92.871094 L 24.625 92.753906 L 24.941406 92.5 L 25.097656 92.367188 L 25.257813 92.226563 L 25.570313 91.933594 L 26.203125 91.292969 L 26.289063 91.199219 L 26.375 91.101563 L 26.546875 90.910156 L 26.886719 90.503906 L 27.570313 89.628906 L 27.65625 89.515625 L 27.742188 89.398438 L 27.914063 89.160156 L 28.257813 88.667969 L 28.941406 87.625 L 29.113281 87.351563 L 29.285156 87.074219 L 29.625 86.503906 L 30.3125 85.3125 L 31.679688 82.734375 L 31.757813 82.578125 L 31.839844 82.421875 L 32.320313 81.460938 L 32.957031 80.148438 L 34.234375 77.445313 L 34.316406 77.273438 L 34.394531 77.101563 L 34.554688 76.757813 L 34.875 76.066406 L 35.511719 74.6875 L 36.792969 71.953125 L 36.964844 71.585938 L 37.136719 71.222656 L 37.484375 70.503906 L 38.175781 69.097656 L 38.347656 68.753906 L 38.523438 68.414063 L 38.867188 67.746094 L 39.5625 66.464844 L 39.648438 66.308594 L 39.90625 65.851563 L 40.253906 65.257813 L 40.945313 64.148438 L 41.03125 64.015625 L 41.121094 63.886719 L 41.292969 63.628906 L 41.636719 63.140625 L 42.332031 62.25 L 42.414063 62.152344 L 42.5 62.050781 L 42.671875 61.859375 L 43.011719 61.503906 L 43.179688 61.335938 L 43.351563 61.179688 L 43.691406 60.886719 L 43.777344 60.820313 L 43.859375 60.757813 L 44.03125 60.632813 L 44.117188 60.578125 L 44.199219 60.523438 L 44.371094 60.417969 L 44.457031 60.371094 L 44.539063 60.324219 L 44.710938 60.238281 L 44.796875 60.199219 L 44.878906 60.164063 L 45.136719 60.070313 L 45.21875 60.046875 L 45.304688 60.019531 L 45.476563 59.980469 L 45.558594 59.964844 L 45.730469 59.941406 L 45.816406 59.933594 L 45.898438 59.929688 L 45.984375 59.925781 L 46.070313 59.925781 L 46.15625 59.929688 L 46.238281 59.933594 L 46.324219 59.941406 L 46.496094 59.964844 L 46.578125 59.980469 L 46.75 60.019531 L 46.835938 60.046875 L 46.917969 60.074219 L 47.003906 60.101563 L 47.089844 60.132813 L 47.175781 60.167969 L 47.257813 60.207031 L 47.429688 60.292969 L 47.515625 60.339844 L 47.597656 60.386719 L 47.769531 60.496094 L 47.847656 60.550781 L 47.929688 60.605469 L 48.085938 60.726563 L 48.164063 60.789063 L 48.246094 60.855469 L 48.402344 60.996094 L 48.484375 61.070313 L 48.5625 61.144531 L 48.722656 61.304688 L 49.039063 61.65625 L 49.195313 61.84375 L 49.355469 62.046875 L 49.671875 62.476563 L 49.75 62.589844 L 49.832031 62.707031 L 49.988281 62.945313 L 50.304688 63.457031 L 50.386719 63.589844 L 50.464844 63.726563 L 50.625 64.003906 L 50.941406 64.59375 L 51.574219 65.890625 L 51.652344 66.0625 L 51.734375 66.238281 L 51.890625 66.59375 L 52.207031 67.335938 L 52.84375 68.933594 L 52.929688 69.160156 L 53.015625 69.390625 L 53.1875 69.859375 L 53.53125 70.824219 L 54.21875 72.871094 L 55.59375 77.394531 L 55.679688 77.691406 L 55.9375 78.605469 L 56.28125 79.84375 L 56.96875 82.398438 L 58.34375 87.761719 L 58.421875 88.082031 L 58.503906 88.402344 L 58.984375 90.347656 L 59.628906 92.960938 L 60.910156 98.21875 L 60.992188 98.546875 L 61.070313 98.871094 L 61.230469 99.523438 L 61.554688 100.824219 L 62.195313 103.390625 L 63.480469 108.332031 L 63.558594 108.625 L 63.792969 109.492188 L 64.109375 110.628906 L 64.738281 112.816406 L 64.816406 113.078125 L 64.894531 113.34375 L 65.050781 113.863281 L 65.367188 114.878906 L 65.996094 116.800781 L 66.074219 117.03125 L 66.152344 117.257813 L 66.3125 117.707031 L 66.625 118.570313 L 66.78125 118.984375 L 66.941406 119.390625 L 67.253906 120.164063 L 67.332031 120.351563 L 67.410156 120.535156 L 67.570313 120.894531 L 67.882813 121.574219 L 67.960938 121.734375 L 68.042969 121.894531 L 68.199219 122.203125 L 68.511719 122.785156 L 68.597656 122.933594 L 68.683594 123.074219 L 68.855469 123.351563 L 68.941406 123.484375 L 69.027344 123.613281 L 69.195313 123.855469 L 69.28125 123.972656 L 69.367188 124.082031 L 69.539063 124.292969 L 69.621094 124.394531 L 69.707031 124.488281 L 69.878906 124.664063 L 69.964844 124.746094 L 70.050781 124.824219 L 70.136719 124.894531 L 70.21875 124.964844 L 70.390625 125.089844 L 70.476563 125.144531 L 70.5625 125.195313 L 70.648438 125.242188 L 70.734375 125.28125 L 70.816406 125.320313 L 70.988281 125.382813 L 71.074219 125.40625 L 71.246094 125.4375 L 71.328125 125.445313 L 71.414063 125.453125 L 71.5 125.453125 L 71.585938 125.449219 L 71.757813 125.425781 L 71.84375 125.40625 L 71.925781 125.382813 L 72.011719 125.355469 L 72.097656 125.320313 L 72.183594 125.28125 L 72.269531 125.238281 L 72.355469 125.191406 L 72.4375 125.140625 L 72.609375 125.023438 L 72.78125 124.882813 L 72.953125 124.726563 L 73.035156 124.640625 L 73.121094 124.546875 L 73.292969 124.351563 L 73.378906 124.246094 L 73.464844 124.136719 L 73.632813 123.898438 L 73.976563 123.371094 L 74.054688 123.234375 L 74.136719 123.09375 L 74.292969 122.804688 L 74.613281 122.171875 L 74.691406 122 L 74.773438 121.828125 L 74.929688 121.46875 L 75.25 120.703125 L 75.328125 120.5 L 75.410156 120.292969 L 75.570313 119.867188 L 75.886719 118.964844 L 76.523438 116.96875 L 76.605469 116.699219 L 76.683594 116.429688 L 76.84375 115.871094 L 77.160156 114.714844 L 77.796875 112.21875 L 77.878906 111.890625 L 77.957031 111.558594 L 78.117188 110.878906 L 78.433594 109.488281 L 79.074219 106.535156 L 79.160156 106.117188 L 79.246094 105.695313 L 79.417969 104.84375 L 79.761719 103.097656 L 80.453125 99.441406 L 81.835938 91.554688 L 84.597656 74.253906 L 84.683594 73.707031 L 84.765625 73.15625 L 84.9375 72.0625 L 85.273438 69.867188 L 85.953125 65.488281 L 87.308594 56.886719 L 87.394531 56.359375 L 87.480469 55.835938 L 87.648438 54.792969 L 87.988281 52.726563 L 88.664063 48.707031 L 90.019531 41.199219 L 90.101563 40.789063 L 90.179688 40.378906 L 90.335938 39.574219 L 90.652344 38 L 91.285156 35.023438 L 91.363281 34.671875 L 91.445313 34.320313 L 91.601563 33.628906 L 91.917969 32.296875 L 92.550781 29.835938 L 92.707031 29.265625 L 92.867188 28.714844 L 93.183594 27.664063 L 93.261719 27.414063 L 93.339844 27.167969 L 93.5 26.691406 L 93.816406 25.796875 L 93.894531 25.585938 L 93.972656 25.378906 L 94.132813 24.984375 L 94.210938 24.792969 L 94.289063 24.609375 L 94.445313 24.253906 L 94.527344 24.082031 L 94.605469 23.917969 L 94.761719 23.605469 L 94.84375 23.457031 L 94.921875 23.316406 L 95.078125 23.046875 L 95.164063 22.910156 L 95.25 22.777344 L 95.335938 22.652344 L 95.421875 22.535156 L 95.507813 22.425781 L 95.59375 22.320313 L 95.765625 22.132813 L 95.851563 22.046875 L 95.9375 21.96875 L 96.023438 21.898438 L 96.109375 21.832031 L 96.195313 21.773438 L 96.28125 21.722656 L 96.367188 21.679688 L 96.449219 21.640625 L 96.535156 21.609375 L 96.621094 21.585938 L 96.707031 21.570313 L 96.792969 21.558594 L 96.878906 21.554688 L 96.964844 21.558594 L 97.050781 21.570313 L 97.136719 21.585938 L 97.222656 21.609375 L 97.308594 21.640625 L 97.394531 21.679688 L 97.480469 21.722656 L 97.566406 21.777344 L 97.652344 21.835938 L 97.738281 21.902344 L 97.824219 21.972656 L 97.910156 22.054688 L 97.992188 22.140625 L 98.078125 22.234375 L 98.164063 22.332031 L 98.25 22.441406 L 98.335938 22.554688 L 98.507813 22.804688 L 98.59375 22.941406 L 98.679688 23.082031 L 98.851563 23.390625 L 99.195313 24.082031 L 99.28125 24.273438 L 99.367188 24.472656 L 99.535156 24.886719 L 99.878906 25.804688 L 99.964844 26.050781 L 100.050781 26.300781 L 100.222656 26.828125 L 100.566406 27.960938 L 100.644531 28.238281 L 100.726563 28.523438 L 100.886719 29.113281 L 101.207031 30.359375 L 101.847656 33.117188 L 101.925781 33.484375 L 102.003906 33.859375 L 102.164063 34.625 L 102.484375 36.222656 L 103.125 39.660156 L 103.207031 40.109375 L 103.285156 40.566406 L 103.445313 41.496094 L 103.765625 43.410156 L 104.40625 47.453125 L 105.6875 56.324219 L 105.773438 56.957031 L 105.859375 57.597656 L 106.03125 58.886719 L 106.378906 61.507813 L 107.074219 66.914063 L 108.460938 78.234375 L 111.234375 101.71875 L 111.40625 103.148438 L 111.574219 104.574219 L 111.914063 107.40625 L 112.597656 112.980469 L 113.957031 123.621094 L 114.042969 124.257813 L 114.128906 124.890625 L 114.300781 126.144531 L 114.640625 128.605469 L 115.320313 133.3125 L 115.40625 133.878906 L 115.492188 134.441406 L 115.660156 135.550781 L 116 137.710938 L 116.683594 141.761719 L 116.761719 142.210938 L 116.839844 142.652344 L 117 143.523438 L 117.316406 145.203125 L 117.398438 145.609375 L 117.476563 146.007813 L 117.636719 146.792969 L 117.953125 148.289063 L 118.03125 148.648438 L 118.113281 149.003906 L 118.269531 149.695313 L 118.589844 151.003906 L 118.667969 151.316406 L 118.746094 151.621094 L 118.90625 152.214844 L 119.222656 153.324219 L 119.304688 153.585938 L 119.382813 153.839844 L 119.542969 154.332031 L 119.621094 154.566406 L 119.699219 154.792969 L 119.859375 155.234375 L 119.9375 155.441406 L 120.019531 155.644531 L 120.175781 156.027344 L 120.496094 156.71875 L 120.574219 156.871094 L 120.652344 157.019531 L 120.8125 157.296875 L 120.890625 157.425781 L 120.96875 157.546875 L 121.128906 157.765625 L 121.207031 157.867188 L 121.289063 157.957031 L 121.367188 158.042969 L 121.445313 158.125 L 121.527344 158.195313 L 121.605469 158.261719 L 121.683594 158.316406 L 121.765625 158.367188 L 121.851563 158.414063 L 121.9375 158.453125 L 122.023438 158.484375 L 122.109375 158.507813 L 122.195313 158.519531 L 122.28125 158.527344 L 122.367188 158.523438 L 122.453125 158.511719 L 122.539063 158.492188 L 122.625 158.464844 L 122.710938 158.425781 L 122.796875 158.382813 L 122.882813 158.328125 L 122.96875 158.269531 L 123.054688 158.199219 L 123.140625 158.121094 L 123.226563 158.035156 L 123.316406 157.9375 L 123.402344 157.835938 L 123.488281 157.722656 L 123.574219 157.605469 L 123.660156 157.476563 L 123.832031 157.195313 L 123.917969 157.042969 L 124.003906 156.878906 L 124.175781 156.53125 L 124.261719 156.347656 L 124.347656 156.152344 L 124.519531 155.738281 L 124.605469 155.519531 L 124.691406 155.292969 L 124.863281 154.816406 L 125.207031 153.761719 L 125.292969 153.480469 L 125.378906 153.1875 L 125.554688 152.582031 L 125.898438 151.277344 L 125.984375 150.933594 L 126.070313 150.578125 L 126.242188 149.851563 L 126.585938 148.300781 L 127.273438 144.851563 L 127.355469 144.417969 L 127.4375 143.980469 L 127.597656 143.085938 L 127.917969 141.226563 L 128.5625 137.234375 L 129.847656 128.242188 L 129.925781 127.640625 L 130.007813 127.035156 L 130.167969 125.808594 L 130.488281 123.300781 L 131.132813 118.105469 L 132.417969 107.082031 L 132.5 106.386719 L 132.734375 104.277344 L 133.050781 101.4375 L 133.679688 95.683594 L 134.941406 83.984375 L 135.097656 82.515625 L 135.257813 81.042969 L 135.570313 78.109375 L 136.203125 72.269531 L 137.464844 60.828125 L 137.546875 60.070313 L 137.632813 59.316406 L 137.804688 57.8125 L 138.148438 54.839844 L 138.832031 49.058594 L 138.917969 48.355469 L 139 47.652344 L 139.171875 46.261719 L 139.515625 43.527344 L 140.199219 38.285156 L 140.285156 37.652344 L 140.371094 37.023438 L 140.539063 35.785156 L 140.882813 33.371094 L 141.566406 28.816406 L 141.652344 28.273438 L 141.738281 27.738281 L 141.910156 26.6875 L 142.25 24.65625 L 142.933594 20.921875 L 143.015625 20.515625 L 143.09375 20.113281 L 143.253906 19.332031 L 143.574219 17.839844 L 143.652344 17.484375 L 143.730469 17.132813 L 143.890625 16.453125 L 144.210938 15.167969 L 144.289063 14.863281 L 144.371094 14.566406 L 144.53125 13.988281 L 144.847656 12.921875 L 144.929688 12.671875 L 145.007813 12.425781 L 145.167969 11.960938 L 145.488281 11.113281 L 145.566406 10.917969 L 145.648438 10.730469 L 145.804688 10.375 L 145.886719 10.207031 L 145.964844 10.046875 L 146.125 9.75 L 146.207031 9.613281 L 146.285156 9.480469 L 146.363281 9.355469 L 146.445313 9.238281 L 146.523438 9.128906 L 146.605469 9.027344 L 146.765625 8.84375 L 146.84375 8.761719 L 146.921875 8.6875 L 147.003906 8.621094 L 147.082031 8.5625 L 147.164063 8.507813 L 147.242188 8.464844 L 147.324219 8.425781 L 147.402344 8.394531 L 147.480469 8.371094 L 147.5625 8.355469 L 147.640625 8.34375 L 147.722656 8.34375 L 147.800781 8.347656 L 147.878906 8.359375 L 147.960938 8.378906 L 148.039063 8.40625 L 148.125 8.441406 L 148.214844 8.488281 L 148.300781 8.542969 L 148.386719 8.601563 L 148.472656 8.671875 L 148.558594 8.753906 L 148.644531 8.839844 L 148.730469 8.933594 L 148.820313 9.039063 L 148.90625 9.148438 L 148.992188 9.269531 L 149.078125 9.398438 L 149.164063 9.535156 L 149.25 9.679688 L 149.421875 9.992188 L 149.511719 10.160156 L 149.597656 10.335938 L 149.769531 10.714844 L 149.855469 10.917969 L 149.941406 11.125 L 150.117188 11.570313 L 150.203125 11.800781 L 150.289063 12.042969 L 150.460938 12.546875 L 150.808594 13.648438 L 150.894531 13.945313 L 150.980469 14.246094 L 151.152344 14.875 L 151.5 16.214844 L 151.585938 16.570313 L 151.671875 16.933594 L 151.84375 17.675781 L 152.191406 19.246094 L 152.277344 19.65625 L 152.363281 20.074219 L 152.535156 20.929688 L 152.882813 22.714844 L 153.574219 26.59375 L 153.660156 27.097656 L 153.742188 27.605469 L 153.914063 28.636719 L 154.253906 30.769531 L 154.933594 35.273438 L 156.289063 45.136719 L 159.007813 67.191406 L 159.164063 68.535156 L 159.324219 69.875 L 159.640625 72.566406 L 160.273438 77.957031 L 161.539063 88.648438 L 161.621094 89.308594 L 161.699219 89.96875 L 161.859375 91.28125 L 162.175781 93.886719 L 162.808594 99.007813 L 164.074219 108.785156 L 164.160156 109.421875 L 164.246094 110.050781 L 164.417969 111.304688 L 164.761719 113.757813 L 165.449219 118.460938 L 165.535156 119.027344 L 165.621094 119.589844 L 165.792969 120.695313 L 166.136719 122.855469 L 166.820313 126.917969 L 166.90625 127.402344 L 166.992188 127.878906 L 167.164063 128.816406 L 167.507813 130.621094 L 167.59375 131.058594 L 167.679688 131.488281 L 167.851563 132.332031 L 168.195313 133.945313 L 168.28125 134.332031 L 168.367188 134.710938 L 168.539063 135.457031 L 168.882813 136.863281 L 168.96875 137.199219 L 169.054688 137.53125 L 169.226563 138.171875 L 169.570313 139.367188 L 169.648438 139.632813 L 169.730469 139.890625 L 169.890625 140.390625 L 170.210938 141.320313 L 170.292969 141.535156 L 170.371094 141.746094 L 170.53125 142.152344 L 170.851563 142.886719 L 170.933594 143.054688 L 171.011719 143.21875 L 171.171875 143.523438 L 171.253906 143.667969 L 171.332031 143.808594 L 171.492188 144.066406 L 171.574219 144.1875 L 171.652344 144.300781 L 171.734375 144.410156 L 171.8125 144.511719 L 171.894531 144.605469 L 171.972656 144.695313 L 172.132813 144.855469 L 172.214844 144.929688 L 172.296875 144.992188 L 172.375 145.054688 L 172.457031 145.105469 L 172.535156 145.152344 L 172.617188 145.195313 L 172.695313 145.230469 L 172.777344 145.257813 L 172.855469 145.28125 L 172.9375 145.296875 L 173.015625 145.308594 L 173.097656 145.3125 L 173.175781 145.3125 L 173.257813 145.304688 L 173.335938 145.292969 L 173.417969 145.273438 L 173.496094 145.246094 L 173.578125 145.214844 L 173.65625 145.179688 L 173.738281 145.136719 L 173.816406 145.085938 L 173.898438 145.03125 L 173.976563 144.972656 L 174.058594 144.90625 L 174.136719 144.832031 L 174.21875 144.753906 L 174.300781 144.671875 L 174.378906 144.582031 L 174.460938 144.484375 L 174.539063 144.382813 L 174.699219 144.164063 L 174.777344 144.046875 L 174.855469 143.925781 L 175.015625 143.667969 L 175.09375 143.53125 L 175.171875 143.386719 L 175.328125 143.085938 L 175.40625 142.925781 L 175.484375 142.761719 L 175.640625 142.417969 L 175.957031 141.667969 L 176.035156 141.46875 L 176.113281 141.261719 L 176.269531 140.835938 L 176.585938 139.925781 L 177.214844 137.875 L 177.292969 137.597656 L 177.371094 137.316406 L 177.527344 136.742188 L 177.84375 135.535156 L 178.472656 132.921875 L 178.550781 132.578125 L 178.628906 132.230469 L 178.785156 131.519531 L 179.101563 130.058594 L 179.726563 126.960938 L 179.898438 126.085938 L 180.070313 125.195313 L 180.410156 123.367188 L 181.09375 119.5625 L 182.457031 111.429688 L 185.183594 94.019531 L 185.265625 93.507813 L 185.34375 92.992188 L 185.503906 91.964844 L 185.820313 89.914063 L 186.457031 85.847656 L 187.730469 77.925781 L 187.808594 77.441406 L 187.890625 76.960938 L 188.050781 76.003906 L 188.367188 74.117188 L 189.003906 70.441406 L 190.277344 63.566406 L 190.449219 62.691406 L 190.621094 61.828125 L 190.964844 60.148438 L 191.65625 56.976563 L 191.742188 56.597656 L 191.828125 56.222656 L 192 55.484375 L 192.347656 54.0625 L 193.035156 51.429688 L 193.121094 51.121094 L 193.207031 50.816406 L 193.382813 50.222656 L 193.726563 49.085938 L 193.898438 48.546875 L 194.070313 48.027344 L 194.414063 47.046875 L 194.503906 46.8125 L 194.589844 46.582031 L 194.761719 46.140625 L 195.105469 45.3125 L 195.277344 44.929688 L 195.449219 44.566406 L 195.796875 43.898438 L 195.875 43.753906 L 195.957031 43.613281 L 196.117188 43.347656 L 196.199219 43.21875 L 196.277344 43.097656 L 196.441406 42.863281 L 196.519531 42.753906 L 196.601563 42.648438 L 196.761719 42.453125 L 196.84375 42.359375 L 196.921875 42.273438 L 197.085938 42.109375 L 197.164063 42.035156 L 197.246094 41.964844 L 197.324219 41.898438 L 197.40625 41.835938 L 197.488281 41.777344 L 197.566406 41.722656 L 197.648438 41.675781 L 197.726563 41.628906 L 197.808594 41.589844 L 197.890625 41.554688 L 197.96875 41.523438 L 198.050781 41.496094 L 198.128906 41.472656 L 198.210938 41.453125 L 198.292969 41.4375 L 198.371094 41.425781 L 198.453125 41.417969 L 198.613281 41.417969 L 198.695313 41.425781 L 198.773438 41.433594 L 198.855469 41.449219 L 198.9375 41.46875 L 199.015625 41.488281 L 199.097656 41.515625 L 199.175781 41.546875 L 199.257813 41.582031 L 199.339844 41.621094 L 199.417969 41.664063 L 199.5 41.710938 L 199.660156 41.816406 L 199.742188 41.875 L 199.820313 41.9375 L 199.984375 42.074219 L 200.0625 42.148438 L 200.144531 42.226563 L 200.304688 42.394531 L 200.386719 42.484375 L 200.464844 42.578125 L 200.628906 42.777344 L 200.949219 43.21875 L 201.027344 43.335938 L 201.105469 43.457031 L 201.265625 43.710938 L 201.582031 44.253906 L 201.660156 44.398438 L 201.738281 44.546875 L 201.898438 44.851563 L 202.210938 45.5 L 202.292969 45.667969 L 202.527344 46.195313 L 202.84375 46.945313 L 203.476563 48.574219 L 203.554688 48.789063 L 203.632813 49.007813 L 203.792969 49.453125 L 204.105469 50.371094 L 204.738281 52.328125 L 206 56.636719 L 206.171875 57.253906 L 206.34375 57.882813 L 206.6875 59.15625 L 207.371094 61.78125 L 208.742188 67.238281 L 211.484375 78.410156 L 211.640625 79.050781 L 211.800781 79.6875 L 212.121094 80.953125 L 212.761719 83.4375 L 214.039063 88.183594 L 214.121094 88.46875 L 214.199219 88.75 L 214.359375 89.3125 L 214.679688 90.414063 L 215.320313 92.535156 L 216.597656 96.410156 L 216.769531 96.894531 L 216.945313 97.367188 L 217.289063 98.28125 L 217.984375 99.984375 L 218.15625 100.382813 L 218.328125 100.769531 L 218.675781 101.507813 L 219.367188 102.847656 L 219.457031 103.003906 L 219.542969 103.15625 L 219.714844 103.449219 L 220.0625 104 L 220.148438 104.132813 L 220.234375 104.261719 L 220.410156 104.507813 L 220.753906 104.964844 L 220.839844 105.070313 L 220.929688 105.175781 L 221.1875 105.46875 L 221.273438 105.558594 L 221.449219 105.734375 L 221.535156 105.816406 L 221.621094 105.894531 L 221.792969 106.046875 L 221.878906 106.117188 L 221.96875 106.1875 L 222.140625 106.3125 L 222.226563 106.371094 L 222.3125 106.425781 L 222.394531 106.476563 L 222.480469 106.527344 L 222.566406 106.574219 L 222.652344 106.617188 L 222.820313 106.699219 L 222.90625 106.734375 L 222.992188 106.765625 L 223.074219 106.796875 L 223.160156 106.824219 L 223.246094 106.847656 L 223.417969 106.886719 L 223.5 106.902344 L 223.585938 106.917969 L 223.671875 106.925781 L 223.757813 106.9375 L 223.839844 106.941406 L 223.925781 106.945313 L 224.011719 106.945313 L 224.097656 106.941406 L 224.179688 106.933594 L 224.351563 106.917969 L 224.4375 106.902344 L 224.519531 106.886719 L 224.605469 106.871094 L 224.863281 106.800781 L 224.945313 106.769531 L 225.117188 106.707031 L 225.203125 106.667969 L 225.285156 106.632813 L 225.371094 106.589844 L 225.542969 106.5 L 225.625 106.453125 L 225.710938 106.402344 L 225.882813 106.292969 L 226.222656 106.050781 L 226.308594 105.980469 L 226.390625 105.914063 L 226.5625 105.769531 L 226.902344 105.453125 L 227.074219 105.28125 L 227.242188 105.101563 L 227.582031 104.71875 L 227.660156 104.625 L 227.742188 104.53125 L 227.898438 104.335938 L 228.21875 103.921875 L 228.851563 103.027344 L 228.929688 102.90625 L 229.011719 102.789063 L 229.167969 102.542969 L 229.484375 102.039063 L 230.121094 100.96875 L 230.199219 100.828125 L 230.28125 100.691406 L 230.4375 100.40625 L 230.753906 99.828125 L 231.390625 98.625 L 232.660156 96.070313 L 233.003906 95.351563 L 233.347656 94.625 L 234.035156 93.152344 L 235.410156 90.183594 L 235.496094 90 L 235.582031 89.8125 L 235.753906 89.445313 L 236.097656 88.707031 L 236.789063 87.253906 L 238.164063 84.441406 L 238.242188 84.285156 L 238.324219 84.125 L 238.484375 83.8125 L 238.804688 83.195313 L 239.449219 81.996094 L 239.527344 81.847656 L 239.609375 81.703125 L 239.769531 81.414063 L 240.089844 80.851563 L 240.734375 79.769531 L 240.8125 79.636719 L 240.894531 79.507813 L 241.054688 79.25 L 241.375 78.75 L 242.019531 77.804688 L 242.097656 77.691406 L 242.179688 77.578125 L 242.339844 77.359375 L 242.660156 76.933594 L 243.300781 76.136719 L 243.382813 76.042969 L 243.460938 75.953125 L 243.617188 75.777344 L 243.933594 75.433594 L 244.089844 75.269531 L 244.246094 75.109375 L 244.5625 74.808594 L 244.640625 74.734375 L 244.875 74.523438 L 245.191406 74.261719 L 245.347656 74.136719 L 245.507813 74.015625 L 245.820313 73.792969 L 245.898438 73.738281 L 245.980469 73.6875 L 246.136719 73.585938 L 246.449219 73.402344 L 246.53125 73.359375 L 246.609375 73.316406 L 246.765625 73.238281 L 247.082031 73.089844 L 247.394531 72.964844 L 247.472656 72.9375 L 247.554688 72.910156 L 247.710938 72.855469 L 247.789063 72.832031 L 247.867188 72.8125 L 247.945313 72.789063 L 248.027344 72.769531 L 248.183594 72.730469 L 248.339844 72.699219 L 248.511719 72.667969 L 248.683594 72.644531 L 248.765625 72.632813 L 249.023438 72.609375 L 249.28125 72.597656 L 249.535156 72.597656 L 249.792969 72.609375 L 249.964844 72.625 L 250.046875 72.632813 L 250.132813 72.640625 L 250.304688 72.664063 L 250.5625 72.710938 L 250.644531 72.726563 L 250.902344 72.785156 L 251.074219 72.828125 L 251.160156 72.855469 L 251.242188 72.878906 L 251.585938 72.988281 L 251.84375 73.082031 L 251.925781 73.117188 L 252.097656 73.1875 L 252.441406 73.339844 L 252.523438 73.378906 L 252.78125 73.507813 L 253.121094 73.6875 L 253.804688 74.09375 L 253.886719 74.144531 L 253.964844 74.195313 L 254.125 74.300781 L 254.445313 74.515625 L 255.082031 74.976563 L 256.355469 76 L 256.4375 76.066406 L 256.515625 76.132813 L 256.675781 76.269531 L 256.992188 76.550781 L 257.632813 77.121094 L 258.90625 78.300781 L 258.996094 78.382813 L 259.085938 78.46875 L 259.261719 78.636719 L 259.617188 78.972656 L 260.328125 79.648438 L 261.753906 80.976563 L 261.84375 81.058594 L 261.929688 81.140625 L 262.109375 81.304688 L 262.464844 81.625 L 263.175781 82.253906 L 263.265625 82.328125 L 263.355469 82.40625 L 263.53125 82.558594 L 263.886719 82.855469 L 264.066406 83.003906 L 264.246094 83.148438 L 264.332031 83.222656 L 264.601563 83.433594 "/>
</g>
</g>
</svg>
