<?xml version="1.0" encoding="UTF-8"?>
<svg xmlns="http://www.w3.org/2000/svg" xmlns:xlink="http://www.w3.org/1999/xlink" width="360pt" height="223pt" viewBox="0 0 360 223" version="1.1">
<defs>
<clipPath id="clip1">
  <path d="M 0 80 L 359 80 L 359 142 L 0 142 Z M 0 80 "/>
</clipPath>
</defs>
<g id="surface8">
<g clip-path="url(#clip1)" clip-rule="nonzero">
<path style="fill:none;stroke-width:3.59;stroke-linecap:square;stroke-linejoin:miter;stroke:rgb(50%,50%,50%);stroke-opacity:1;stroke-miterlimit:3.25;" d="M 73.179688 115.9375 L 73.285156 115.667969 L 73.601563 114.871094 L 74.027344 113.808594 L 74.871094 111.730469 L 75.082031 111.222656 L 75.292969 110.722656 L 75.71875 109.75 L 76.5625 107.917969 L 76.667969 107.699219 L 76.773438 107.488281 L 76.984375 107.070313 L 77.40625 106.277344 L 77.515625 106.085938 L 77.621094 105.898438 L 77.832031 105.539063 L 78.253906 104.863281 L 78.359375 104.703125 L 78.464844 104.550781 L 78.675781 104.253906 L 78.78125 104.109375 L 78.886719 103.972656 L 79.097656 103.710938 L 79.203125 103.589844 L 79.3125 103.46875 L 79.523438 103.246094 L 79.628906 103.140625 L 79.734375 103.039063 L 79.945313 102.851563 L 80.058594 102.757813 L 80.175781 102.671875 L 80.289063 102.589844 L 80.402344 102.515625 L 80.519531 102.445313 L 80.632813 102.378906 L 80.746094 102.324219 L 80.863281 102.269531 L 80.976563 102.222656 L 81.089844 102.183594 L 81.207031 102.148438 L 81.320313 102.121094 L 81.433594 102.101563 L 81.550781 102.085938 L 81.664063 102.074219 L 81.777344 102.070313 L 81.894531 102.070313 L 82.121094 102.09375 L 82.238281 102.113281 L 82.351563 102.140625 L 82.464844 102.171875 L 82.582031 102.210938 L 82.695313 102.253906 L 82.808594 102.304688 L 82.925781 102.363281 L 83.039063 102.425781 L 83.152344 102.492188 L 83.269531 102.566406 L 83.382813 102.644531 L 83.613281 102.824219 L 83.726563 102.917969 L 83.839844 103.023438 L 84.070313 103.246094 L 84.183594 103.363281 L 84.300781 103.488281 L 84.527344 103.753906 L 84.644531 103.894531 L 84.757813 104.042969 L 84.988281 104.351563 L 85.445313 105.027344 L 85.558594 105.207031 L 85.675781 105.394531 L 85.902344 105.78125 L 86.363281 106.601563 L 87.277344 108.4375 L 87.386719 108.667969 L 87.492188 108.898438 L 87.707031 109.371094 L 88.132813 110.34375 L 88.992188 112.382813 L 90.703125 116.671875 L 90.808594 116.941406 L 90.917969 117.210938 L 91.128906 117.75 L 91.558594 118.816406 L 92.414063 120.886719 L 92.523438 121.140625 L 92.628906 121.390625 L 92.84375 121.882813 L 93.269531 122.839844 L 94.125 124.625 L 94.230469 124.832031 L 94.335938 125.035156 L 94.546875 125.425781 L 94.964844 126.171875 L 95.175781 126.523438 L 95.386719 126.855469 L 95.804688 127.476563 L 95.910156 127.625 L 96.015625 127.765625 L 96.222656 128.03125 L 96.328125 128.160156 L 96.433594 128.28125 L 96.644531 128.515625 L 96.75 128.625 L 96.855469 128.730469 L 97.0625 128.925781 L 97.167969 129.015625 L 97.273438 129.101563 L 97.484375 129.257813 L 97.589844 129.328125 L 97.691406 129.394531 L 97.796875 129.457031 L 98.007813 129.566406 L 98.113281 129.613281 L 98.324219 129.691406 L 98.425781 129.722656 L 98.636719 129.769531 L 98.742188 129.785156 L 98.847656 129.796875 L 98.953125 129.804688 L 99.058594 129.804688 L 99.160156 129.800781 L 99.265625 129.792969 L 99.371094 129.777344 L 99.476563 129.757813 L 99.582031 129.734375 L 99.6875 129.703125 L 99.789063 129.671875 L 99.894531 129.632813 L 100.105469 129.539063 L 100.210938 129.484375 L 100.316406 129.425781 L 100.421875 129.359375 L 100.523438 129.289063 L 100.628906 129.21875 L 100.839844 129.054688 L 100.953125 128.957031 L 101.066406 128.855469 L 101.296875 128.636719 L 101.410156 128.519531 L 101.523438 128.394531 L 101.75 128.132813 L 101.863281 127.992188 L 101.976563 127.847656 L 102.207031 127.542969 L 102.660156 126.871094 L 102.773438 126.695313 L 102.886719 126.507813 L 103.117188 126.128906 L 103.570313 125.3125 L 104.480469 123.496094 L 104.59375 123.253906 L 104.707031 123.007813 L 104.9375 122.507813 L 105.390625 121.472656 L 106.300781 119.296875 L 108.121094 114.730469 L 108.230469 114.460938 L 108.546875 113.664063 L 108.972656 112.613281 L 109.820313 110.574219 L 109.929688 110.328125 L 110.246094 109.601563 L 110.671875 108.667969 L 111.519531 106.933594 L 111.628906 106.730469 L 111.734375 106.53125 L 111.945313 106.144531 L 112.371094 105.414063 L 112.476563 105.238281 L 112.582031 105.070313 L 112.796875 104.746094 L 113.21875 104.144531 L 113.324219 104.007813 L 113.433594 103.871094 L 113.644531 103.617188 L 113.75 103.496094 L 113.855469 103.378906 L 114.070313 103.160156 L 114.175781 103.058594 L 114.28125 102.960938 L 114.386719 102.871094 L 114.496094 102.78125 L 114.601563 102.699219 L 114.707031 102.621094 L 114.917969 102.480469 L 115.035156 102.414063 L 115.148438 102.351563 L 115.265625 102.296875 L 115.378906 102.25 L 115.496094 102.203125 L 115.609375 102.167969 L 115.726563 102.136719 L 115.839844 102.109375 L 115.953125 102.089844 L 116.070313 102.078125 L 116.183594 102.070313 L 116.300781 102.070313 L 116.414063 102.074219 L 116.53125 102.085938 L 116.644531 102.105469 L 116.761719 102.128906 L 116.875 102.15625 L 116.992188 102.191406 L 117.105469 102.234375 L 117.222656 102.28125 L 117.335938 102.335938 L 117.449219 102.394531 L 117.566406 102.460938 L 117.679688 102.53125 L 117.796875 102.609375 L 117.910156 102.695313 L 118.140625 102.878906 L 118.257813 102.976563 L 118.371094 103.085938 L 118.601563 103.316406 L 118.71875 103.4375 L 118.832031 103.566406 L 119.0625 103.839844 L 119.175781 103.984375 L 119.292969 104.136719 L 119.523438 104.453125 L 119.636719 104.617188 L 119.753906 104.789063 L 119.984375 105.144531 L 120.441406 105.910156 L 120.558594 106.113281 L 120.671875 106.320313 L 120.902344 106.75 L 121.363281 107.652344 L 122.285156 109.625 L 122.511719 110.140625 L 122.738281 110.664063 L 123.1875 111.738281 L 124.09375 113.960938 L 125.898438 118.511719 L 126.011719 118.792969 L 126.351563 119.625 L 126.804688 120.710938 L 127.707031 122.78125 L 127.820313 123.03125 L 127.933594 123.273438 L 128.160156 123.753906 L 128.613281 124.667969 L 128.726563 124.886719 L 128.835938 125.105469 L 129.0625 125.527344 L 129.515625 126.316406 L 129.621094 126.492188 L 129.726563 126.664063 L 129.9375 126.992188 L 130.042969 127.152344 L 130.148438 127.304688 L 130.359375 127.601563 L 130.464844 127.746094 L 130.570313 127.882813 L 130.78125 128.144531 L 131.203125 128.613281 L 131.308594 128.71875 L 131.414063 128.820313 L 131.625 129.007813 L 131.730469 129.09375 L 131.835938 129.175781 L 132.046875 129.324219 L 132.152344 129.390625 L 132.257813 129.453125 L 132.363281 129.511719 L 132.46875 129.5625 L 132.570313 129.609375 L 132.675781 129.652344 L 132.78125 129.6875 L 132.886719 129.71875 L 132.992188 129.746094 L 133.097656 129.769531 L 133.203125 129.785156 L 133.308594 129.796875 L 133.414063 129.804688 L 133.519531 129.804688 L 133.625 129.800781 L 133.835938 129.777344 L 133.941406 129.757813 L 134.046875 129.734375 L 134.152344 129.703125 L 134.257813 129.667969 L 134.363281 129.628906 L 134.46875 129.585938 L 134.574219 129.535156 L 134.679688 129.480469 L 134.785156 129.421875 L 134.890625 129.355469 L 134.996094 129.285156 L 135.101563 129.210938 L 135.207031 129.132813 L 135.417969 128.957031 L 135.523438 128.863281 L 135.628906 128.765625 L 135.839844 128.554688 L 136.261719 128.074219 L 136.375 127.933594 L 136.488281 127.785156 L 136.71875 127.472656 L 137.175781 126.792969 L 137.289063 126.613281 L 137.402344 126.425781 L 137.632813 126.039063 L 138.089844 125.210938 L 138.203125 124.996094 L 138.316406 124.773438 L 138.546875 124.320313 L 139.003906 123.371094 L 139.917969 121.328125 L 140.03125 121.058594 L 140.148438 120.789063 L 140.375 120.246094 L 140.832031 119.132813 L 141.746094 116.851563 L 143.574219 112.273438 L 143.683594 112.011719 L 143.789063 111.753906 L 144.003906 111.242188 L 144.429688 110.242188 L 145.28125 108.351563 L 145.390625 108.128906 L 145.496094 107.90625 L 145.710938 107.472656 L 146.136719 106.644531 L 146.242188 106.445313 L 146.347656 106.25 L 146.5625 105.871094 L 146.988281 105.160156 L 147.097656 104.996094 L 147.203125 104.832031 L 147.417969 104.515625 L 147.628906 104.21875 L 147.84375 103.9375 L 147.949219 103.804688 L 148.054688 103.679688 L 148.269531 103.433594 L 148.375 103.320313 L 148.484375 103.210938 L 148.695313 103.007813 L 148.804688 102.910156 L 148.910156 102.820313 L 149.015625 102.738281 L 149.125 102.65625 L 149.230469 102.582031 L 149.335938 102.511719 L 149.441406 102.445313 L 149.550781 102.386719 L 149.65625 102.332031 L 149.761719 102.28125 L 149.871094 102.238281 L 149.976563 102.199219 L 150.082031 102.164063 L 150.191406 102.136719 L 150.296875 102.113281 L 150.402344 102.09375 L 150.507813 102.082031 L 150.613281 102.074219 L 150.71875 102.070313 L 150.820313 102.070313 L 150.925781 102.078125 L 151.03125 102.089844 L 151.136719 102.109375 L 151.242188 102.132813 L 151.34375 102.160156 L 151.449219 102.191406 L 151.554688 102.226563 L 151.660156 102.269531 L 151.761719 102.316406 L 151.972656 102.425781 L 152.078125 102.488281 L 152.179688 102.558594 L 152.285156 102.628906 L 152.496094 102.785156 L 152.601563 102.875 L 152.703125 102.964844 L 152.914063 103.160156 L 153.019531 103.265625 L 153.121094 103.375 L 153.332031 103.609375 L 153.75 104.128906 L 153.855469 104.269531 L 153.960938 104.414063 L 154.167969 104.714844 L 154.585938 105.371094 L 154.691406 105.542969 L 154.796875 105.71875 L 155.003906 106.085938 L 155.425781 106.855469 L 155.527344 107.058594 L 155.632813 107.261719 L 155.84375 107.679688 L 156.261719 108.554688 L 157.097656 110.425781 L 157.210938 110.6875 L 157.550781 111.496094 L 158.003906 112.597656 L 158.914063 114.859375 L 159.027344 115.144531 L 159.140625 115.433594 L 159.367188 116.003906 L 159.820313 117.152344 L 160.730469 119.410156 L 160.957031 119.964844 L 161.183594 120.507813 L 161.636719 121.574219 L 161.75 121.835938 L 161.863281 122.09375 L 162.089844 122.601563 L 162.542969 123.585938 L 162.65625 123.824219 L 162.773438 124.058594 L 163 124.515625 L 163.453125 125.386719 L 163.566406 125.59375 L 163.679688 125.796875 L 163.90625 126.195313 L 164.359375 126.929688 L 164.464844 127.089844 L 164.570313 127.246094 L 164.785156 127.550781 L 164.890625 127.695313 L 164.996094 127.832031 L 165.207031 128.097656 L 165.3125 128.226563 L 165.417969 128.347656 L 165.632813 128.578125 L 165.84375 128.789063 L 166.054688 128.980469 L 166.265625 129.152344 L 166.371094 129.230469 L 166.476563 129.304688 L 166.585938 129.371094 L 166.691406 129.4375 L 166.796875 129.496094 L 166.902344 129.550781 L 167.007813 129.597656 L 167.113281 129.640625 L 167.21875 129.679688 L 167.429688 129.742188 L 167.535156 129.765625 L 167.644531 129.78125 L 167.75 129.792969 L 167.855469 129.800781 L 167.960938 129.804688 L 168.066406 129.800781 L 168.171875 129.792969 L 168.277344 129.78125 L 168.382813 129.761719 L 168.488281 129.738281 L 168.597656 129.710938 L 168.703125 129.675781 L 168.808594 129.636719 L 168.914063 129.59375 L 169.125 129.492188 L 169.230469 129.429688 L 169.441406 129.296875 L 169.550781 129.222656 L 169.65625 129.144531 L 169.867188 128.972656 L 169.972656 128.878906 L 170.078125 128.777344 L 170.289063 128.566406 L 170.394531 128.453125 L 170.5 128.335938 L 170.714844 128.089844 L 171.136719 127.535156 L 171.253906 127.375 L 171.367188 127.207031 L 171.597656 126.859375 L 172.054688 126.109375 L 172.171875 125.910156 L 172.285156 125.703125 L 172.515625 125.285156 L 172.972656 124.394531 L 173.089844 124.164063 L 173.203125 123.929688 L 173.433594 123.445313 L 173.890625 122.445313 L 174.808594 120.316406 L 174.925781 120.039063 L 175.039063 119.761719 L 175.269531 119.199219 L 175.726563 118.0625 L 176.648438 115.75 L 178.484375 111.203125 L 178.597656 110.9375 L 178.707031 110.671875 L 178.933594 110.148438 L 179.382813 109.132813 L 179.496094 108.886719 L 179.609375 108.644531 L 179.835938 108.164063 L 180.285156 107.25 L 180.398438 107.027344 L 180.511719 106.8125 L 180.738281 106.390625 L 181.1875 105.597656 L 181.300781 105.410156 L 181.414063 105.226563 L 181.636719 104.875 L 182.089844 104.226563 L 182.203125 104.074219 L 182.3125 103.929688 L 182.539063 103.65625 L 182.652344 103.527344 L 182.765625 103.402344 L 182.992188 103.167969 L 183.101563 103.058594 L 183.214844 102.957031 L 183.328125 102.859375 L 183.441406 102.765625 L 183.554688 102.679688 L 183.667969 102.601563 L 183.890625 102.457031 L 184.003906 102.390625 L 184.117188 102.332031 L 184.230469 102.28125 L 184.34375 102.234375 L 184.457031 102.195313 L 184.566406 102.160156 L 184.679688 102.128906 L 184.792969 102.105469 L 184.90625 102.089844 L 185.019531 102.078125 L 185.132813 102.070313 L 185.242188 102.070313 L 185.355469 102.078125 L 185.46875 102.089844 L 185.582031 102.105469 L 185.695313 102.128906 L 185.800781 102.15625 L 185.90625 102.1875 L 186.011719 102.226563 L 186.113281 102.269531 L 186.21875 102.316406 L 186.324219 102.367188 L 186.429688 102.425781 L 186.535156 102.488281 L 186.640625 102.554688 L 186.746094 102.625 L 186.957031 102.785156 L 187.0625 102.871094 L 187.167969 102.960938 L 187.375 103.160156 L 187.480469 103.265625 L 187.585938 103.375 L 187.796875 103.609375 L 188.007813 103.859375 L 188.21875 104.132813 L 188.320313 104.273438 L 188.425781 104.417969 L 188.636719 104.722656 L 189.058594 105.378906 L 189.269531 105.730469 L 189.476563 106.097656 L 189.898438 106.875 L 190.738281 108.585938 L 190.84375 108.8125 L 190.949219 109.042969 L 191.160156 109.507813 L 191.578125 110.464844 L 192.421875 112.476563 L 192.875 113.601563 L 193.332031 114.746094 L 194.242188 117.046875 L 194.359375 117.335938 L 194.699219 118.191406 L 195.15625 119.320313 L 196.066406 121.5 L 196.183594 121.761719 L 196.296875 122.023438 L 196.523438 122.535156 L 196.980469 123.523438 L 197.09375 123.765625 L 197.207031 124 L 197.433594 124.460938 L 197.890625 125.339844 L 198.003906 125.550781 L 198.121094 125.753906 L 198.347656 126.152344 L 198.804688 126.898438 L 199.03125 127.242188 L 199.257813 127.566406 L 199.714844 128.152344 L 199.820313 128.277344 L 199.929688 128.398438 L 200.140625 128.625 L 200.246094 128.730469 L 200.351563 128.832031 L 200.566406 129.019531 L 200.671875 129.105469 L 200.777344 129.1875 L 200.886719 129.265625 L 200.992188 129.335938 L 201.097656 129.402344 L 201.203125 129.464844 L 201.3125 129.523438 L 201.417969 129.574219 L 201.523438 129.621094 L 201.628906 129.660156 L 201.738281 129.695313 L 201.84375 129.726563 L 201.949219 129.753906 L 202.054688 129.773438 L 202.160156 129.789063 L 202.269531 129.800781 L 202.375 129.804688 L 202.480469 129.804688 L 202.585938 129.796875 L 202.695313 129.785156 L 202.800781 129.769531 L 202.90625 129.75 L 203.011719 129.722656 L 203.121094 129.691406 L 203.226563 129.65625 L 203.332031 129.613281 L 203.4375 129.566406 L 203.546875 129.511719 L 203.652344 129.457031 L 203.757813 129.394531 L 203.96875 129.253906 L 204.078125 129.175781 L 204.183594 129.09375 L 204.394531 128.914063 L 204.503906 128.816406 L 204.609375 128.714844 L 204.820313 128.496094 L 204.929688 128.378906 L 205.035156 128.257813 L 205.246094 128.003906 L 205.671875 127.4375 L 205.777344 127.285156 L 205.886719 127.128906 L 206.097656 126.800781 L 206.523438 126.101563 L 206.640625 125.902344 L 206.753906 125.695313 L 206.984375 125.273438 L 207.445313 124.378906 L 208.367188 122.417969 L 208.484375 122.160156 L 208.597656 121.898438 L 208.828125 121.367188 L 209.289063 120.277344 L 210.210938 118.011719 L 210.328125 117.722656 L 210.441406 117.433594 L 211.132813 115.6875 L 212.058594 113.371094 L 212.171875 113.085938 L 212.289063 112.800781 L 212.519531 112.234375 L 212.980469 111.125 L 213.902344 109.019531 L 214.128906 108.527344 L 214.355469 108.050781 L 214.808594 107.136719 L 214.921875 106.917969 L 215.03125 106.703125 L 215.257813 106.285156 L 215.710938 105.496094 L 215.824219 105.308594 L 215.9375 105.128906 L 216.164063 104.777344 L 216.390625 104.449219 L 216.617188 104.136719 L 216.84375 103.847656 L 217.070313 103.578125 L 217.183594 103.449219 L 217.296875 103.328125 L 217.523438 103.101563 L 217.636719 102.996094 L 217.75 102.894531 L 217.863281 102.800781 L 217.976563 102.710938 L 218.089844 102.628906 L 218.203125 102.550781 L 218.316406 102.480469 L 218.429688 102.414063 L 218.542969 102.351563 L 218.65625 102.296875 L 218.769531 102.25 L 218.882813 102.207031 L 218.996094 102.167969 L 219.109375 102.136719 L 219.21875 102.113281 L 219.332031 102.09375 L 219.445313 102.078125 L 219.558594 102.070313 L 219.671875 102.070313 L 219.785156 102.074219 L 219.898438 102.085938 L 220.011719 102.101563 L 220.125 102.121094 L 220.238281 102.148438 L 220.351563 102.183594 L 220.464844 102.222656 L 220.578125 102.265625 L 220.804688 102.375 L 220.917969 102.4375 L 221.03125 102.507813 L 221.144531 102.582031 L 221.25 102.65625 L 221.355469 102.734375 L 221.566406 102.90625 L 221.671875 103 L 221.777344 103.097656 L 221.988281 103.308594 L 222.09375 103.421875 L 222.199219 103.539063 L 222.410156 103.789063 L 222.835938 104.339844 L 222.941406 104.488281 L 223.046875 104.640625 L 223.257813 104.957031 L 223.679688 105.640625 L 224.523438 107.1875 L 224.734375 107.609375 L 224.945313 108.042969 L 225.367188 108.941406 L 226.210938 110.863281 L 227.902344 115.011719 L 228.015625 115.300781 L 228.132813 115.589844 L 228.359375 116.167969 L 228.816406 117.324219 L 229.734375 119.597656 L 229.960938 120.152344 L 230.191406 120.699219 L 230.648438 121.769531 L 231.566406 123.78125 L 231.792969 124.25 L 232.023438 124.707031 L 232.480469 125.570313 L 232.59375 125.777344 L 232.710938 125.980469 L 232.9375 126.371094 L 233.398438 127.09375 L 233.511719 127.265625 L 233.625 127.429688 L 233.855469 127.742188 L 233.96875 127.890625 L 234.082031 128.035156 L 234.3125 128.308594 L 234.425781 128.4375 L 234.542969 128.558594 L 234.769531 128.789063 L 234.886719 128.894531 L 235 128.992188 L 235.226563 129.175781 L 235.335938 129.253906 L 235.441406 129.328125 L 235.550781 129.394531 L 235.65625 129.457031 L 235.761719 129.515625 L 235.871094 129.566406 L 235.976563 129.613281 L 236.082031 129.65625 L 236.191406 129.695313 L 236.296875 129.726563 L 236.402344 129.75 L 236.511719 129.773438 L 236.617188 129.789063 L 236.726563 129.796875 L 236.832031 129.804688 L 236.9375 129.804688 L 237.046875 129.796875 L 237.152344 129.789063 L 237.257813 129.773438 L 237.367188 129.75 L 237.472656 129.722656 L 237.578125 129.691406 L 237.6875 129.65625 L 237.792969 129.613281 L 237.902344 129.566406 L 238.007813 129.515625 L 238.113281 129.457031 L 238.222656 129.394531 L 238.328125 129.328125 L 238.433594 129.253906 L 238.648438 129.09375 L 238.753906 129.003906 L 238.863281 128.910156 L 239.074219 128.710938 L 239.183594 128.605469 L 239.289063 128.492188 L 239.503906 128.253906 L 239.609375 128.125 L 239.71875 127.996094 L 239.929688 127.71875 L 240.359375 127.113281 L 240.464844 126.953125 L 240.574219 126.785156 L 240.785156 126.441406 L 241.214844 125.703125 L 242.070313 124.058594 L 242.171875 123.839844 L 242.277344 123.621094 L 242.488281 123.175781 L 242.90625 122.25 L 243.746094 120.296875 L 245.421875 116.136719 L 245.632813 115.605469 L 245.839844 115.074219 L 246.261719 114.023438 L 247.097656 111.953125 L 247.203125 111.699219 L 247.308594 111.449219 L 247.515625 110.949219 L 247.9375 109.976563 L 248.773438 108.140625 L 248.886719 107.90625 L 249.230469 107.21875 L 249.683594 106.355469 L 249.796875 106.148438 L 249.910156 105.949219 L 250.140625 105.558594 L 250.59375 104.832031 L 250.820313 104.496094 L 251.046875 104.183594 L 251.160156 104.03125 L 251.277344 103.886719 L 251.503906 103.613281 L 251.617188 103.484375 L 251.730469 103.359375 L 251.957031 103.128906 L 252.070313 103.023438 L 252.183594 102.921875 L 252.414063 102.734375 L 252.527344 102.648438 L 252.640625 102.570313 L 252.753906 102.496094 L 252.867188 102.429688 L 252.980469 102.367188 L 253.09375 102.308594 L 253.207031 102.257813 L 253.320313 102.214844 L 253.433594 102.175781 L 253.550781 102.144531 L 253.664063 102.117188 L 253.777344 102.097656 L 253.890625 102.082031 L 254.003906 102.074219 L 254.117188 102.070313 L 254.230469 102.074219 L 254.34375 102.082031 L 254.457031 102.097656 L 254.570313 102.117188 L 254.6875 102.144531 L 254.800781 102.175781 L 254.914063 102.214844 L 255.027344 102.261719 L 255.140625 102.3125 L 255.253906 102.367188 L 255.367188 102.429688 L 255.480469 102.496094 L 255.59375 102.570313 L 255.707031 102.652344 L 255.824219 102.734375 L 256.050781 102.921875 L 256.261719 103.117188 L 256.472656 103.332031 L 256.582031 103.445313 L 256.6875 103.566406 L 256.898438 103.816406 L 257.003906 103.949219 L 257.109375 104.085938 L 257.324219 104.371094 L 257.746094 105 L 257.851563 105.164063 L 257.960938 105.335938 L 258.171875 105.691406 L 258.59375 106.441406 L 259.445313 108.113281 L 259.550781 108.335938 L 259.65625 108.5625 L 259.867188 109.023438 L 260.292969 109.972656 L 261.140625 111.972656 L 262.839844 116.207031 L 262.953125 116.496094 L 263.070313 116.789063 L 263.296875 117.367188 L 263.757813 118.515625 L 264.679688 120.753906 L 264.792969 121.027344 L 264.910156 121.296875 L 265.136719 121.828125 L 265.597656 122.859375 L 266.519531 124.765625 L 266.632813 124.988281 L 266.746094 125.207031 L 266.976563 125.628906 L 267.4375 126.425781 L 267.550781 126.613281 L 267.667969 126.796875 L 267.898438 127.148438 L 268.355469 127.792969 L 268.472656 127.941406 L 268.585938 128.085938 L 268.816406 128.355469 L 268.933594 128.480469 L 269.046875 128.601563 L 269.277344 128.828125 L 269.390625 128.933594 L 269.507813 129.03125 L 269.621094 129.125 L 269.738281 129.210938 L 269.851563 129.292969 L 269.96875 129.367188 L 270.082031 129.4375 L 270.195313 129.5 L 270.308594 129.554688 L 270.421875 129.605469 L 270.535156 129.652344 L 270.648438 129.691406 L 270.761719 129.726563 L 270.875 129.753906 L 270.988281 129.773438 L 271.101563 129.789063 L 271.210938 129.800781 L 271.324219 129.804688 L 271.4375 129.800781 L 271.550781 129.792969 L 271.664063 129.78125 L 271.777344 129.761719 L 271.890625 129.738281 L 272.003906 129.707031 L 272.117188 129.667969 L 272.230469 129.625 L 272.339844 129.578125 L 272.453125 129.523438 L 272.566406 129.464844 L 272.679688 129.398438 L 272.90625 129.25 L 273.132813 129.078125 L 273.355469 128.882813 L 273.46875 128.777344 L 273.582031 128.667969 L 273.808594 128.433594 L 274.035156 128.175781 L 274.261719 127.894531 L 274.710938 127.277344 L 274.9375 126.941406 L 275.164063 126.582031 L 275.613281 125.816406 L 275.726563 125.613281 L 275.839844 125.40625 L 276.066406 124.984375 L 276.519531 124.085938 L 277.421875 122.140625 L 277.527344 121.898438 L 277.632813 121.660156 L 277.839844 121.167969 L 278.261719 120.167969 L 279.105469 118.101563 L 280.789063 113.859375 L 280.894531 113.59375 L 281 113.332031 L 281.210938 112.8125 L 281.632813 111.785156 L 282.472656 109.8125 L 282.683594 109.335938 L 282.894531 108.875 L 283.316406 107.980469 L 284.160156 106.335938 L 284.273438 106.128906 L 284.386719 105.929688 L 284.613281 105.539063 L 284.730469 105.347656 L 284.84375 105.164063 L 285.070313 104.8125 L 285.1875 104.640625 L 285.300781 104.476563 L 285.527344 104.160156 L 285.984375 103.59375 L 286.097656 103.464844 L 286.214844 103.339844 L 286.441406 103.109375 L 286.554688 103.003906 L 286.671875 102.902344 L 286.898438 102.714844 L 287.011719 102.632813 L 287.125 102.554688 L 287.242188 102.480469 L 287.355469 102.414063 L 287.46875 102.351563 L 287.582031 102.296875 L 287.699219 102.25 L 287.8125 102.207031 L 287.925781 102.167969 L 288.039063 102.136719 L 288.152344 102.113281 L 288.269531 102.09375 L 288.382813 102.078125 L 288.496094 102.070313 L 288.609375 102.070313 L 288.726563 102.074219 L 288.839844 102.085938 L 288.953125 102.101563 L 289.066406 102.125 L 289.183594 102.152344 L 289.296875 102.1875 L 289.410156 102.226563 L 289.523438 102.273438 L 289.636719 102.328125 L 289.753906 102.386719 L 289.867188 102.449219 L 289.980469 102.519531 L 290.09375 102.59375 L 290.210938 102.675781 L 290.324219 102.765625 L 290.550781 102.957031 L 290.664063 103.0625 L 290.78125 103.171875 L 291.007813 103.40625 L 291.121094 103.535156 L 291.238281 103.664063 L 291.464844 103.945313 L 291.570313 104.082031 L 291.679688 104.222656 L 291.890625 104.519531 L 292.316406 105.167969 L 292.425781 105.339844 L 292.53125 105.515625 L 292.742188 105.878906 L 293.171875 106.648438 L 293.382813 107.054688 L 293.597656 107.476563 L 294.023438 108.355469 L 294.875 110.242188 L 294.980469 110.492188 L 295.089844 110.738281 L 295.300781 111.242188 L 295.726563 112.269531 L 296.582031 114.382813 L 298.285156 118.675781 L 298.496094 119.191406 L 298.703125 119.699219 L 299.121094 120.707031 L 299.957031 122.628906 L 300.0625 122.855469 L 300.167969 123.085938 L 300.375 123.53125 L 300.792969 124.394531 L 301.628906 125.964844 L 301.734375 126.144531 L 301.839844 126.320313 L 302.046875 126.664063 L 302.464844 127.300781 L 302.570313 127.449219 L 302.671875 127.597656 L 302.882813 127.875 L 303.300781 128.375 L 303.40625 128.492188 L 303.507813 128.601563 L 303.71875 128.804688 L 303.824219 128.902344 L 303.925781 128.992188 L 304.136719 129.164063 L 304.242188 129.238281 L 304.34375 129.3125 L 304.449219 129.378906 L 304.554688 129.441406 L 304.660156 129.5 L 304.761719 129.550781 L 304.867188 129.597656 L 304.972656 129.640625 L 305.085938 129.683594 L 305.199219 129.71875 L 305.3125 129.746094 L 305.425781 129.769531 L 305.539063 129.785156 L 305.652344 129.796875 L 305.765625 129.804688 L 305.878906 129.804688 L 305.992188 129.796875 L 306.105469 129.785156 L 306.21875 129.765625 L 306.332031 129.742188 L 306.445313 129.710938 L 306.558594 129.675781 L 306.671875 129.632813 L 306.785156 129.585938 L 306.898438 129.53125 L 307.011719 129.472656 L 307.125 129.40625 L 307.238281 129.335938 L 307.351563 129.261719 L 307.464844 129.179688 L 307.691406 128.996094 L 307.804688 128.898438 L 307.917969 128.792969 L 308.148438 128.566406 L 308.261719 128.445313 L 308.375 128.320313 L 308.601563 128.050781 L 308.714844 127.910156 L 308.828125 127.761719 L 309.054688 127.453125 L 309.507813 126.773438 L 309.621094 126.59375 L 309.734375 126.410156 L 309.960938 126.023438 L 310.414063 125.203125 L 310.527344 124.988281 L 310.640625 124.769531 L 310.867188 124.320313 L 311.320313 123.378906 L 312.226563 121.351563 L 312.332031 121.105469 L 312.4375 120.855469 L 312.652344 120.351563 L 313.074219 119.324219 L 313.921875 117.21875 L 315.613281 112.964844 L 315.71875 112.707031 L 315.824219 112.445313 L 316.035156 111.929688 L 316.457031 110.917969 L 317.304688 108.992188 L 317.410156 108.761719 L 317.515625 108.535156 L 317.726563 108.089844 L 318.152344 107.230469 L 318.257813 107.023438 L 318.363281 106.820313 L 318.574219 106.425781 L 318.996094 105.675781 L 319.113281 105.484375 L 319.226563 105.296875 L 319.457031 104.933594 L 319.570313 104.757813 L 319.683594 104.589844 L 319.914063 104.265625 L 320.027344 104.113281 L 320.144531 103.964844 L 320.375 103.683594 L 320.488281 103.546875 L 320.601563 103.421875 L 320.832031 103.183594 L 320.945313 103.070313 L 321.0625 102.964844 L 321.175781 102.867188 L 321.289063 102.773438 L 321.40625 102.683594 L 321.519531 102.601563 L 321.75 102.453125 L 321.863281 102.390625 L 321.976563 102.332031 L 322.09375 102.277344 L 322.207031 102.230469 L 322.324219 102.191406 L 322.4375 102.15625 L 322.550781 102.125 L 322.667969 102.101563 L 322.78125 102.085938 L 322.894531 102.074219 L 323.011719 102.070313 L 323.125 102.070313 L 323.238281 102.078125 L 323.355469 102.09375 L 323.46875 102.113281 L 323.582031 102.136719 L 323.699219 102.167969 L 323.8125 102.207031 L 323.925781 102.25 L 324.042969 102.300781 L 324.15625 102.355469 L 324.273438 102.414063 L 324.5 102.554688 L 324.617188 102.636719 L 324.730469 102.71875 L 324.960938 102.90625 L 325.074219 103.007813 L 325.1875 103.117188 L 325.417969 103.347656 L 325.53125 103.472656 L 325.648438 103.601563 L 325.878906 103.878906 L 326.335938 104.492188 L 326.441406 104.648438 L 326.550781 104.808594 L 326.765625 105.136719 L 327.191406 105.851563 L 328.046875 107.453125 L 328.15625 107.667969 L 328.261719 107.886719 L 328.476563 108.335938 L 328.90625 109.261719 L 329.761719 111.234375 L 329.867188 111.488281 L 329.976563 111.746094 L 330.191406 112.265625 L 330.617188 113.320313 L 331.476563 115.46875 L 333.1875 119.75 L 333.398438 120.257813 L 333.609375 120.757813 L 334.027344 121.738281 L 334.867188 123.59375 L 334.972656 123.8125 L 335.078125 124.027344 L 335.289063 124.453125 L 335.707031 125.265625 L 335.8125 125.460938 L 335.917969 125.652344 L 336.128906 126.023438 L 336.546875 126.722656 L 336.652344 126.886719 L 336.757813 127.046875 L 336.96875 127.355469 L 337.070313 127.503906 L 337.175781 127.648438 L 337.386719 127.925781 L 337.597656 128.183594 L 337.808594 128.421875 L 337.910156 128.535156 L 338.015625 128.644531 L 338.226563 128.847656 L 338.332031 128.941406 L 338.4375 129.03125 L 338.542969 129.117188 L 338.648438 129.195313 L 338.75 129.273438 L 338.855469 129.34375 L 339.066406 129.46875 L 339.171875 129.523438 L 339.277344 129.574219 L 339.382813 129.621094 L 339.488281 129.660156 L 339.589844 129.695313 L 339.695313 129.726563 L 339.800781 129.753906 L 339.90625 129.773438 L 340.019531 129.789063 L 340.132813 129.800781 L 340.246094 129.804688 L 340.363281 129.800781 L 340.476563 129.796875 L 340.589844 129.78125 L 340.703125 129.761719 L 340.816406 129.738281 L 340.929688 129.707031 L 341.042969 129.667969 L 341.160156 129.625 L 341.273438 129.574219 L 341.386719 129.519531 L 341.5 129.460938 L 341.613281 129.394531 L 341.726563 129.320313 L 341.84375 129.242188 L 341.957031 129.160156 L 342.183594 128.972656 L 342.296875 128.875 L 342.410156 128.765625 L 342.640625 128.539063 L 342.753906 128.414063 L 342.867188 128.285156 L 343.09375 128.011719 L 343.550781 127.40625 L 343.664063 127.242188 L 343.777344 127.074219 L 344.003906 126.722656 L 344.460938 125.960938 L 345.371094 124.238281 L 345.484375 124.007813 L 345.597656 123.769531 L 345.828125 123.289063 L 346.28125 122.289063 L 347.195313 120.164063 L 347.40625 119.648438 L 347.617188 119.128906 L 348.042969 118.074219 L 348.894531 115.933594 L 349.105469 115.394531 L 349.320313 114.859375 L 349.742188 113.792969 L 350.59375 111.703125 L 350.804688 111.195313 L 351.019531 110.695313 L 351.445313 109.714844 L 351.65625 109.238281 L 351.871094 108.773438 L 352.292969 107.875 L 352.402344 107.660156 L 352.507813 107.445313 L 352.71875 107.027344 L 353.144531 106.230469 L 353.355469 105.855469 L 353.570313 105.492188 L 353.996094 104.820313 L 354.109375 104.648438 L 354.226563 104.480469 L 354.457031 104.164063 L 354.570313 104.011719 L 354.683594 103.867188 L 354.914063 103.589844 L 355.03125 103.460938 L 355.144531 103.335938 L 355.375 103.105469 L 355.492188 102.996094 L 355.605469 102.894531 L 355.835938 102.707031 L 355.953125 102.625 L 356.066406 102.546875 L 356.183594 102.472656 L 356.296875 102.40625 L 356.414063 102.34375 L 356.527344 102.289063 L 356.644531 102.242188 L 356.757813 102.199219 L 356.875 102.164063 L 356.988281 102.132813 L 357.105469 102.109375 L 357.21875 102.089844 L 357.335938 102.078125 L 357.449219 102.070313 L 357.5625 102.070313 L 357.679688 102.078125 L 357.792969 102.089844 L 357.910156 102.105469 L 358.023438 102.132813 L 358.140625 102.160156 L 358.253906 102.199219 L 358.371094 102.242188 L 358.484375 102.289063 L 358.601563 102.34375 L 358.714844 102.40625 L 358.832031 102.472656 L 358.945313 102.542969 L 359.0625 102.621094 L 359.175781 102.707031 L 359.292969 102.796875 L 359.523438 102.996094 L 359.636719 103.101563 L 359.753906 103.214844 L 359.984375 103.457031 L 360.097656 103.585938 L 360.214844 103.722656 L 360.445313 104.007813 L 360.558594 104.160156 L 360.671875 104.316406 L 360.902344 104.644531 L 361.363281 105.359375 L 361.476563 105.546875 L 361.589844 105.738281 L 361.816406 106.132813 L 362.269531 106.972656 L 363.171875 108.832031 L 363.285156 109.078125 L 363.398438 109.328125 L 363.625 109.835938 L 364.078125 110.882813 L 364.984375 113.074219 L 365.09375 113.351563 L 365.207031 113.632813 L 365.433594 114.199219 L 366.792969 117.621094 L 368.601563 121.988281 L 368.707031 122.226563 L 369.023438 122.929688 L 369.445313 123.828125 L 369.550781 124.046875 L 369.65625 124.261719 L 369.867188 124.679688 L 370.289063 125.480469 L 370.5 125.863281 L 370.710938 126.226563 L 371.132813 126.910156 L 371.238281 127.070313 L 371.34375 127.226563 L 371.554688 127.53125 L 371.976563 128.078125 L 372.082031 128.207031 L 372.1875 128.328125 L 372.398438 128.558594 L 372.503906 128.667969 L 372.609375 128.769531 L 372.820313 128.960938 L 372.925781 129.050781 L 373.03125 129.136719 L 373.136719 129.214844 L 373.242188 129.289063 L 373.347656 129.359375 L 373.558594 129.484375 L 373.664063 129.539063 L 373.875 129.632813 L 373.980469 129.671875 L 374.085938 129.707031 L 374.191406 129.734375 L 374.296875 129.757813 L 374.402344 129.777344 L 374.507813 129.792969 L 374.613281 129.800781 L 374.71875 129.804688 L 374.929688 129.796875 L 375.035156 129.785156 L 375.246094 129.746094 L 375.351563 129.71875 L 375.464844 129.683594 L 375.578125 129.640625 L 375.695313 129.59375 L 375.808594 129.542969 L 375.921875 129.484375 L 376.035156 129.417969 L 376.265625 129.273438 L 376.492188 129.101563 L 376.722656 128.90625 L 376.835938 128.804688 L 376.953125 128.691406 L 377.179688 128.453125 L 377.292969 128.328125 L 377.410156 128.195313 L 377.636719 127.914063 L 378.09375 127.289063 L 378.210938 127.121094 L 378.324219 126.949219 L 378.550781 126.585938 L 379.011719 125.8125 L 379.125 125.605469 L 379.238281 125.394531 L 379.46875 124.964844 L 379.925781 124.058594 L 380.839844 122.078125 L 382.667969 117.667969 L 382.777344 117.402344 L 382.882813 117.132813 L 383.097656 116.59375 L 383.523438 115.515625 L 384.378906 113.371094 L 384.589844 112.839844 L 384.804688 112.316406 L 385.230469 111.289063 L 386.085938 109.316406 L 386.191406 109.082031 L 386.300781 108.847656 L 386.511719 108.390625 L 386.941406 107.507813 L 387.152344 107.085938 L 387.367188 106.675781 L 387.792969 105.902344 L 387.902344 105.71875 L 388.007813 105.539063 L 388.222656 105.1875 L 388.328125 105.019531 L 388.433594 104.855469 L 388.648438 104.539063 L 388.753906 104.386719 L 388.863281 104.242188 L 389.074219 103.960938 L 389.503906 103.453125 L 389.605469 103.339844 L 389.710938 103.230469 L 389.921875 103.027344 L 390.027344 102.933594 L 390.128906 102.84375 L 390.339844 102.679688 L 390.445313 102.605469 L 390.546875 102.535156 L 390.652344 102.46875 L 390.757813 102.40625 L 390.863281 102.351563 L 390.96875 102.300781 L 391.070313 102.257813 L 391.175781 102.214844 L 391.28125 102.179688 L 391.386719 102.148438 L 391.492188 102.125 L 391.59375 102.101563 L 391.699219 102.085938 L 391.910156 102.070313 L 392.015625 102.070313 L 392.117188 102.074219 L 392.328125 102.097656 L 392.433594 102.117188 L 392.539063 102.144531 L 392.640625 102.171875 L 392.746094 102.207031 L 392.851563 102.246094 L 392.957031 102.292969 L 393.0625 102.34375 L 393.164063 102.398438 L 393.269531 102.457031 L 393.375 102.519531 L 393.480469 102.589844 L 393.6875 102.742188 L 393.792969 102.828125 L 393.898438 102.917969 L 394.105469 103.109375 L 394.210938 103.210938 L 394.316406 103.316406 L 394.527344 103.546875 L 394.628906 103.667969 L 394.734375 103.792969 L 394.945313 104.058594 L 395.363281 104.636719 L 395.46875 104.792969 L 395.574219 104.953125 L 395.78125 105.28125 L 396.199219 105.992188 L 396.3125 106.191406 L 396.429688 106.398438 L 396.65625 106.824219 L 397.109375 107.71875 L 398.015625 109.675781 L 399.835938 114.039063 L 400.289063 115.179688 L 400.742188 116.328125 L 401.652344 118.609375 L 401.765625 118.890625 L 401.878906 119.167969 L 402.105469 119.726563 L 402.558594 120.816406 L 403.46875 122.886719 L 403.679688 123.347656 L 403.890625 123.792969 L 404.316406 124.652344 L 404.421875 124.859375 L 404.527344 125.0625 L 404.738281 125.460938 L 405.164063 126.210938 L 405.375 126.5625 L 405.585938 126.898438 L 405.695313 127.058594 L 405.800781 127.21875 L 406.011719 127.519531 L 406.117188 127.664063 L 406.222656 127.804688 L 406.433594 128.074219 L 406.859375 128.554688 L 406.964844 128.664063 L 407.070313 128.769531 L 407.28125 128.960938 L 407.390625 129.050781 L 407.496094 129.136719 L 407.707031 129.289063 L 407.8125 129.359375 L 407.917969 129.425781 L 408.023438 129.484375 L 408.128906 129.539063 L 408.238281 129.589844 L 408.34375 129.632813 L 408.449219 129.671875 L 408.554688 129.707031 L 408.765625 129.761719 L 408.976563 129.792969 L 409.085938 129.800781 L 409.191406 129.804688 L 409.402344 129.796875 L 409.613281 129.765625 L 409.71875 129.742188 L 409.824219 129.714844 L 409.933594 129.683594 L 410.039063 129.644531 L 410.144531 129.601563 L 410.25 129.554688 L 410.367188 129.492188 L 410.484375 129.425781 L 410.605469 129.355469 L 410.722656 129.277344 L 410.839844 129.191406 L 410.960938 129.101563 L 411.195313 128.898438 L 411.3125 128.789063 L 411.433594 128.675781 L 411.667969 128.425781 L 411.789063 128.292969 L 411.90625 128.15625 L 412.140625 127.863281 L 412.261719 127.707031 L 412.378906 127.546875 L 412.617188 127.207031 L 413.089844 126.46875 L 413.207031 126.273438 L 413.324219 126.070313 L 413.5625 125.652344 L 414.035156 124.765625 L 414.269531 124.296875 L 414.507813 123.8125 L 414.980469 122.796875 L 415.925781 120.628906 L 416.046875 120.34375 L 416.164063 120.058594 L 416.402344 119.484375 L 416.875 118.316406 L 416.992188 118.023438 L 417.109375 117.726563 L 417.347656 117.132813 L 417.464844 116.832031 L 417.582031 116.535156 L 417.703125 116.234375 L 417.820313 115.9375 " transform="matrix(1,0,0,1,-66,-5)"/>
</g>
</g>
</svg>
