<svg width="1354" height="767" xmlns="http://www.w3.org/2000/svg" xmlns:xlink="http://www.w3.org/1999/xlink" xml:space="preserve" overflow="hidden"><defs><clipPath id="clip0"><rect x="1247" y="1314" width="1354" height="767"/></clipPath><clipPath id="clip1"><rect x="1247" y="1314" width="1238" height="768"/></clipPath><clipPath id="clip2"><rect x="1247" y="1314" width="1238" height="768"/></clipPath><clipPath id="clip3"><rect x="1247" y="1314" width="1238" height="768"/></clipPath><clipPath id="clip4"><rect x="1247" y="1314" width="1238" height="766"/></clipPath></defs><g clip-path="url(#clip0)" transform="translate(-1247 -1314)"><path d="M2456 1691.13 2523.52 1691.13 2523.52 1704.88 2456 1704.88ZM2516.64 1677.38 2557.89 1698 2516.64 1718.63Z" fill="#C80000"/><g clip-path="url(#clip1)"><g clip-path="url(#clip2)"><g clip-path="url(#clip3)"><g clip-path="url(#clip4)"><path d="M24.7528 382.558 25.129 382.845 25.4872 383.149 26.2215 383.723 27.6723 384.923 30.5918 387.376 36.4307 392.553 48.0907 403.478 49.6669 404.983 51.243 406.469 54.4132 409.407 60.7358 415.085 61.1298 415.443 61.5239 415.783 63.8881 417.771 67.0583 420.315 67.8464 420.924 68.6345 421.515 70.2106 422.679 73.3809 424.846 73.7391 425.079 74.1152 425.312 74.8496 425.777 76.3362 426.655 76.6944 426.87 77.0705 427.085 77.8048 427.479 79.2735 428.249 79.6497 428.446 80.0258 428.625 80.7601 428.966 82.2288 429.61 82.605 429.771 82.9632 429.915 83.7154 430.201 85.1841 430.703 85.5603 430.828 85.9185 430.936 86.6707 431.151 87.029 431.258 87.4051 431.348 88.1394 431.527 88.5156 431.616 88.8738 431.688 89.2499 431.76 89.6081 431.831 90.3604 431.939 90.7186 431.992 91.0947 432.046 91.4529 432.082 91.8291 432.136 92.2052 432.154 92.5634 432.189 92.9395 432.207 93.2978 432.225 93.6739 432.243 94.05 432.243 94.4082 432.261 94.7844 432.261 95.1426 432.243 95.8948 432.207 96.2531 432.189 96.6292 432.154 96.9874 432.136 97.3635 432.082 97.7217 432.046 98.7964 431.885 99.1725 431.813 100.247 431.598 100.605 431.509 101.34 431.312 101.698 431.222 102.056 431.115 102.773 430.882 103.149 430.757 103.507 430.613 104.223 430.345 104.582 430.201 104.958 430.04 105.674 429.736 106.391 429.377 107.125 429.019 108.576 428.231 109.292 427.801 110.009 427.336 111.459 426.368 111.818 426.1 112.194 425.831 112.91 425.294 114.361 424.13 115.077 423.521 115.812 422.876 117.245 421.533 120.146 418.595 120.54 418.165 120.934 417.717 121.722 416.84 123.281 414.977 126.415 410.965 126.809 410.446 127.203 409.908 127.991 408.816 129.567 406.559 132.702 401.777 133.49 400.523 134.278 399.251 135.836 396.636 138.988 391.174 145.257 379.352 145.615 378.636 145.992 377.919 148.195 373.513 151.114 367.495 156.971 355.101 157.347 354.313 157.705 353.525 158.44 351.949 159.908 348.779 162.828 342.456 168.703 329.918 169.491 328.235 170.279 326.569 171.873 323.273 175.043 316.826 175.831 315.249 176.637 313.691 178.213 310.628 181.401 304.754 181.795 304.037 182.978 301.942 184.572 299.219 187.742 294.132 188.136 293.523 188.548 292.932 189.336 291.75 190.912 289.511 194.1 285.428 194.476 284.98 194.87 284.514 195.658 283.637 197.217 282.007 197.987 281.237 198.775 280.52 200.333 279.177 200.727 278.872 201.103 278.586 201.891 278.013 202.285 277.762 202.662 277.511 203.45 277.028 203.844 276.813 204.22 276.598 205.008 276.204 205.402 276.025 205.778 275.863 206.96 275.433 207.336 275.326 207.73 275.201 208.518 275.022 208.895 274.95 209.683 274.842 210.077 274.807 210.453 274.789 210.847 274.771 211.241 274.771 211.635 274.789 212.011 274.807 212.405 274.842 213.193 274.95 213.569 275.022 214.357 275.201 214.751 275.326 215.128 275.451 215.522 275.577 215.916 275.72 216.31 275.881 216.686 276.06 217.474 276.454 217.868 276.669 218.244 276.884 219.032 277.386 219.39 277.637 219.766 277.887 220.483 278.443 220.841 278.729 221.217 279.034 221.934 279.678 222.31 280.019 222.668 280.359 223.402 281.093 224.853 282.705 225.57 283.565 226.304 284.496 227.755 286.467 228.113 286.986 228.489 287.523 229.205 288.616 230.656 290.962 231.032 291.571 231.391 292.198 232.125 293.47 233.576 296.174 236.477 302.121 236.836 302.909 237.212 303.715 237.928 305.345 239.379 308.748 242.298 316.073 242.692 317.112 243.086 318.169 243.875 320.318 245.451 324.742 248.603 334.127 254.908 354.868 255.302 356.229 256.484 360.421 258.06 366.098 261.212 377.812 267.517 402.404 267.875 403.872 268.251 405.341 270.454 414.261 273.41 426.243 279.284 450.351 279.66 451.856 280.019 453.342 280.753 456.333 282.24 462.298 285.177 474.065 291.07 496.722 291.428 498.066 292.503 502.042 293.953 507.254 296.837 517.284 297.195 518.484 297.553 519.702 298.27 522.084 299.721 526.741 302.604 535.553 302.962 536.61 303.321 537.649 304.055 539.708 305.488 543.667 306.204 545.565 306.939 547.428 308.372 550.974 308.73 551.834 309.088 552.676 309.822 554.324 311.255 557.44 311.613 558.175 311.99 558.909 312.706 560.324 314.139 562.993 314.533 563.673 314.927 564.318 315.715 565.59 316.109 566.199 316.503 566.79 317.273 567.9 317.667 568.438 318.061 568.939 318.849 569.906 319.226 570.372 319.62 570.802 320.408 571.608 320.802 571.984 321.196 572.342 321.59 572.664 321.966 572.987 322.754 573.56 323.148 573.811 323.542 574.044 323.936 574.259 324.33 574.438 324.706 574.617 325.494 574.903 325.888 575.011 326.676 575.154 327.053 575.19 327.447 575.226 327.841 575.226 328.235 575.208 329.023 575.1 329.417 575.011 329.793 574.903 330.187 574.778 330.581 574.617 330.975 574.438 331.369 574.241 331.763 574.026 332.139 573.793 332.927 573.256 333.715 572.611 334.504 571.894 334.88 571.5 335.274 571.07 336.062 570.175 336.456 569.691 336.85 569.19 337.62 568.097 339.196 565.679 339.554 565.052 339.931 564.408 340.647 563.082 342.116 560.181 342.474 559.393 342.85 558.604 343.566 556.957 345.035 553.446 345.393 552.515 345.769 551.565 346.504 549.613 347.955 545.476 350.874 536.323 351.25 535.087 351.608 533.852 352.343 531.29 353.794 525.989 356.713 514.544 357.089 513.039 357.447 511.517 358.182 508.4 359.633 502.024 362.57 488.483 362.964 486.567 363.358 484.633 364.146 480.728 365.722 472.722 368.892 455.957 375.233 419.795 387.896 340.468 388.29 337.96 388.666 335.435 389.454 330.42 390.994 320.354 394.111 300.276 400.326 260.836 400.72 258.418 401.114 256.018 401.884 251.236 403.443 241.761 406.541 223.331 412.756 188.906 413.132 187.025 413.491 185.145 414.207 181.455 415.658 174.237 418.559 160.589 418.918 158.977 419.294 157.365 420.01 154.195 421.461 148.087 424.362 136.803 425.079 134.188 425.813 131.663 427.264 126.845 427.622 125.699 427.98 124.57 428.715 122.385 430.166 118.283 430.524 117.316 430.882 116.367 431.616 114.558 431.975 113.68 432.333 112.839 433.049 111.209 433.425 110.421 433.784 109.668 434.5 108.235 434.876 107.555 435.234 106.91 435.951 105.674 436.345 105.047 436.739 104.438 437.133 103.865 437.527 103.328 437.921 102.826 438.315 102.343 439.103 101.483 439.497 101.089 439.891 100.731 440.285 100.408 440.679 100.104 441.073 99.8352 441.467 99.6024 441.861 99.4054 442.237 99.2263 442.632 99.083 443.026 98.9755 443.42 98.9039 443.814 98.8501 444.208 98.8322 444.602 98.8501 444.996 98.9039 445.39 98.9755 445.784 99.083 446.178 99.2263 446.572 99.4054 446.966 99.6024 447.36 99.8531 447.754 100.122 448.148 100.426 448.542 100.749 448.936 101.125 449.312 101.519 449.706 101.949 450.1 102.396 450.494 102.898 450.888 103.417 451.677 104.564 452.071 105.191 452.465 105.835 453.253 107.25 454.829 110.421 455.223 111.298 455.617 112.212 456.387 114.11 457.963 118.319 458.357 119.448 458.751 120.594 459.539 123.012 461.116 128.206 461.474 129.478 461.85 130.785 462.584 133.49 464.053 139.203 466.99 151.848 467.349 153.532 467.707 155.251 468.441 158.762 469.91 166.088 472.847 181.849 473.223 183.909 473.582 186.004 474.316 190.267 475.785 199.044 478.722 217.581 484.597 258.257 484.991 261.159 485.385 264.096 486.173 270.006 487.767 282.025 490.955 306.813 497.313 358.719 510.03 466.399 510.818 472.955 511.588 479.492 513.147 492.477 516.281 518.036 522.514 566.826 522.908 569.745 523.302 572.647 524.09 578.396 525.648 589.68 528.765 611.262 529.159 613.859 529.553 616.439 530.323 621.525 531.881 631.43 535.016 650.004 535.374 652.063 535.732 654.087 536.467 658.081 537.917 665.783 538.294 667.646 538.652 669.473 539.386 673.073 540.837 679.933 541.195 681.581 541.571 683.21 542.288 686.381 543.756 692.381 544.115 693.814 544.473 695.211 545.207 697.933 546.658 703.02 547.034 704.22 547.392 705.384 548.127 707.641 548.485 708.716 548.843 709.754 549.577 711.778 549.936 712.728 550.312 713.659 551.028 715.414 552.497 718.584 552.855 719.283 553.213 719.964 553.948 721.235 554.306 721.826 554.664 722.382 555.398 723.385 555.757 723.85 556.133 724.262 556.491 724.656 556.849 725.032 557.225 725.355 557.583 725.659 557.942 725.91 558.318 726.143 558.712 726.358 559.106 726.537 559.5 726.68 559.894 726.788 560.288 726.841 560.682 726.877 561.076 726.859 561.47 726.805 561.864 726.716 562.258 726.591 562.652 726.411 563.046 726.214 563.44 725.964 563.834 725.695 564.228 725.373 564.622 725.014 565.017 724.62 565.428 724.173 565.823 723.707 566.217 723.188 566.611 722.65 567.005 722.059 567.793 720.77 568.187 720.071 568.581 719.319 569.369 717.725 569.763 716.883 570.157 715.987 570.945 714.089 571.339 713.086 571.733 712.047 572.521 709.862 574.097 705.026 574.491 703.736 574.885 702.393 575.691 699.617 577.268 693.635 577.662 692.058 578.056 690.428 578.844 687.097 580.42 679.986 583.572 664.171 583.948 662.183 584.324 660.177 585.059 656.075 586.528 647.55 589.483 629.245 595.375 588.014 595.734 585.256 596.11 582.48 596.844 576.856 598.313 565.357 601.268 541.535 607.161 490.991 607.537 487.803 608.612 478.131 610.062 465.11 612.946 438.727 618.731 385.084 619.448 378.349 620.182 371.597 621.615 358.146 624.516 331.369 630.302 278.908 630.678 275.433 631.072 271.977 631.86 265.081 633.436 251.451 636.57 224.943 636.965 221.719 637.341 218.495 638.129 212.119 639.705 199.581 642.839 175.545 643.233 172.643 643.627 169.759 644.398 164.082 645.974 153.013 649.108 132.129 649.502 129.639 649.896 127.185 650.684 122.367 652.242 113.053 655.377 95.9307 655.753 94.0679 656.111 92.2231 656.846 88.6409 658.314 81.799 658.672 80.1691 659.031 78.5571 659.765 75.4406 661.234 69.5479 661.592 68.1509 661.968 66.7897 662.702 64.1389 664.153 59.2492 664.529 58.1029 664.888 56.9745 665.622 54.8431 667.091 50.9564 667.449 50.0609 667.825 49.2012 668.541 47.5713 668.918 46.8011 669.276 46.0668 670.01 44.7056 670.386 44.0787 670.744 43.4697 671.103 42.8965 671.479 42.3592 671.837 41.8577 672.213 41.392 672.948 40.5502 673.306 40.1741 673.664 39.8338 674.04 39.5293 674.398 39.2606 674.774 39.0099 675.133 38.8129 675.509 38.6338 675.867 38.4905 676.225 38.383 676.601 38.3114 676.96 38.2576 677.336 38.2576 677.694 38.2755 678.052 38.3293 678.428 38.4188 678.786 38.5442 679.18 38.7054 679.592 38.9203 679.986 39.1711 680.38 39.4398 680.775 39.7621 681.169 40.1383 681.563 40.5323 681.957 40.9622 682.369 41.4458 682.763 41.9473 683.157 42.5025 683.551 43.0936 683.945 43.7205 684.339 44.3832 685.127 45.816 685.539 46.5862 685.933 47.3922 686.721 49.1295 687.115 50.0609 687.509 51.0102 688.315 53.052 688.709 54.1088 689.103 55.2192 689.891 57.5297 691.485 62.5806 691.879 63.9418 692.273 65.321 693.061 68.2046 694.655 74.3481 695.049 75.9779 695.444 77.6437 696.232 81.0467 697.826 88.2469 698.22 90.1275 698.614 92.044 699.402 95.9665 700.996 104.152 704.166 121.937 704.56 124.248 704.936 126.576 705.724 131.305 707.283 141.084 710.399 161.735 716.614 206.96 729.08 308.085 729.797 314.246 730.531 320.39 731.982 332.73 734.883 357.447 740.686 406.469 741.063 409.496 741.421 412.523 742.155 418.541 743.606 430.488 746.507 453.969 752.311 498.8 752.705 501.719 753.099 504.603 753.887 510.353 755.463 521.601 758.615 543.165 759.009 545.762 759.403 548.341 760.191 553.41 761.768 563.315 764.902 581.942 765.296 584.163 765.69 586.348 766.478 590.647 768.054 598.922 768.448 600.928 768.842 602.898 769.63 606.767 771.207 614.164 771.601 615.937 771.995 617.674 772.783 621.096 774.359 627.543 774.753 629.084 775.147 630.606 775.935 633.544 777.511 639.024 777.869 640.242 778.246 641.424 778.98 643.717 780.449 647.98 780.825 648.965 781.183 649.932 781.917 651.795 783.386 655.162 783.762 655.932 784.12 656.684 784.855 658.081 785.231 658.744 785.589 659.389 786.323 660.571 786.699 661.126 787.058 661.646 787.434 662.147 787.792 662.613 788.168 663.043 788.526 663.455 789.261 664.189 789.637 664.529 790.013 664.816 790.371 665.103 790.747 665.335 791.106 665.55 791.482 665.747 791.84 665.909 792.216 666.034 792.574 666.141 792.95 666.213 793.309 666.267 793.685 666.285 794.043 666.285 794.419 666.249 794.777 666.195 795.153 666.106 795.512 665.98 795.888 665.837 796.246 665.676 796.622 665.479 796.98 665.246 797.356 664.995 797.715 664.726 798.091 664.422 798.449 664.082 798.825 663.723 799.201 663.347 799.559 662.935 799.936 662.488 800.294 662.022 801.028 661.019 801.386 660.482 801.745 659.926 802.479 658.744 802.837 658.117 803.195 657.455 803.912 656.075 804.27 655.341 804.628 654.589 805.345 653.013 806.795 649.574 807.154 648.66 807.512 647.711 808.228 645.759 809.679 641.586 812.563 632.182 812.921 630.911 813.279 629.621 813.996 626.988 815.446 621.454 818.33 609.471 818.688 607.895 819.047 606.301 819.763 603.041 821.214 596.343 824.079 582.139 824.868 578.127 825.656 574.044 827.214 565.661 830.348 548.216 836.599 510.926 849.101 431.097 849.477 428.751 849.835 426.386 850.57 421.676 852.02 412.273 854.94 393.627 860.779 357.304 861.137 355.083 861.513 352.88 862.248 348.492 863.698 339.841 866.618 322.987 872.457 291.464 873.245 287.452 874.033 283.493 875.609 275.792 878.779 261.248 879.173 259.511 879.567 257.791 880.355 254.406 881.95 247.887 885.102 235.815 885.496 234.4 885.89 233.003 886.696 230.28 888.272 225.068 889.06 222.596 889.848 220.214 891.424 215.719 891.836 214.644 892.23 213.587 893.018 211.563 894.595 207.766 895.383 206.011 896.171 204.345 897.765 201.282 898.123 200.62 898.499 199.975 899.234 198.757 899.61 198.166 899.968 197.611 900.72 196.536 901.078 196.035 901.454 195.551 902.189 194.655 902.565 194.226 902.923 193.832 903.675 193.079 904.034 192.739 904.41 192.417 904.768 192.112 905.144 191.826 905.52 191.557 905.878 191.306 906.255 191.091 906.613 190.876 906.989 190.697 907.365 190.536 907.723 190.393 908.099 190.267 908.458 190.16 908.834 190.07 909.21 189.999 909.568 189.945 909.944 189.909 910.679 189.909 911.055 189.945 911.413 189.981 911.789 190.052 912.165 190.142 912.523 190.231 912.899 190.357 913.258 190.5 913.634 190.661 914.01 190.84 914.368 191.037 914.744 191.252 915.479 191.736 915.855 192.005 916.213 192.291 916.965 192.918 917.323 193.258 917.7 193.617 918.434 194.387 918.81 194.799 919.168 195.229 919.921 196.142 921.389 198.166 921.747 198.703 922.106 199.259 922.84 200.423 924.291 202.912 924.649 203.575 925.007 204.256 925.742 205.653 927.174 208.626 927.551 209.396 928.625 211.814 930.076 215.253 932.978 222.722 933.336 223.707 933.694 224.71 934.428 226.752 935.861 230.961 938.763 239.934 944.548 259.69 945.336 262.52 946.124 265.403 947.7 271.242 950.835 283.278 957.121 308.3 969.695 359.525 970.411 362.462 971.146 365.382 972.614 371.185 975.552 382.576 981.409 404.338 981.785 405.646 982.143 406.935 982.877 409.514 984.346 414.565 987.283 424.291 993.14 442.058 993.928 444.279 994.734 446.447 996.31 450.638 999.499 458.447 1000.29 460.274 1001.07 462.047 1002.67 465.432 1005.84 471.576 1006.25 472.292 1006.65 472.99 1007.43 474.334 1009.03 476.859 1009.42 477.468 1009.82 478.059 1010.62 479.188 1012.2 481.283 1012.59 481.767 1013 482.25 1014.19 483.594 1014.58 484.006 1015.39 484.812 1015.78 485.188 1016.17 485.546 1016.96 486.245 1017.36 486.567 1017.77 486.889 1018.56 487.462 1018.95 487.731 1019.34 487.982 1019.72 488.215 1020.11 488.448 1020.51 488.662 1020.9 488.859 1021.67 489.236 1022.07 489.397 1022.46 489.54 1022.84 489.683 1023.23 489.809 1023.62 489.916 1024.41 490.095 1024.79 490.167 1025.18 490.239 1025.58 490.274 1025.97 490.328 1026.35 490.346 1026.74 490.364 1027.14 490.364 1027.53 490.346 1027.91 490.31 1028.69 490.239 1029.09 490.167 1029.46 490.095 1029.86 490.024 1031.04 489.701 1031.42 489.558 1032.2 489.271 1032.6 489.092 1032.97 488.931 1033.37 488.734 1034.16 488.322 1034.53 488.107 1034.93 487.874 1035.71 487.373 1037.27 486.262 1037.67 485.94 1038.04 485.636 1038.83 484.973 1040.39 483.522 1041.18 482.734 1041.95 481.91 1043.51 480.155 1043.86 479.725 1044.24 479.295 1044.96 478.4 1046.43 476.501 1049.33 472.399 1049.68 471.844 1050.06 471.307 1050.78 470.178 1052.23 467.868 1055.15 462.96 1055.51 462.316 1055.88 461.689 1056.6 460.381 1058.05 457.73 1060.97 452.214 1066.79 440.5 1068.37 437.204 1069.94 433.873 1073.09 427.121 1079.4 413.508 1079.79 412.667 1080.19 411.807 1080.98 410.123 1082.55 406.738 1085.72 400.075 1092.03 387.179 1092.38 386.463 1092.76 385.729 1093.49 384.296 1094.96 381.466 1097.92 375.967 1098.28 375.287 1098.65 374.624 1099.39 373.298 1100.86 370.719 1103.81 365.758 1104.17 365.149 1104.55 364.558 1105.28 363.376 1106.75 361.083 1109.7 356.749 1110.06 356.229 1110.44 355.71 1111.17 354.707 1112.64 352.755 1115.58 349.101 1115.96 348.671 1116.31 348.259 1117.03 347.453 1118.48 345.877 1119.2 345.125 1119.91 344.39 1121.36 343.011 1121.72 342.671 1122.8 341.704 1124.25 340.504 1124.96 339.931 1125.7 339.375 1127.13 338.354 1127.49 338.104 1127.87 337.871 1128.58 337.405 1130.02 336.563 1130.39 336.366 1130.75 336.169 1131.47 335.811 1132.92 335.13 1134.35 334.557 1134.71 334.432 1135.08 334.307 1135.8 334.056 1136.16 333.948 1136.52 333.859 1136.88 333.751 1137.25 333.662 1137.97 333.483 1138.68 333.339 1139.47 333.196 1140.26 333.089 1140.64 333.035 1141.82 332.927 1143 332.874 1144.16 332.874 1145.35 332.927 1146.13 332.999 1146.51 333.035 1146.91 333.071 1147.69 333.178 1148.88 333.393 1149.25 333.465 1150.43 333.733 1151.22 333.93 1151.62 334.056 1151.99 334.163 1153.57 334.665 1154.75 335.095 1155.13 335.256 1155.91 335.578 1157.49 336.277 1157.87 336.456 1159.05 337.047 1160.61 337.871 1163.74 339.734 1164.12 339.966 1164.48 340.199 1165.21 340.683 1166.68 341.668 1169.6 343.781 1175.44 348.474 1175.81 348.779 1176.17 349.083 1176.91 349.71 1178.36 350.999 1181.29 353.614 1187.13 359.024 1187.54 359.4 1187.96 359.794 1188.76 360.564 1190.39 362.104 1193.65 365.203 1200.19 371.292 1200.6 371.669 1201 372.045 1201.82 372.797 1203.45 374.266 1206.71 377.149 1207.12 377.49 1207.53 377.848 1208.34 378.546 1209.97 379.908 1210.79 380.588 1211.62 381.251 1212.01 381.591 1213.25 382.558" stroke="#C80000" stroke-width="12.38" stroke-linecap="square" stroke-miterlimit="3.25" fill="none" transform="matrix(1 0 0 1.00017 1247 1314.57)"/></g></g></g></g></g></svg>