<?xml version="1.0" encoding="UTF-8"?>
<svg xmlns="http://www.w3.org/2000/svg" xmlns:xlink="http://www.w3.org/1999/xlink" width="360pt" height="223pt" viewBox="0 0 360 223" version="1.1">
<defs>
<clipPath id="clip1">
  <path d="M 0 66 L 359 66 L 359 156 L 0 156 Z M 0 66 "/>
</clipPath>
</defs>
<g id="surface16">
<g clip-path="url(#clip1)" clip-rule="nonzero">
<path style="fill:none;stroke-width:3.59;stroke-linecap:square;stroke-linejoin:miter;stroke:rgb(78.430176%,0%,0%);stroke-opacity:1;stroke-miterlimit:3.25;" d="M 73.179688 115.9375 L 73.285156 115.667969 L 73.390625 115.402344 L 73.601563 114.867188 L 74.027344 113.800781 L 74.871094 111.679688 L 76.5625 107.519531 L 76.773438 107.011719 L 76.984375 106.507813 L 77.40625 105.511719 L 78.253906 103.5625 L 79.945313 99.898438 L 80.058594 99.664063 L 80.175781 99.429688 L 80.402344 98.96875 L 80.863281 98.066406 L 81.777344 96.359375 L 81.894531 96.152344 L 82.007813 95.953125 L 82.238281 95.554688 L 82.695313 94.785156 L 83.613281 93.363281 L 83.726563 93.195313 L 83.839844 93.03125 L 84.070313 92.710938 L 84.527344 92.097656 L 84.644531 91.949219 L 84.757813 91.804688 L 84.988281 91.527344 L 85.445313 90.996094 L 85.558594 90.871094 L 85.675781 90.75 L 85.902344 90.511719 L 86.363281 90.070313 L 86.589844 89.867188 L 86.820313 89.675781 L 87.277344 89.328125 L 87.386719 89.25 L 87.492188 89.179688 L 87.707031 89.042969 L 87.8125 88.976563 L 87.921875 88.914063 L 88.132813 88.796875 L 88.242188 88.742188 L 88.347656 88.691406 L 88.457031 88.644531 L 88.667969 88.550781 L 88.777344 88.511719 L 88.992188 88.433594 L 89.203125 88.371094 L 89.3125 88.34375 L 89.417969 88.316406 L 89.527344 88.292969 L 89.738281 88.253906 L 89.847656 88.238281 L 89.953125 88.226563 L 90.0625 88.21875 L 90.273438 88.203125 L 90.488281 88.203125 L 90.59375 88.207031 L 90.703125 88.210938 L 90.808594 88.222656 L 90.917969 88.230469 L 91.128906 88.261719 L 91.238281 88.28125 L 91.34375 88.304688 L 91.453125 88.328125 L 91.664063 88.382813 L 91.773438 88.414063 L 91.878906 88.449219 L 91.988281 88.488281 L 92.09375 88.527344 L 92.199219 88.570313 L 92.414063 88.664063 L 92.523438 88.714844 L 92.628906 88.765625 L 92.84375 88.878906 L 93.054688 89.003906 L 93.269531 89.140625 L 93.378906 89.210938 L 93.484375 89.285156 L 93.699219 89.4375 L 94.125 89.777344 L 94.335938 89.957031 L 94.546875 90.148438 L 94.964844 90.558594 L 95.175781 90.777344 L 95.386719 91.003906 L 95.804688 91.488281 L 95.910156 91.613281 L 96.015625 91.742188 L 96.222656 92.003906 L 96.644531 92.558594 L 97.484375 93.769531 L 97.589844 93.929688 L 97.691406 94.089844 L 97.902344 94.421875 L 98.324219 95.105469 L 99.160156 96.566406 L 100.839844 99.816406 L 100.953125 100.050781 L 101.066406 100.289063 L 101.296875 100.765625 L 101.75 101.742188 L 102.660156 103.765625 L 104.480469 108.050781 L 108.121094 117.148438 L 108.230469 117.414063 L 108.335938 117.683594 L 108.546875 118.21875 L 108.972656 119.285156 L 109.820313 121.40625 L 111.519531 125.535156 L 111.628906 125.785156 L 111.734375 126.039063 L 111.945313 126.535156 L 112.371094 127.519531 L 113.21875 129.433594 L 114.917969 133.011719 L 115.035156 133.238281 L 115.148438 133.464844 L 115.378906 133.914063 L 115.839844 134.78125 L 116.761719 136.421875 L 116.875 136.617188 L 116.992188 136.808594 L 117.222656 137.1875 L 117.679688 137.917969 L 118.601563 139.257813 L 118.71875 139.414063 L 118.832031 139.566406 L 119.0625 139.867188 L 119.523438 140.433594 L 119.636719 140.570313 L 119.753906 140.703125 L 119.984375 140.957031 L 120.441406 141.4375 L 120.558594 141.550781 L 120.671875 141.660156 L 120.902344 141.871094 L 121.019531 141.972656 L 121.132813 142.074219 L 121.363281 142.261719 L 121.480469 142.351563 L 121.59375 142.441406 L 121.824219 142.605469 L 122.285156 142.902344 L 122.511719 143.027344 L 122.738281 143.144531 L 122.847656 143.199219 L 122.960938 143.25 L 123.1875 143.34375 L 123.300781 143.386719 L 123.414063 143.425781 L 123.640625 143.496094 L 123.753906 143.527344 L 123.867188 143.554688 L 124.09375 143.601563 L 124.207031 143.621094 L 124.320313 143.636719 L 124.429688 143.648438 L 124.542969 143.660156 L 124.65625 143.664063 L 124.769531 143.671875 L 124.882813 143.671875 L 125.109375 143.664063 L 125.335938 143.648438 L 125.5625 143.617188 L 125.675781 143.597656 L 125.789063 143.574219 L 125.898438 143.550781 L 126.011719 143.523438 L 126.125 143.492188 L 126.351563 143.421875 L 126.464844 143.382813 L 126.578125 143.339844 L 126.804688 143.242188 L 126.917969 143.191406 L 127.03125 143.136719 L 127.257813 143.019531 L 127.367188 142.957031 L 127.480469 142.890625 L 127.707031 142.753906 L 127.820313 142.679688 L 127.933594 142.601563 L 128.160156 142.4375 L 128.613281 142.078125 L 128.726563 141.980469 L 128.835938 141.882813 L 129.0625 141.675781 L 129.515625 141.226563 L 129.621094 141.117188 L 129.726563 141.003906 L 129.9375 140.773438 L 130.359375 140.277344 L 131.203125 139.1875 L 131.414063 138.890625 L 131.625 138.589844 L 132.046875 137.957031 L 132.886719 136.597656 L 133.097656 136.238281 L 133.308594 135.871094 L 133.730469 135.117188 L 134.574219 133.519531 L 136.261719 130.027344 L 136.375 129.78125 L 136.488281 129.527344 L 136.71875 129.023438 L 137.175781 127.992188 L 138.089844 125.871094 L 139.917969 121.4375 L 143.574219 112.238281 L 143.683594 111.972656 L 143.789063 111.703125 L 144.003906 111.171875 L 144.429688 110.113281 L 145.28125 108.023438 L 146.988281 104 L 147.097656 103.757813 L 147.203125 103.515625 L 147.417969 103.035156 L 147.84375 102.089844 L 148.695313 100.265625 L 150.402344 96.90625 L 150.507813 96.714844 L 150.613281 96.527344 L 150.820313 96.152344 L 151.242188 95.425781 L 152.078125 94.0625 L 152.179688 93.902344 L 152.285156 93.742188 L 152.496094 93.429688 L 152.914063 92.828125 L 153.75 91.726563 L 153.855469 91.597656 L 153.960938 91.472656 L 154.167969 91.226563 L 154.585938 90.765625 L 154.796875 90.546875 L 155.003906 90.339844 L 155.425781 89.953125 L 155.527344 89.859375 L 155.632813 89.769531 L 155.84375 89.601563 L 155.945313 89.519531 L 156.050781 89.441406 L 156.261719 89.289063 L 156.367188 89.214844 L 156.46875 89.148438 L 156.679688 89.015625 L 156.785156 88.953125 L 156.886719 88.894531 L 157.097656 88.78125 L 157.210938 88.722656 L 157.324219 88.667969 L 157.4375 88.617188 L 157.550781 88.570313 L 157.777344 88.484375 L 158.003906 88.40625 L 158.230469 88.34375 L 158.347656 88.316406 L 158.574219 88.269531 L 158.914063 88.222656 L 159.140625 88.207031 L 159.253906 88.203125 L 159.367188 88.203125 L 159.59375 88.210938 L 159.707031 88.21875 L 159.933594 88.242188 L 160.160156 88.28125 L 160.386719 88.328125 L 160.5 88.359375 L 160.617188 88.390625 L 160.84375 88.460938 L 161.070313 88.546875 L 161.183594 88.59375 L 161.410156 88.695313 L 161.636719 88.808594 L 161.863281 88.933594 L 162.089844 89.070313 L 162.542969 89.378906 L 162.65625 89.460938 L 162.773438 89.546875 L 163 89.730469 L 163.453125 90.128906 L 163.566406 90.234375 L 163.679688 90.34375 L 163.90625 90.570313 L 164.359375 91.058594 L 164.464844 91.175781 L 164.570313 91.296875 L 164.785156 91.546875 L 165.207031 92.074219 L 166.054688 93.238281 L 166.265625 93.550781 L 166.476563 93.871094 L 166.902344 94.535156 L 167.75 95.960938 L 167.855469 96.144531 L 167.960938 96.335938 L 168.171875 96.714844 L 168.597656 97.503906 L 169.441406 99.15625 L 171.136719 102.753906 L 171.253906 103.007813 L 171.367188 103.265625 L 171.597656 103.785156 L 172.054688 104.839844 L 172.972656 107.003906 L 174.808594 111.503906 L 178.484375 120.746094 L 178.597656 121.023438 L 178.707031 121.304688 L 178.933594 121.863281 L 179.382813 122.96875 L 180.285156 125.148438 L 182.089844 129.304688 L 182.203125 129.554688 L 182.3125 129.800781 L 182.539063 130.292969 L 182.992188 131.253906 L 183.890625 133.101563 L 185.695313 136.433594 L 185.800781 136.609375 L 185.90625 136.789063 L 186.113281 137.132813 L 186.535156 137.804688 L 186.746094 138.125 L 186.957031 138.441406 L 187.375 139.046875 L 187.585938 139.335938 L 187.796875 139.617188 L 188.21875 140.152344 L 189.058594 141.117188 L 189.164063 141.226563 L 189.269531 141.332031 L 189.476563 141.542969 L 189.898438 141.933594 L 190.109375 142.113281 L 190.320313 142.285156 L 190.738281 142.597656 L 190.949219 142.738281 L 191.160156 142.871094 L 191.265625 142.929688 L 191.371094 142.992188 L 191.578125 143.101563 L 191.683594 143.15625 L 191.789063 143.207031 L 191.894531 143.253906 L 192.105469 143.339844 L 192.210938 143.378906 L 192.421875 143.449219 L 192.648438 143.519531 L 192.875 143.574219 L 192.992188 143.59375 L 193.21875 143.632813 L 193.445313 143.65625 L 193.558594 143.664063 L 193.675781 143.667969 L 193.789063 143.671875 L 193.902344 143.671875 L 194.015625 143.667969 L 194.128906 143.660156 L 194.242188 143.648438 L 194.359375 143.636719 L 194.472656 143.621094 L 194.585938 143.601563 L 194.8125 143.554688 L 194.929688 143.527344 L 195.042969 143.496094 L 195.269531 143.425781 L 195.496094 143.339844 L 195.613281 143.296875 L 195.839844 143.195313 L 196.183594 143.023438 L 196.296875 142.960938 L 196.523438 142.824219 L 196.75 142.675781 L 196.980469 142.515625 L 197.09375 142.433594 L 197.207031 142.347656 L 197.433594 142.164063 L 197.890625 141.769531 L 198.003906 141.664063 L 198.121094 141.554688 L 198.347656 141.328125 L 198.804688 140.839844 L 199.714844 139.742188 L 199.820313 139.601563 L 199.929688 139.460938 L 200.140625 139.171875 L 200.566406 138.566406 L 201.417969 137.257813 L 201.523438 137.082031 L 201.628906 136.910156 L 201.84375 136.550781 L 202.269531 135.816406 L 203.121094 134.257813 L 203.332031 133.851563 L 203.546875 133.4375 L 203.96875 132.589844 L 204.820313 130.820313 L 206.523438 127.027344 L 206.640625 126.757813 L 206.753906 126.488281 L 206.984375 125.949219 L 207.445313 124.851563 L 208.367188 122.617188 L 210.210938 118.015625 L 210.328125 117.726563 L 210.441406 117.433594 L 211.132813 115.6875 L 212.058594 113.359375 L 213.902344 108.773438 L 214.015625 108.5 L 214.128906 108.222656 L 214.355469 107.675781 L 214.808594 106.589844 L 215.710938 104.46875 L 216.164063 103.4375 L 216.617188 102.425781 L 217.523438 100.476563 L 217.636719 100.238281 L 217.75 100.003906 L 217.976563 99.539063 L 218.429688 98.628906 L 219.332031 96.902344 L 219.445313 96.695313 L 219.785156 96.085938 L 220.238281 95.304688 L 221.144531 93.847656 L 221.355469 93.527344 L 221.566406 93.21875 L 221.988281 92.621094 L 222.09375 92.480469 L 222.199219 92.335938 L 222.410156 92.0625 L 222.835938 91.535156 L 223.046875 91.285156 L 223.257813 91.046875 L 223.679688 90.59375 L 223.890625 90.382813 L 224.101563 90.179688 L 224.523438 89.804688 L 224.628906 89.714844 L 224.734375 89.628906 L 224.945313 89.464844 L 225.050781 89.386719 L 225.15625 89.3125 L 225.367188 89.167969 L 225.472656 89.097656 L 225.578125 89.03125 L 225.789063 88.90625 L 225.894531 88.847656 L 226 88.792969 L 226.210938 88.6875 L 226.316406 88.640625 L 226.425781 88.59375 L 226.636719 88.507813 L 226.742188 88.472656 L 226.847656 88.433594 L 227.058594 88.371094 L 227.269531 88.316406 L 227.375 88.292969 L 227.480469 88.273438 L 227.796875 88.226563 L 227.902344 88.21875 L 228.015625 88.210938 L 228.132813 88.203125 L 228.359375 88.203125 L 228.472656 88.207031 L 228.589844 88.214844 L 228.816406 88.238281 L 228.933594 88.253906 L 229.160156 88.292969 L 229.277344 88.320313 L 229.390625 88.347656 L 229.503906 88.378906 L 229.621094 88.414063 L 229.734375 88.449219 L 229.847656 88.488281 L 229.960938 88.53125 L 230.191406 88.628906 L 230.304688 88.679688 L 230.421875 88.734375 L 230.648438 88.855469 L 230.765625 88.917969 L 230.878906 88.984375 L 231.105469 89.125 L 231.566406 89.445313 L 231.792969 89.625 L 232.023438 89.8125 L 232.480469 90.222656 L 232.59375 90.332031 L 232.710938 90.445313 L 232.9375 90.679688 L 233.398438 91.179688 L 233.625 91.445313 L 233.855469 91.722656 L 234.3125 92.308594 L 235.226563 93.601563 L 235.335938 93.761719 L 235.441406 93.925781 L 235.65625 94.257813 L 236.082031 94.949219 L 236.9375 96.421875 L 238.648438 99.71875 L 238.753906 99.941406 L 238.863281 100.160156 L 239.074219 100.609375 L 239.503906 101.519531 L 240.359375 103.410156 L 242.070313 107.402344 L 242.171875 107.65625 L 242.488281 108.417969 L 242.90625 109.441406 L 243.746094 111.519531 L 245.421875 115.738281 L 245.632813 116.269531 L 245.839844 116.796875 L 246.261719 117.855469 L 247.097656 119.964844 L 248.773438 124.09375 L 248.886719 124.367188 L 249.003906 124.640625 L 249.230469 125.183594 L 249.683594 126.261719 L 250.59375 128.355469 L 250.707031 128.613281 L 251.046875 129.375 L 251.503906 130.367188 L 252.414063 132.277344 L 252.527344 132.511719 L 252.867188 133.191406 L 253.320313 134.078125 L 254.230469 135.753906 L 254.457031 136.152344 L 254.6875 136.539063 L 255.140625 137.292969 L 256.050781 138.683594 L 256.15625 138.835938 L 256.472656 139.28125 L 256.898438 139.839844 L 257.003906 139.976563 L 257.109375 140.109375 L 257.324219 140.367188 L 257.746094 140.855469 L 257.851563 140.972656 L 257.960938 141.085938 L 258.171875 141.308594 L 258.59375 141.722656 L 258.703125 141.820313 L 258.808594 141.914063 L 259.019531 142.097656 L 259.445313 142.433594 L 259.65625 142.589844 L 259.867188 142.730469 L 259.976563 142.800781 L 260.082031 142.867188 L 260.292969 142.988281 L 260.398438 143.046875 L 260.503906 143.101563 L 260.71875 143.203125 L 260.824219 143.253906 L 260.929688 143.296875 L 261.140625 143.378906 L 261.246094 143.417969 L 261.355469 143.453125 L 261.566406 143.515625 L 261.671875 143.542969 L 261.882813 143.589844 L 261.988281 143.609375 L 262.097656 143.625 L 262.203125 143.640625 L 262.308594 143.652344 L 262.519531 143.667969 L 262.625 143.671875 L 262.839844 143.671875 L 262.953125 143.664063 L 263.070313 143.660156 L 263.183594 143.648438 L 263.296875 143.632813 L 263.414063 143.617188 L 263.527344 143.597656 L 263.644531 143.574219 L 263.757813 143.550781 L 263.875 143.519531 L 263.988281 143.488281 L 264.101563 143.453125 L 264.21875 143.417969 L 264.332031 143.375 L 264.449219 143.332031 L 264.679688 143.234375 L 264.792969 143.183594 L 264.910156 143.128906 L 265.136719 143.007813 L 265.253906 142.941406 L 265.367188 142.875 L 265.597656 142.730469 L 265.714844 142.652344 L 265.828125 142.574219 L 266.058594 142.40625 L 266.519531 142.035156 L 266.632813 141.9375 L 266.746094 141.832031 L 266.976563 141.621094 L 267.4375 141.160156 L 267.550781 141.035156 L 267.667969 140.910156 L 267.898438 140.652344 L 268.355469 140.105469 L 268.472656 139.960938 L 268.585938 139.8125 L 268.816406 139.511719 L 269.277344 138.878906 L 270.195313 137.496094 L 270.421875 137.128906 L 270.648438 136.757813 L 271.101563 135.988281 L 272.003906 134.34375 L 273.808594 130.695313 L 273.921875 130.453125 L 274.261719 129.714844 L 274.710938 128.714844 L 275.613281 126.648438 L 277.421875 122.308594 L 277.527344 122.050781 L 277.632813 121.789063 L 277.839844 121.269531 L 278.261719 120.21875 L 279.105469 118.105469 L 280.789063 113.851563 L 281 113.320313 L 281.632813 111.738281 L 282.472656 109.648438 L 284.160156 105.589844 L 284.273438 105.324219 L 284.386719 105.054688 L 284.613281 104.527344 L 285.070313 103.484375 L 285.984375 101.46875 L 286.097656 101.222656 L 286.214844 100.980469 L 286.441406 100.496094 L 286.898438 99.550781 L 287.8125 97.746094 L 288.039063 97.316406 L 288.269531 96.890625 L 288.726563 96.070313 L 289.636719 94.527344 L 289.753906 94.347656 L 289.867188 94.164063 L 290.09375 93.8125 L 290.550781 93.136719 L 291.464844 91.902344 L 291.570313 91.769531 L 291.679688 91.636719 L 291.890625 91.382813 L 292.316406 90.898438 L 292.425781 90.785156 L 292.53125 90.671875 L 292.742188 90.457031 L 293.171875 90.050781 L 293.277344 89.953125 L 293.382813 89.859375 L 293.597656 89.683594 L 293.808594 89.511719 L 294.023438 89.355469 L 294.234375 89.207031 L 294.449219 89.066406 L 294.554688 89.003906 L 294.664063 88.9375 L 294.875 88.820313 L 294.980469 88.765625 L 295.089844 88.714844 L 295.300781 88.617188 L 295.410156 88.570313 L 295.515625 88.527344 L 295.726563 88.449219 L 295.835938 88.417969 L 295.941406 88.382813 L 296.046875 88.355469 L 296.15625 88.328125 L 296.367188 88.28125 L 296.472656 88.261719 L 296.582031 88.246094 L 296.792969 88.222656 L 296.902344 88.214844 L 297.007813 88.207031 L 297.113281 88.203125 L 297.328125 88.203125 L 297.433594 88.210938 L 297.539063 88.214844 L 297.644531 88.226563 L 297.753906 88.238281 L 297.964844 88.269531 L 298.074219 88.292969 L 298.179688 88.3125 L 298.390625 88.367188 L 298.496094 88.398438 L 298.597656 88.429688 L 298.808594 88.5 L 298.914063 88.542969 L 299.121094 88.628906 L 299.226563 88.675781 L 299.332031 88.726563 L 299.539063 88.832031 L 299.75 88.949219 L 299.957031 89.078125 L 300.0625 89.144531 L 300.167969 89.214844 L 300.375 89.359375 L 300.792969 89.679688 L 300.898438 89.765625 L 301.003906 89.855469 L 301.210938 90.039063 L 301.628906 90.4375 L 301.839844 90.648438 L 302.046875 90.871094 L 302.464844 91.339844 L 303.300781 92.386719 L 303.40625 92.527344 L 303.507813 92.671875 L 303.71875 92.960938 L 304.136719 93.570313 L 304.972656 94.882813 L 305.085938 95.070313 L 305.199219 95.261719 L 305.425781 95.648438 L 305.878906 96.445313 L 306.785156 98.140625 L 308.601563 101.886719 L 308.714844 102.132813 L 308.828125 102.382813 L 309.054688 102.886719 L 309.507813 103.910156 L 310.414063 106.015625 L 312.226563 110.410156 L 312.332031 110.675781 L 312.4375 110.9375 L 312.652344 111.464844 L 313.074219 112.523438 L 313.921875 114.652344 L 315.613281 118.925781 L 316.035156 119.988281 L 316.457031 121.042969 L 317.304688 123.128906 L 318.996094 127.15625 L 319.113281 127.421875 L 319.226563 127.683594 L 319.457031 128.207031 L 319.914063 129.238281 L 320.832031 131.222656 L 320.945313 131.464844 L 321.0625 131.703125 L 321.289063 132.175781 L 321.75 133.101563 L 322.667969 134.863281 L 322.78125 135.074219 L 322.894531 135.28125 L 323.125 135.691406 L 323.582031 136.488281 L 324.5 137.972656 L 324.617188 138.148438 L 324.730469 138.320313 L 324.960938 138.65625 L 325.417969 139.300781 L 326.335938 140.46875 L 326.441406 140.59375 L 326.550781 140.714844 L 326.765625 140.953125 L 327.191406 141.402344 L 327.300781 141.507813 L 327.40625 141.613281 L 327.621094 141.8125 L 328.046875 142.183594 L 328.15625 142.269531 L 328.261719 142.351563 L 328.476563 142.511719 L 328.585938 142.589844 L 328.691406 142.660156 L 328.90625 142.800781 L 329.011719 142.867188 L 329.121094 142.929688 L 329.332031 143.050781 L 329.441406 143.105469 L 329.546875 143.160156 L 329.761719 143.257813 L 329.867188 143.300781 L 329.976563 143.34375 L 330.082031 143.386719 L 330.191406 143.421875 L 330.296875 143.457031 L 330.402344 143.488281 L 330.511719 143.519531 L 330.617188 143.546875 L 330.726563 143.570313 L 330.832031 143.59375 L 330.941406 143.613281 L 331.046875 143.628906 L 331.152344 143.640625 L 331.261719 143.652344 L 331.367188 143.660156 L 331.476563 143.667969 L 331.582031 143.671875 L 331.6875 143.671875 L 331.796875 143.667969 L 331.902344 143.664063 L 332.011719 143.65625 L 332.117188 143.648438 L 332.222656 143.632813 L 332.332031 143.621094 L 332.4375 143.601563 L 332.546875 143.582031 L 332.652344 143.558594 L 332.761719 143.53125 L 332.867188 143.503906 L 332.972656 143.472656 L 333.1875 143.402344 L 333.398438 143.324219 L 333.609375 143.234375 L 333.714844 143.1875 L 333.816406 143.136719 L 334.027344 143.027344 L 334.238281 142.910156 L 334.449219 142.78125 L 334.867188 142.496094 L 334.972656 142.417969 L 335.078125 142.335938 L 335.289063 142.167969 L 335.707031 141.804688 L 335.917969 141.609375 L 336.128906 141.402344 L 336.546875 140.964844 L 336.757813 140.730469 L 336.96875 140.488281 L 337.386719 139.976563 L 338.226563 138.847656 L 338.332031 138.699219 L 338.4375 138.546875 L 338.648438 138.234375 L 339.066406 137.585938 L 339.90625 136.199219 L 340.132813 135.800781 L 340.363281 135.394531 L 340.816406 134.558594 L 341.726563 132.789063 L 343.550781 128.914063 L 343.664063 128.660156 L 344.003906 127.886719 L 344.460938 126.839844 L 345.371094 124.683594 L 347.195313 120.214844 L 347.40625 119.683594 L 347.617188 119.148438 L 348.042969 118.078125 L 348.894531 115.933594 L 350.59375 111.652344 L 350.804688 111.121094 L 351.019531 110.59375 L 351.445313 109.542969 L 352.292969 107.472656 L 353.996094 103.496094 L 354.109375 103.238281 L 354.226563 102.980469 L 354.457031 102.46875 L 354.914063 101.460938 L 355.835938 99.527344 L 355.953125 99.292969 L 356.066406 99.0625 L 356.296875 98.605469 L 356.757813 97.710938 L 357.679688 96.023438 L 357.792969 95.820313 L 357.910156 95.621094 L 358.140625 95.230469 L 358.601563 94.472656 L 358.714844 94.289063 L 358.832031 94.109375 L 359.0625 93.753906 L 359.523438 93.074219 L 359.636719 92.910156 L 359.753906 92.75 L 359.984375 92.4375 L 360.445313 91.839844 L 360.558594 91.695313 L 360.671875 91.554688 L 360.902344 91.285156 L 361.363281 90.773438 L 361.476563 90.652344 L 361.816406 90.3125 L 362.269531 89.898438 L 362.382813 89.800781 L 362.496094 89.707031 L 362.722656 89.527344 L 363.171875 89.199219 L 363.285156 89.125 L 363.398438 89.054688 L 363.625 88.917969 L 363.738281 88.855469 L 363.851563 88.796875 L 364.078125 88.683594 L 364.304688 88.582031 L 364.644531 88.453125 L 364.871094 88.382813 L 364.984375 88.351563 L 365.09375 88.324219 L 365.320313 88.277344 L 365.433594 88.257813 L 365.660156 88.226563 L 366 88.203125 L 366.226563 88.203125 L 366.339844 88.207031 L 366.453125 88.214844 L 366.679688 88.238281 L 366.792969 88.253906 L 367.019531 88.292969 L 367.128906 88.320313 L 367.242188 88.347656 L 367.46875 88.410156 L 367.695313 88.488281 L 367.921875 88.574219 L 368.148438 88.671875 L 368.261719 88.726563 L 368.375 88.785156 L 368.601563 88.90625 L 368.8125 89.03125 L 369.023438 89.164063 L 369.128906 89.234375 L 369.234375 89.308594 L 369.550781 89.542969 L 369.867188 89.800781 L 370.289063 90.175781 L 370.5 90.378906 L 370.710938 90.589844 L 371.132813 91.042969 L 371.976563 92.054688 L 372.082031 92.191406 L 372.1875 92.332031 L 372.398438 92.617188 L 372.820313 93.210938 L 373.664063 94.5 L 373.769531 94.667969 L 373.875 94.839844 L 374.085938 95.191406 L 374.507813 95.914063 L 375.351563 97.445313 L 375.578125 97.882813 L 375.808594 98.324219 L 376.265625 99.234375 L 377.179688 101.136719 L 379.011719 105.234375 L 382.667969 114.203125 L 382.777344 114.472656 L 382.882813 114.742188 L 383.097656 115.28125 L 383.523438 116.359375 L 384.378906 118.515625 L 386.085938 122.765625 L 386.191406 123.027344 L 386.300781 123.289063 L 386.511719 123.808594 L 386.941406 124.835938 L 387.792969 126.851563 L 389.503906 130.675781 L 389.605469 130.898438 L 389.710938 131.121094 L 389.921875 131.5625 L 390.339844 132.421875 L 391.175781 134.078125 L 391.28125 134.277344 L 391.386719 134.472656 L 391.59375 134.863281 L 392.015625 135.625 L 392.851563 137.054688 L 392.957031 137.226563 L 393.0625 137.394531 L 393.269531 137.726563 L 393.6875 138.363281 L 393.792969 138.519531 L 393.898438 138.671875 L 394.105469 138.972656 L 394.527344 139.542969 L 394.628906 139.679688 L 394.734375 139.816406 L 394.945313 140.082031 L 395.363281 140.585938 L 395.46875 140.707031 L 395.574219 140.824219 L 395.78125 141.050781 L 396.199219 141.484375 L 396.3125 141.59375 L 396.429688 141.699219 L 396.65625 141.90625 L 396.769531 142.007813 L 396.882813 142.105469 L 397.109375 142.289063 L 397.335938 142.460938 L 397.5625 142.625 L 398.015625 142.914063 L 398.132813 142.980469 L 398.246094 143.042969 L 398.472656 143.15625 L 398.585938 143.210938 L 398.699219 143.261719 L 398.925781 143.355469 L 399.152344 143.433594 L 399.378906 143.503906 L 399.492188 143.535156 L 399.605469 143.5625 L 399.722656 143.585938 L 399.949219 143.625 L 400.0625 143.640625 L 400.175781 143.652344 L 400.402344 143.667969 L 400.515625 143.671875 L 400.628906 143.671875 L 400.855469 143.664063 L 400.96875 143.65625 L 401.082031 143.644531 L 401.195313 143.628906 L 401.3125 143.609375 L 401.425781 143.589844 L 401.652344 143.542969 L 401.878906 143.480469 L 401.992188 143.445313 L 402.21875 143.367188 L 402.332031 143.320313 L 402.558594 143.222656 L 402.671875 143.171875 L 402.785156 143.117188 L 403.015625 142.996094 L 403.242188 142.863281 L 403.46875 142.722656 L 403.574219 142.648438 L 403.679688 142.578125 L 403.890625 142.421875 L 404.316406 142.085938 L 404.421875 141.996094 L 404.527344 141.902344 L 404.738281 141.707031 L 405.164063 141.292969 L 405.269531 141.183594 L 405.375 141.070313 L 405.585938 140.839844 L 406.011719 140.351563 L 406.859375 139.261719 L 406.964844 139.117188 L 407.070313 138.96875 L 407.28125 138.664063 L 407.707031 138.035156 L 408.554688 136.675781 L 408.765625 136.316406 L 408.976563 135.949219 L 409.402344 135.191406 L 410.25 133.59375 L 410.367188 133.359375 L 410.484375 133.128906 L 410.722656 132.652344 L 411.195313 131.683594 L 412.140625 129.660156 L 414.035156 125.316406 L 414.269531 124.753906 L 414.507813 124.183594 L 414.980469 123.035156 L 415.925781 120.699219 L 416.046875 120.402344 L 416.164063 120.109375 L 416.402344 119.515625 L 416.875 118.328125 L 416.992188 118.027344 L 417.109375 117.730469 L 417.347656 117.132813 L 417.464844 116.835938 L 417.582031 116.535156 L 417.703125 116.234375 L 417.820313 115.9375 " transform="matrix(1,0,0,1,-66,-5)"/>
</g>
</g>
</svg>
